<?xml version="1.0" encoding="UTF-8"?>
<svg version="1.1" xmlns="http://www.w3.org/2000/svg" width="275" height="98">
<path d="M0 0 C22.44 0 44.88 0 68 0 C68 15.84 68 31.68 68 48 C45.56 48 23.12 48 0 48 C0 32.16 0 16.32 0 0 Z " fill="#D32534" transform="translate(11,14)"/>
<path d="M0 0 C22.44 0 44.88 0 68 0 C68 15.84 68 31.68 68 48 C45.56 48 23.12 48 0 48 C0 32.16 0 16.32 0 0 Z M4 4 C4 16.87 4 29.74 4 43 C23.47 43 42.94 43 63 43 C63 30.13 63 17.26 63 4 C43.53 4 24.06 4 4 4 Z " fill="#D8414E" transform="translate(11,14)"/>
<path d="M0 0 C20.46 0 40.92 0 62 0 C62 13.86 62 27.72 62 42 C41.54 42 21.08 42 0 42 C0 28.14 0 14.28 0 0 Z M1 1 C1 13.87 1 26.74 1 40 C20.47 40 39.94 40 60 40 C60 27.13 60 14.26 60 1 C40.53 1 21.06 1 1 1 Z " fill="#F7D9DB" transform="translate(14,17)"/>
<path d="M0 0 C1 1 1 1 1.0625 3.375 C1.041875 4.24125 1.02125 5.1075 1 6 C1 6.99 1 7.98 1 9 C1.33 9.33 1.66 9.66 2 10 C2.45533737 15.23637974 2.45533737 15.23637974 0.99609375 17.68359375 C-2.16930096 19.77114369 -5.53296944 19.31197746 -9.1875 19.1875 C-9.93708984 19.17396484 -10.68667969 19.16042969 -11.45898438 19.14648438 C-13.30629767 19.11118539 -15.15324066 19.05737917 -17 19 C-15.68 18.67 -14.36 18.34 -13 18 C-13 12.06 -13 6.12 -13 0 C-13.99 -0.33 -14.98 -0.66 -16 -1 C-10.48336122 -2.76532441 -5.18690768 -2.59345384 0 0 Z " fill="#F5D1D4" transform="translate(39,29)"/>
<path d="M0 0 C1.98 0 3.96 0 6 0 C6.66 1.32 7.32 2.64 8 4 C8.33 3.67 8.66 3.34 9 3 C11.35313555 2.92728259 13.70833668 2.91629132 16.0625 2.9375 C17.35285156 2.94652344 18.64320312 2.95554687 19.97265625 2.96484375 C20.97167969 2.97644531 21.97070312 2.98804687 23 3 C23 2.01 23 1.02 23 0 C23.99 0 24.98 0 26 0 C26.33 0.99 26.66 1.98 27 3 C28.134375 2.979375 29.26875 2.95875 30.4375 2.9375 C34 3 34 3 35 4 C35.125 7 35.125 7 35 10 C34 11 34 11 31.75 11.1328125 C30.8425 11.13023438 29.935 11.12765625 29 11.125 C27.63875 11.12886719 27.63875 11.12886719 26.25 11.1328125 C24 11 24 11 23 10 C22.95936168 8.33382885 22.957279 6.66611905 23 5 C22.34 6.98 21.68 8.96 21 11 C14 11 7 11 0 11 C0 7.37 0 3.74 0 0 Z M3 2 C4 4 4 4 4 4 Z M11 5 C11 6.32 11 7.64 11 9 C11.33 7.68 11.66 6.36 12 5 C11.67 5 11.34 5 11 5 Z M26 5 C26.33 5.99 26.66 6.98 27 8 C27.33 7.01 27.66 6.02 28 5 C27.34 5 26.68 5 26 5 Z M31 5 C31 6.32 31 7.64 31 9 C31.33 7.68 31.66 6.36 32 5 C31.67 5 31.34 5 31 5 Z M3 6 C4 8 4 8 4 8 Z M15 6 C16 9 16 9 16 9 Z M27 8 C28 10 28 10 28 10 Z " fill="#4C4C4C" transform="translate(11,75)"/>
<path d="M0 0 C0.66 0.33 1.32 0.66 2 1 C2 1.66 2 2.32 2 3 C4.24866834 4.41582821 5.406339 5.12592809 8.0625 4.5625 C12.15725789 3.77839743 16.15456576 3.89483769 20.3125 3.9375 C21.14845703 3.94201172 21.98441406 3.94652344 22.84570312 3.95117188 C24.89716649 3.96289452 26.94859273 3.98082797 29 4 C29.04241723 6.33294775 29.04092937 8.66702567 29 11 C28 12 28 12 25.4375 12.0625 C24.633125 12.041875 23.82875 12.02125 23 12 C23 11.01 23 10.02 23 9 C22.67 8.34 22.34 7.68 22 7 C21.34 7 20.68 7 20 7 C20 8.65 20 10.3 20 12 C18.54257537 12.08096803 17.08387193 12.13917774 15.625 12.1875 C14.81289062 12.22230469 14.00078125 12.25710937 13.1640625 12.29296875 C12.44992188 12.19628906 11.73578125 12.09960938 11 12 C10.34 11.01 9.68 10.02 9 9 C8.67 9.99 8.34 10.98 8 12 C6.68 12 5.36 12 4 12 C3.67 11.01 3.34 10.02 3 9 C2.67 9.99 2.34 10.98 2 12 C1.01 12 0.02 12 -1 12 C-1.02687279 10.18757948 -1.04633715 8.37504767 -1.0625 6.5625 C-1.07410156 5.55316406 -1.08570312 4.54382813 -1.09765625 3.50390625 C-1 1 -1 1 0 0 Z " fill="#505050" transform="translate(77,74)"/>
<path d="M0 0 C2.64 0 5.28 0 8 0 C7.01 0.495 7.01 0.495 6 1 C6.08679142 3.46008778 6.19360955 5.91643517 6.3125 8.375 C6.33505859 9.07367188 6.35761719 9.77234375 6.38085938 10.4921875 C6.46984296 12.77288941 6.46984296 12.77288941 7 16 C9.89579382 18.37222995 9.89579382 18.37222995 13.5625 17.75 C17.04592612 17.3141556 17.04592612 17.3141556 19 15 C19.32027305 11.94180773 19.32027305 11.94180773 19.25 8.5 C19.25515625 7.3346875 19.2603125 6.169375 19.265625 4.96875 C19.30925773 1.88173935 19.30925773 1.88173935 17 0 C19.31 0 21.62 0 24 0 C23.01 0.495 23.01 0.495 22 1 C22.04640625 1.95261719 22.0928125 2.90523437 22.140625 3.88671875 C22.19476563 5.76810547 22.19476563 5.76810547 22.25 7.6875 C22.29640625 8.92886719 22.3428125 10.17023437 22.390625 11.44921875 C21.93733018 15.5696687 20.89748679 17.10787892 18 20 C14.79826746 21.60086627 11.47422941 21.49917089 8 21 C5.1899654 19.20636089 3.49059532 17.98119065 2 15 C1.92883618 12.62597499 1.91590915 10.24999323 1.9375 7.875 C1.94652344 6.59367187 1.95554688 5.31234375 1.96484375 3.9921875 C1.97644531 3.00476563 1.98804688 2.01734375 2 1 C1.34 0.67 0.68 0.34 0 0 Z " fill="#F9E2E4" transform="translate(43,28)"/>
<path d="M0 0 C1.98 0 3.96 0 6 0 C6.66 1.32 7.32 2.64 8 4 C8.33 3.67 8.66 3.34 9 3 C11.33944736 3.28730055 13.6739143 3.61936779 16 4 C16 5.98 16 7.96 16 10 C10.58741809 10.8169935 5.46275737 11 0 11 C0 7.37 0 3.74 0 0 Z M3 2 C4 4 4 4 4 4 Z M11 5 C11 6.32 11 7.64 11 9 C11.33 7.68 11.66 6.36 12 5 C11.67 5 11.34 5 11 5 Z M3 6 C4 8 4 8 4 8 Z " fill="#494949" transform="translate(11,75)"/>
<path d="M0 0 C1.98 0 3.96 0 6 0 C6.33 5.94 6.66 11.88 7 18 C9.31 18 11.62 18 14 18 C14.08004482 14.4780279 14.04005702 11.38018531 13 8 C15.5 9.125 15.5 9.125 18 11 C18.51290771 14.07744625 18.62664615 15.9699954 16.98046875 18.67578125 C13.83029465 20.78211068 10.46237967 20.31181905 6.8125 20.1875 C6.06291016 20.17396484 5.31332031 20.16042969 4.54101562 20.14648438 C2.69370233 20.11118539 0.84675934 20.05737917 -1 20 C0.32 19.67 1.64 19.34 3 19 C3 13.06 3 7.12 3 1 C2.01 0.67 1.02 0.34 0 0 Z " fill="#FCF0F1" transform="translate(23,28)"/>
<path d="M0 0 C3.96 0 7.92 0 12 0 C12.04241723 2.33294775 12.04092937 4.66702567 12 7 C11 8 11 8 8.4375 8.0625 C7.633125 8.041875 6.82875 8.02125 6 8 C6 7.01 6 6.02 6 5 C5.67 4.34 5.34 3.68 5 3 C4.34 3 3.68 3 3 3 C3 4.65 3 6.3 3 8 C0.03 8 -2.94 8 -6 8 C-4.68 7.34 -3.36 6.68 -2 6 C-2.99 6 -3.98 6 -5 6 C-5 5.34 -5 4.68 -5 4 C-3.68 4 -2.36 4 -1 4 C-0.67 2.68 -0.34 1.36 0 0 Z " fill="#484848" transform="translate(94,78)"/>
<path d="M0 0 C0.99 0 1.98 0 3 0 C3 0.99 3 1.98 3 3 C6.4342662 3.85856655 8.61682513 3.97591583 12 3 C11.60446947 4.6510403 11.18286103 6.2958515 10.75 7.9375 C10.40195313 9.31228516 10.40195313 9.31228516 10.046875 10.71484375 C9 13 9 13 6.890625 13.81640625 C6.26671875 13.87699219 5.6428125 13.93757813 5 14 C4.67 13.01 4.34 12.02 4 11 C2.68 11 1.36 11 0 11 C-1.125 3.375 -1.125 3.375 0 0 Z M3 5 C3.33 6.98 3.66 8.96 4 11 C4.66 11 5.32 11 6 11 C5.65555119 8.52733235 5.65555119 8.52733235 5 6 C4.34 5.67 3.68 5.34 3 5 Z " fill="#5D5D5D" transform="translate(111,75)"/>
<path d="M0 0 C2.5625 0.1875 2.5625 0.1875 4.5625 2.1875 C4.5625 1.5275 4.5625 0.8675 4.5625 0.1875 C6.22861905 0.144779 7.89632885 0.14686168 9.5625 0.1875 C10.5625 1.1875 10.5625 1.1875 10.625 4.75 C10.604375 5.884375 10.58375 7.01875 10.5625 8.1875 C8.41673363 8.21435938 6.27087355 8.23383088 4.125 8.25 C2.93003906 8.26160156 1.73507813 8.27320312 0.50390625 8.28515625 C-2.4375 8.1875 -2.4375 8.1875 -3.4375 7.1875 C-3.5625 4.1875 -3.5625 4.1875 -3.4375 1.1875 C-2.4375 0.1875 -2.4375 0.1875 0 0 Z " fill="#808080" transform="translate(242.4375,77.8125)"/>
<path d="M0 0 C1.98 0 3.96 0 6 0 C6.33 0.99 6.66 1.98 7 3 C7.66 3 8.32 3 9 3 C9 4.98 9 6.96 9 9 C9.66 8.67 10.32 8.34 11 8 C11.65555119 5.47266765 11.65555119 5.47266765 12 3 C12.66 3 13.32 3 14 3 C14 5.64 14 8.28 14 11 C12.02 11 10.04 11 8 11 C7.34 9.35 6.68 7.7 6 6 C4.68 6.33 3.36 6.66 2 7 C2 8.32 2 9.64 2 11 C1.34 11 0.68 11 0 11 C0 7.37 0 3.74 0 0 Z M2 2 C2.33 2.99 2.66 3.98 3 5 C3.66 4.34 4.32 3.68 5 3 C4.01 2.67 3.02 2.34 2 2 Z " fill="#686868" transform="translate(188,75)"/>
<path d="M0 0 C0.66 0 1.32 0 2 0 C2 1.32 2 2.64 2 4 C3.65 4 5.3 4 7 4 C7 6.64 7 9.28 7 12 C6.34 12 5.68 12 5 12 C5 10.02 5 8.04 5 6 C4.01 6.495 4.01 6.495 3 7 C2.34444881 9.52733235 2.34444881 9.52733235 2 12 C-4.15234375 12.09765625 -4.15234375 12.09765625 -6 12 C-7 11 -7 11 -7.125 8 C-7 5 -7 5 -6 4 C-4.00041636 3.95919217 -1.99954746 3.95745644 0 4 C0 2.68 0 1.36 0 0 Z M-4 6 C-4 7.32 -4 8.64 -4 10 C-2.68 9.67 -1.36 9.34 0 9 C0 8.01 0 7.02 0 6 C-1.32 6 -2.64 6 -4 6 Z " fill="#939393" transform="translate(141,74)"/>
<path d="M0 0 C5.3820598 -0.35880399 5.3820598 -0.35880399 7.9375 1.125 C9.52513015 3.92670027 8.74070176 5.96985644 8 9 C5.6739143 9.38063221 3.33944736 9.71269945 1 10 C0 9 0 9 -0.09765625 6.93359375 C-0.08605469 6.10988281 -0.07445313 5.28617188 -0.0625 4.4375 C-0.05347656 3.61121094 -0.04445313 2.78492188 -0.03515625 1.93359375 C-0.02355469 1.29550781 -0.01195313 0.65742187 0 0 Z " fill="#D5313E" transform="translate(29,37)"/>
<path d="M0 0 C0.66 0 1.32 0 2 0 C2 1.32 2 2.64 2 4 C3.65 4 5.3 4 7 4 C7 6.64 7 9.28 7 12 C6.34 12 5.68 12 5 12 C5 10.02 5 8.04 5 6 C4.01 6.495 4.01 6.495 3 7 C2.34444881 9.52733235 2.34444881 9.52733235 2 12 C0.02 12 -1.96 12 -4 12 C-5.125 4.375 -5.125 4.375 -4 1 C-3.34 1 -2.68 1 -2 1 C-1.67 3.97 -1.34 6.94 -1 10 C-0.67 6.7 -0.34 3.4 0 0 Z " fill="#ACACAC" transform="translate(262,74)"/>
<path d="M0 0 C0.99 0 1.98 0 3 0 C3 2.64 3 5.28 3 8 C3.99 8 4.98 8 6 8 C6 5.36 6 2.72 6 0 C6.99 0 7.98 0 9 0 C9.02688151 1.64574566 9.04634123 3.29161413 9.0625 4.9375 C9.07410156 5.85402344 9.08570312 6.77054687 9.09765625 7.71484375 C9 10 9 10 8 11 C5.0625 11.1875 5.0625 11.1875 2 11 C0 9 0 9 -0.1953125 6.8359375 C-0.17210937 6.02382812 -0.14890625 5.21171875 -0.125 4.375 C-0.10695312 3.55773437 -0.08890625 2.74046875 -0.0703125 1.8984375 C-0.04710937 1.27195312 -0.02390625 0.64546875 0 0 Z " fill="#525252" transform="translate(58,75)"/>
<path d="M0 0 C0.66 0 1.32 0 2 0 C2 1.32 2 2.64 2 4 C3.65 4 5.3 4 7 4 C7 2.68 7 1.36 7 0 C7.66 0 8.32 0 9 0 C9 3.63 9 7.26 9 11 C8.34 11 7.68 11 7 11 C7 9.35 7 7.7 7 6 C5.35 6 3.7 6 2 6 C2 7.65 2 9.3 2 11 C1.34 11 0.68 11 0 11 C0 7.37 0 3.74 0 0 Z " fill="#626262" transform="translate(229,75)"/>
<path d="M0 0 C0.66 0 1.32 0 2 0 C2 1.32 2 2.64 2 4 C3.65 4.33 5.3 4.66 7 5 C7.04254356 6.99954746 7.04080783 9.00041636 7 11 C6.67 11.33 6.34 11.66 6 12 C4.02 12 2.04 12 0 12 C0 8.04 0 4.08 0 0 Z M3 6 C2.67 7.32 2.34 8.64 2 10 C2.99 10 3.98 10 5 10 C5 8.68 5 7.36 5 6 C4.34 6 3.68 6 3 6 Z " fill="#9B9B9B" transform="translate(203,74)"/>
<path d="M0 0 C2.31 0 4.62 0 7 0 C7 2.64 7 5.28 7 8 C4.69 8 2.38 8 0 8 C0 5.36 0 2.72 0 0 Z " fill="#585858" transform="translate(68,78)"/>
<path d="M0 0 C1.98 0 3.96 0 6 0 C5.67 1.98 5.34 3.96 5 6 C4.01 6 3.02 6 2 6 C2 6.99 2 7.98 2 9 C3.32 8.67 4.64 8.34 6 8 C6 8.99 6 9.98 6 11 C4.02 11 2.04 11 0 11 C0 7.37 0 3.74 0 0 Z M3 2 C4 4 4 4 4 4 Z " fill="#232323" transform="translate(11,75)"/>
<path d="M0 0 C2.875 -0.125 2.875 -0.125 6 0 C6.66 0.66 7.32 1.32 8 2 C7.46428571 5.53571429 7.46428571 5.53571429 6 7 C4.00041636 7.04080783 1.99954746 7.04254356 0 7 C0 4.69 0 2.38 0 0 Z " fill="#D32937" transform="translate(29,29)"/>
<path d="M0 0 C1.98 0 3.96 0 6 0 C6 0.66 6 1.32 6 2 C5.01 2.33 4.02 2.66 3 3 C3.99 3.66 4.98 4.32 6 5 C6.25 7.5625 6.25 7.5625 6 10 C5 11 5 11 2.4375 11.0625 C1.633125 11.041875 0.82875 11.02125 0 11 C0.33 10.01 0.66 9.02 1 8 C1.99 8.33 2.98 8.66 4 9 C3.34 8.443125 2.68 7.88625 2 7.3125 C0 5 0 5 -0.25 2.25 C-0.1675 1.5075 -0.085 0.765 0 0 Z " fill="#6B6B6B" transform="translate(127,75)"/>
<path d="M0 0 C2.31 0 4.62 0 7 0 C7 2.64 7 5.28 7 8 C6.01 8 5.02 8 4 8 C3.67 6.35 3.34 4.7 3 3 C2.67 4.65 2.34 6.3 2 8 C1.34 8 0.68 8 0 8 C0 5.36 0 2.72 0 0 Z " fill="#3E3E3E" transform="translate(47,78)"/>
<path d="M0 0 C2.625 -0.1875 2.625 -0.1875 5 0 C6.125 5.75 6.125 5.75 5 8 C3.35 8 1.7 8 0 8 C-1.125 5.6875 -1.125 5.6875 -2 3 C-1.34 2.01 -0.68 1.02 0 0 Z M1 2 C1 3.32 1 4.64 1 6 C1.99 5.67 2.98 5.34 4 5 C3.67 4.01 3.34 3.02 3 2 C2.34 2 1.68 2 1 2 Z " fill="#6E6E6E" transform="translate(173,78)"/>
<path d="M0 0 C2.5 0.125 2.5 0.125 3.5 1.125 C3.625 4.125 3.625 4.125 3.5 7.125 C2.5 8.125 2.5 8.125 0 8.25 C-2.5 8.125 -2.5 8.125 -3.5 7.125 C-3.625 4.125 -3.625 4.125 -3.5 1.125 C-2.5 0.125 -2.5 0.125 0 0 Z M-1.5 2.125 C-1.5 3.445 -1.5 4.765 -1.5 6.125 C-0.51 6.125 0.48 6.125 1.5 6.125 C1.5 4.805 1.5 3.485 1.5 2.125 C0.51 2.125 -0.48 2.125 -1.5 2.125 Z " fill="#666666" transform="translate(160.5,77.875)"/>
<path d="M0 0 C2.5 0.125 2.5 0.125 3.5 1.125 C3.625 4.125 3.625 4.125 3.5 7.125 C2.5 8.125 2.5 8.125 0 8.25 C-2.5 8.125 -2.5 8.125 -3.5 7.125 C-3.625 4.125 -3.625 4.125 -3.5 1.125 C-2.5 0.125 -2.5 0.125 0 0 Z M-1.5 2.125 C-1.5 3.445 -1.5 4.765 -1.5 6.125 C-0.51 6.125 0.48 6.125 1.5 6.125 C1.5 4.805 1.5 3.485 1.5 2.125 C0.51 2.125 -0.48 2.125 -1.5 2.125 Z " fill="#666666" transform="translate(152.5,77.875)"/>
<path d="M0 0 C2.31 0 4.62 0 7 0 C6.01 0.495 6.01 0.495 5 1 C5 5.62 5 10.24 5 15 C4.01 15 3.02 15 2 15 C2.02320313 14.08476563 2.04640625 13.16953125 2.0703125 12.2265625 C2.08835938 11.03804687 2.10640625 9.84953125 2.125 8.625 C2.15980469 6.84996094 2.15980469 6.84996094 2.1953125 5.0390625 C2.32866229 1.88846183 2.32866229 1.88846183 0 0 Z " fill="#FAE8E9" transform="translate(60,28)"/>
<path d="M0 0 C1.2065625 0.0309375 1.2065625 0.0309375 2.4375 0.0625 C2.4375 1.3825 2.4375 2.7025 2.4375 4.0625 C1.1175 4.0625 -0.2025 4.0625 -1.5625 4.0625 C-1.5625 4.7225 -1.5625 5.3825 -1.5625 6.0625 C-0.2425 6.0625 1.0775 6.0625 2.4375 6.0625 C2.4375 6.7225 2.4375 7.3825 2.4375 8.0625 C0.77138095 8.105221 -0.89632885 8.10313832 -2.5625 8.0625 C-3.5625 7.0625 -3.5625 7.0625 -3.6875 4.0625 C-3.52180824 0.08589776 -3.52180824 0.08589776 0 0 Z " fill="#555555" transform="translate(242.5625,77.9375)"/>
<path d="M0 0 C0.66 0.33 1.32 0.66 2 1 C3.23098442 4.9167686 2.83220851 8.02389268 2 12 C1.01 12 0.02 12 -1 12 C-1.02687279 10.18757948 -1.04633715 8.37504767 -1.0625 6.5625 C-1.07410156 5.55316406 -1.08570312 4.54382813 -1.09765625 3.50390625 C-1 1 -1 1 0 0 Z " fill="#666666" transform="translate(77,74)"/>
<path d="M0 0 C0.99 0 1.98 0 3 0 C3 2.97 3 5.94 3 9 C4.32 9.33 5.64 9.66 7 10 C5.00045254 10.04254356 2.99958364 10.04080783 1 10 C0 9 0 9 -0.09765625 6.93359375 C-0.08605469 6.10988281 -0.07445312 5.28617187 -0.0625 4.4375 C-0.05347656 3.61121094 -0.04445312 2.78492187 -0.03515625 1.93359375 C-0.02355469 1.29550781 -0.01195312 0.65742187 0 0 Z " fill="#343434" transform="translate(58,75)"/>
<path d="M0 0 C0.33 0.99 0.66 1.98 1 3 C2.65 3 4.3 3 6 3 C6 5.64 6 8.28 6 11 C5.34 11 4.68 11 4 11 C4 9.02 4 7.04 4 5 C1.5 6 1.5 6 0 10 C0 6.7 0 3.4 0 0 Z " fill="#4E4E4E" transform="translate(142,75)"/>
<path d="M0 0 C0.33 0.99 0.66 1.98 1 3 C2.65 3 4.3 3 6 3 C6 5.64 6 8.28 6 11 C5.34 11 4.68 11 4 11 C4 9.02 4 7.04 4 5 C1.5 6 1.5 6 0 10 C0 6.7 0 3.4 0 0 Z " fill="#505050" transform="translate(263,75)"/>
<path d="M0 0 C0.99 0 1.98 0 3 0 C3 0.66 3 1.32 3 2 C2.34 2 1.68 2 1 2 C1 2.66 1 3.32 1 4 C1.66 4 2.32 4 3 4 C3 4.66 3 5.32 3 6 C2.34 6 1.68 6 1 6 C1 7.98 1 9.96 1 12 C0.34 12 -0.32 12 -1 12 C-2.42857143 3.42857143 -2.42857143 3.42857143 0 0 Z " fill="#797979" transform="translate(181,74)"/>
<path d="M0 0 C0.99 0 1.98 0 3 0 C2.67 2.97 2.34 5.94 2 9 C2.66 9 3.32 9 4 9 C4 9.66 4 10.32 4 11 C2.68 11 1.36 11 0 11 C-1.125 3.375 -1.125 3.375 0 0 Z " fill="#434343" transform="translate(111,75)"/>
<path d="M0 0 C1.2065625 0.0309375 1.2065625 0.0309375 2.4375 0.0625 C2.4375 0.7225 2.4375 1.3825 2.4375 2.0625 C1.1175 2.0625 -0.2025 2.0625 -1.5625 2.0625 C-1.5625 3.3825 -1.5625 4.7025 -1.5625 6.0625 C-0.2425 5.7325 1.0775 5.4025 2.4375 5.0625 C2.4375 6.0525 2.4375 7.0425 2.4375 8.0625 C0.77138095 8.105221 -0.89632885 8.10313832 -2.5625 8.0625 C-3.5625 7.0625 -3.5625 7.0625 -3.6875 4.0625 C-3.52180824 0.08589776 -3.52180824 0.08589776 0 0 Z " fill="#6B6B6B" transform="translate(221.5625,77.9375)"/>
<path d="M0 0 C1.65 0 3.3 0 5 0 C5 1.32 5 2.64 5 4 C3.68 4 2.36 4 1 4 C1 4.66 1 5.32 1 6 C2.32 6.33 3.64 6.66 5 7 C3.02 7 1.04 7 -1 7 C-0.67 4.69 -0.34 2.38 0 0 Z " fill="#212121" transform="translate(88,78)"/>
<path d="M0 0 C0.33 0 0.66 0 1 0 C1 2.31 1 4.62 1 7 C1.66 7.33 2.32 7.66 3 8 C0.03 8 -2.94 8 -6 8 C-4.68 7.34 -3.36 6.68 -2 6 C-2.99 6 -3.98 6 -5 6 C-5 5.34 -5 4.68 -5 4 C-3.68 4 -2.36 4 -1 4 C-0.67 2.68 -0.34 1.36 0 0 Z " fill="#A7A7A7" transform="translate(94,78)"/>
<path d="M0 0 C0.66 0 1.32 0 2 0 C2 0.66 2 1.32 2 2 C2.99 2.33 3.98 2.66 5 3 C5 4.32 5 5.64 5 7 C3.35 7 1.7 7 0 7 C0 4.69 0 2.38 0 0 Z " fill="#3B3B3B" transform="translate(27,79)"/>
<path d="M0 0 C0.99 0.33 1.98 0.66 3 1 C2.67 4.63 2.34 8.26 2 12 C1.34 12 0.68 12 0 12 C0 8.04 0 4.08 0 0 Z " fill="#3E3E3E" transform="translate(107,74)"/>
<path d="M0 0 C0.33 0.99 0.66 1.98 1 3 C2.65 3.33 4.3 3.66 6 4 C5.67 5.32 5.34 6.64 5 8 C4.67 7.34 4.34 6.68 4 6 C3.34 6 2.68 6 2 6 C1.34 7.32 0.68 8.64 0 10 C0 6.7 0 3.4 0 0 Z " fill="#343434" transform="translate(204,75)"/>
<path d="M0 0 C0.66 0 1.32 0 2 0 C2 3.96 2 7.92 2 12 C1.34 12 0.68 12 0 12 C0 8.04 0 4.08 0 0 Z " fill="#6E6E6E" transform="translate(211,74)"/>
<path d="M0 0 C0.66 0 1.32 0 2 0 C2 3.96 2 7.92 2 12 C1.34 12 0.68 12 0 12 C0 8.04 0 4.08 0 0 Z " fill="#6F6F6F" transform="translate(254,74)"/>
<path d="M0 0 C0.66 0 1.32 0 2 0 C2 3.96 2 7.92 2 12 C1.34 12 0.68 12 0 12 C0 8.04 0 4.08 0 0 Z " fill="#6E6E6E" transform="translate(165,74)"/>
<path d="M0 0 C0.33 0 0.66 0 1 0 C1.625 3.375 1.625 3.375 2 7 C1.34 7.66 0.68 8.32 0 9 C-2.125 8.625 -2.125 8.625 -4 8 C-3 5 -3 5 -1 3 C-0.67 2.01 -0.34 1.02 0 0 Z " fill="#707070" transform="translate(17,76)"/>
<path d="M0 0 C0.99 0.33 1.98 0.66 3 1 C0.78631706 3.21368294 -0.93016625 4.86552921 -4.11328125 5.265625 C-6.07746787 5.25166986 -8.0402625 5.13286356 -10 5 C-10 4.67 -10 4.34 -10 4 C-7.69 4 -5.38 4 -3 4 C-3 3.34 -3 2.68 -3 2 C-2.01 1.34 -1.02 0.68 0 0 Z " fill="#F6D4D7" transform="translate(61,44)"/>
<path d="M0 0 C2.31 0 4.62 0 7 0 C6.67 2.31 6.34 4.62 6 7 C4.62437146 5.71034824 3.29233607 4.37310707 2 3 C2 2.34 2 1.68 2 1 C1.34 0.67 0.68 0.34 0 0 Z " fill="#6F6F6F" transform="translate(27,78)"/>
<path d="M0 0 C0.66 0 1.32 0 2 0 C2.33 1.32 2.66 2.64 3 4 C2.34 4 1.68 4 1 4 C1 5.98 1 7.96 1 10 C0.67 10 0.34 10 0 10 C-1.125 3.375 -1.125 3.375 0 0 Z " fill="#474747" transform="translate(258,75)"/>
<path d="M0 0 C0.66 0 1.32 0 2 0 C2 2.64 2 5.28 2 8 C1.34 8 0.68 8 0 8 C0 5.36 0 2.72 0 0 Z " fill="#6E6E6E" transform="translate(215,78)"/>
<path d="M0 0 C0.66 0 1.32 0 2 0 C2 0.66 2 1.32 2 2 C1.34 2 0.68 2 0 2 C0 1.34 0 0.68 0 0 Z " fill="#6F6F6F" transform="translate(215,75)"/>
</svg>
