<?xml version="1.0" standalone="no"?>
<!DOCTYPE svg PUBLIC "-//W3C//DTD SVG 20010904//EN"
 "http://www.w3.org/TR/2001/REC-SVG-20010904/DTD/svg10.dtd">
<svg version="1.0" xmlns="http://www.w3.org/2000/svg"
 width="957.000000pt" height="465.000000pt" viewBox="0 0 957.000000 465.000000"
 preserveAspectRatio="xMidYMid meet">

<g transform="translate(0.000000,465.000000) scale(0.100000,-0.100000)"
fill="#000000" stroke="none">
<path d="M4562 3323 c17 -18 17 -25 -2 -144 -28 -173 -29 -178 -53 -199 -21
-20 -20 -20 86 -20 190 0 267 33 314 137 42 92 21 171 -58 218 -28 17 -56 21
-169 24 -133 3 -135 3 -118 -16z m222 -4 c21 -6 50 -22 64 -36 23 -23 24 -30
20 -96 -6 -87 -38 -161 -81 -188 -38 -23 -147 -35 -176 -20 -27 15 -27 40 -1
207 11 71 20 132 20 137 0 11 110 8 154 -4z"/>
<path d="M5188 3266 c39 -18 43 -55 11 -85 -24 -22 -95 -37 -134 -27 -24 6
-25 8 -11 34 17 33 44 58 76 71 20 8 21 10 6 10 -11 1 -39 -10 -62 -24 -82
-48 -122 -162 -80 -227 21 -32 78 -61 109 -55 22 4 22 4 0 6 -11 0 -33 15 -48
32 -22 27 -25 39 -23 86 l3 54 75 3 c99 4 160 35 160 82 0 27 -20 40 -75 49
l-40 6 33 -15z"/>
<path d="M5543 3265 l48 -16 -7 -37 c-17 -95 -47 -167 -84 -204 -84 -84 -167
-23 -140 105 15 73 43 115 93 137 25 12 34 20 23 20 -37 0 -108 -43 -136 -82
-34 -47 -46 -105 -30 -153 17 -51 53 -75 113 -75 45 0 54 4 88 40 l38 40 3
-38 c3 -32 7 -37 31 -40 26 -3 28 -2 17 18 -13 24 -7 90 16 181 25 101 26 99
-81 114 l-40 5 48 -15z"/>
<path d="M5853 3269 c-18 -5 -47 -25 -66 -44 l-33 -34 4 35 c4 31 2 34 -20 34
-30 0 -41 -9 -28 -25 14 -17 -25 -233 -46 -256 -16 -18 -15 -19 36 -19 42 0
51 3 42 12 -16 16 -15 55 4 141 21 89 70 147 126 147 43 0 75 -22 83 -59 9
-40 -21 -200 -41 -222 -16 -18 -15 -19 36 -19 44 0 51 2 41 14 -10 11 -10 37
0 114 6 55 9 111 5 126 -11 46 -81 73 -143 55z"/>
<path d="M3647 3159 c-76 -20 -142 -40 -145 -44 -4 -4 2 -12 12 -19 37 -22 55
-45 66 -87 10 -36 6 -79 -29 -303 -22 -144 -65 -421 -95 -616 -31 -195 -63
-384 -72 -419 -19 -71 -63 -130 -114 -151 -17 -7 -30 -16 -30 -21 0 -5 96 -9
213 -9 l212 0 -25 20 c-14 11 -28 20 -32 20 -4 0 -14 13 -23 30 -26 50 -18
149 34 416 54 272 73 338 123 422 47 78 160 196 221 231 206 117 438 56 504
-132 23 -65 23 -240 0 -372 -8 -49 -14 -91 -13 -93 2 -1 27 2 56 8 29 5 69 10
90 10 l37 0 18 152 c21 179 16 267 -18 342 -59 129 -208 206 -396 206 -213 -1
-389 -104 -522 -307 -28 -43 -52 -79 -53 -80 -4 -5 3 46 65 437 33 206 58 379
57 385 -2 8 -50 -1 -141 -26z"/>
<path d="M5210 2995 c-19 -14 -46 -26 -60 -26 -22 -2 -23 -2 -3 -6 24 -5 72
17 92 41 18 21 12 20 -29 -9z"/>
<path d="M4916 2526 c7 -19 -46 -317 -61 -342 -12 -19 -11 -20 35 -20 41 0 47
2 40 16 -4 8 -3 52 3 98 l11 82 128 0 c119 0 129 -1 124 -17 -3 -10 -10 -47
-16 -83 -7 -36 -18 -72 -26 -81 -12 -13 -8 -15 36 -15 47 0 49 1 44 23 -8 32
25 291 41 326 13 27 13 27 -23 27 l-37 0 0 -48 c-1 -26 -4 -64 -8 -84 l-8 -38
-124 0 c-125 0 -125 0 -125 24 0 44 20 130 33 138 7 4 -6 8 -30 8 -32 0 -41
-3 -37 -14z"/>
<path d="M5470 2471 c-52 -16 -91 -43 -115 -79 -95 -145 50 -290 213 -211 85
42 127 156 82 227 -34 54 -115 83 -180 63z m94 -11 c14 -5 33 -24 42 -41 34
-66 -5 -202 -66 -234 -34 -18 -93 -20 -122 -4 -31 17 -51 74 -43 128 16 116
102 185 189 151z"/>
<path d="M5875 2465 c-30 -16 -75 -62 -75 -79 0 -5 17 10 38 33 52 58 99 66
142 23 24 -25 30 -39 30 -74 0 -65 -18 -116 -54 -156 -29 -32 -40 -36 -92 -40
-41 -2 -65 1 -79 11 -18 14 -18 19 -7 88 7 41 14 101 17 135 l5 61 -29 -5
c-27 -4 -29 -6 -24 -41 3 -21 -4 -94 -16 -162 -31 -176 -31 -178 -48 -194 -13
-13 -8 -15 39 -14 29 0 47 3 41 6 -14 5 -16 33 -7 79 l5 29 82 0 c96 0 144 19
184 72 37 48 43 134 13 181 -34 55 -107 76 -165 47z"/>
<path d="M6245 2464 c-48 -18 -90 -56 -116 -106 -52 -102 13 -198 133 -198 46
0 118 35 126 60 3 10 -3 8 -19 -6 -76 -68 -169 -57 -200 23 -11 29 -12 84 -1
98 4 6 36 10 72 11 81 1 136 19 156 49 42 64 -49 106 -151 69z m99 -10 c22
-22 20 -41 -8 -69 -25 -25 -99 -42 -135 -30 -26 8 -26 12 -1 53 33 53 112 79
144 46z"/>
<path d="M4507 1996 c-27 -7 -52 -17 -57 -22 -5 -5 -16 -56 -25 -114 -33 -212
-66 -296 -135 -337 -17 -9 -30 -21 -30 -25 0 -4 92 -8 205 -8 127 0 205 4 205
10 0 5 -11 12 -24 16 -30 7 -51 30 -59 63 -3 14 5 113 18 220 14 108 25 199
25 203 0 12 -69 8 -123 -6z"/>
<path d="M5297 1674 c-30 -9 -66 -32 -96 -62 -90 -87 -95 -205 -12 -275 61
-51 181 -61 264 -21 30 14 37 23 37 47 l0 30 -22 -28 c-26 -33 -91 -65 -133
-65 -48 0 -112 35 -130 71 -40 76 2 227 76 276 72 47 200 28 215 -32 8 -31 20
-32 27 -3 7 27 3 34 -33 53 -44 23 -137 27 -193 9z"/>
<path d="M6360 1639 c-6 -11 -26 -29 -43 -39 -29 -18 -30 -20 -9 -20 12 0 22
-3 22 -7 0 -5 -7 -51 -15 -103 -8 -52 -15 -112 -15 -132 0 -37 1 -38 37 -38
34 0 35 1 18 14 -18 13 -18 19 -6 128 7 63 16 120 20 126 3 5 20 12 36 15 l30
4 -33 2 c-32 1 -33 2 -26 36 7 39 0 45 -16 14z"/>
<path d="M5690 1599 c-74 -30 -129 -106 -130 -181 0 -66 78 -130 155 -127 11
0 2 6 -20 13 -55 16 -87 65 -83 126 l3 45 80 6 c44 3 95 13 112 23 54 28 65
74 22 96 -23 13 -106 12 -139 -1z m110 -20 c9 -16 8 -26 -5 -45 -20 -32 -53
-44 -116 -44 -62 0 -64 17 -10 71 32 33 45 39 79 39 32 0 44 -5 52 -21z"/>
<path d="M6034 1591 c-17 -10 -40 -31 -51 -47 l-21 -29 8 43 c8 44 5 47 -37
36 -18 -5 -20 -9 -12 -23 16 -24 -24 -241 -48 -258 -14 -11 -9 -13 35 -13 49
0 51 1 40 19 -16 27 7 153 38 208 42 72 114 94 159 48 29 -28 31 -54 10 -170
-9 -51 -20 -84 -31 -92 -15 -11 -10 -13 35 -13 44 0 51 2 42 14 -8 10 -9 32
-1 82 17 118 13 162 -15 189 -31 32 -105 34 -151 6z"/>
<path d="M6565 1593 c-73 -38 -115 -100 -115 -168 0 -75 45 -119 131 -130 42
-4 42 -4 9 4 -19 5 -47 23 -62 40 -23 26 -28 41 -28 85 l0 53 83 5 c101 5 150
28 155 73 3 19 -2 33 -14 42 -24 18 -122 16 -159 -4z m123 -30 c3 -28 -2 -36
-30 -53 -42 -25 -138 -29 -138 -5 0 24 30 64 59 80 14 8 44 14 66 12 37 -2 40
-4 43 -34z"/>
<path d="M6899 1569 l-42 -42 7 37 c7 36 6 37 -21 34 -25 -3 -28 -7 -25 -34 4
-44 -27 -215 -44 -241 -14 -23 -14 -23 38 -22 29 0 47 3 41 6 -17 6 -16 82 1
156 16 68 50 110 84 104 20 -4 42 16 42 37 0 20 -46 0 -81 -35z"/>
<path d="M5809 1343 c-8 -9 -27 -22 -44 -29 -16 -7 -24 -13 -17 -14 7 0 25 6
41 14 31 16 59 46 43 46 -5 0 -16 -7 -23 -17z"/>
<path d="M6700 1346 c-8 -8 -28 -22 -45 -30 -16 -9 -23 -16 -15 -16 15 0 90
46 90 55 0 10 -16 5 -30 -9z"/>
<path d="M735 496 c-13 -13 -29 -42 -35 -65 -6 -24 -17 -41 -25 -41 -8 0 -15
-4 -15 -10 0 -5 7 -10 15 -10 12 0 15 -18 15 -100 l0 -100 30 0 30 0 0 100 c0
93 1 100 20 100 11 0 20 5 20 10 0 6 -9 10 -20 10 -24 0 -46 40 -36 66 5 13
14 15 41 11 33 -5 35 -4 35 24 0 24 -4 29 -25 29 -14 0 -37 -11 -50 -24z"/>
<path d="M1758 438 c5 -67 4 -71 -14 -63 -49 21 -73 18 -104 -13 -25 -25 -30
-39 -30 -77 0 -65 22 -103 64 -110 34 -7 76 7 76 25 0 6 -9 5 -21 -2 -42 -26
-75 58 -49 127 25 67 74 33 76 -53 2 -93 1 -92 33 -92 l28 0 0 165 0 165 -32
0 -32 0 5 -72z"/>
<path d="M2750 496 c-27 -33 18 -72 48 -42 13 13 14 20 6 34 -15 23 -38 26
-54 8z"/>
<path d="M3600 340 l0 -170 33 0 32 0 0 170 0 170 -32 0 -33 0 0 -170z"/>
<path d="M4478 438 c5 -67 4 -71 -14 -63 -49 21 -73 18 -104 -13 -25 -25 -30
-39 -30 -77 0 -65 22 -103 64 -110 34 -7 76 7 76 25 0 6 -9 5 -21 -2 -42 -26
-75 58 -49 127 25 67 74 33 76 -53 2 -93 1 -92 33 -92 l28 0 0 165 0 165 -32
0 -32 0 5 -72z"/>
<path d="M5610 340 l0 -170 30 0 30 0 0 78 c0 80 9 102 42 102 28 0 40 -36 36
-111 l-3 -69 33 0 32 0 0 80 c0 43 -5 90 -11 104 -15 32 -59 42 -99 23 l-30
-15 0 74 0 74 -30 0 -30 0 0 -170z"/>
<path d="M6120 340 l0 -170 33 0 32 0 0 170 0 170 -32 0 -33 0 0 -170z"/>
<path d="M6740 496 c-27 -33 18 -72 48 -42 13 13 14 20 6 34 -15 23 -38 26
-54 8z"/>
<path d="M7310 340 l0 -170 33 0 32 0 0 170 0 170 -32 0 -33 0 0 -170z"/>
<path d="M8440 496 c-27 -33 18 -72 48 -42 13 13 14 20 6 34 -15 23 -38 26
-54 8z"/>
<path d="M1395 325 l0 -155 88 0 c76 0 87 2 87 18 0 14 -8 17 -55 14 l-55 -4
0 62 0 62 53 -4 c46 -4 53 -2 53 14 0 15 -9 18 -54 18 l-53 0 3 48 3 47 53 -2
c46 -2 52 0 52 17 0 18 -7 20 -87 20 l-88 0 0 -155z"/>
<path d="M4725 326 l0 -156 36 0 36 0 -5 69 -4 68 51 7 c65 9 91 33 91 84 0
60 -25 76 -124 80 l-81 4 0 -156z m123 122 c17 -17 15 -84 -4 -102 -8 -9 -24
-16 -35 -16 -17 0 -19 7 -19 65 0 61 1 65 23 65 13 0 28 -5 35 -12z"/>
<path d="M7610 462 c-66 -32 -66 -107 0 -149 91 -58 105 -77 74 -107 -24 -25
-69 -20 -92 9 l-20 25 -6 -23 c-9 -34 -8 -35 24 -42 71 -16 143 17 156 72 11
44 -7 75 -65 108 -64 36 -81 57 -65 83 15 23 67 28 84 8 17 -21 30 -20 30 3 0
33 -65 41 -120 13z"/>
<path d="M2623 454 c-25 -10 -33 -20 -33 -39 0 -16 -6 -25 -15 -25 -8 0 -15
-4 -15 -10 0 -5 7 -10 15 -10 12 0 15 -16 15 -80 0 -67 3 -83 20 -100 22 -22
31 -23 70 -13 l25 7 -25 6 c-24 6 -25 9 -28 93 -3 82 -2 87 18 87 11 0 20 5
20 10 0 6 -10 10 -21 10 -19 0 -21 4 -16 40 3 22 4 40 4 39 -1 0 -17 -7 -34
-15z"/>
<path d="M884 381 c-64 -27 -87 -129 -40 -176 28 -28 84 -41 123 -28 15 5 39
25 51 44 47 68 7 156 -74 165 -21 2 -49 0 -60 -5z m74 -23 c15 -15 16 -122 2
-149 -15 -27 -46 -24 -66 6 -19 29 -15 114 6 140 15 18 41 20 58 3z"/>
<path d="M1165 365 c-23 -22 -25 -23 -25 -5 0 16 -7 20 -30 20 l-30 0 0 -105
0 -105 30 0 30 0 0 68 c0 73 10 92 47 92 19 0 23 5 23 30 0 36 -13 38 -45 5z"/>
<path d="M1870 296 c0 -87 2 -96 22 -110 29 -21 58 -20 88 1 17 12 25 13 28 5
2 -7 17 -12 33 -12 l29 0 0 105 0 105 -33 0 -33 0 4 -62 c5 -84 -9 -120 -46
-116 -27 3 -27 3 -30 91 l-3 87 -29 0 -30 0 0 -94z"/>
<path d="M2183 376 c-89 -40 -75 -181 19 -201 42 -10 95 2 103 23 5 14 4 15
-6 5 -19 -19 -67 -15 -89 7 -25 25 -27 105 -4 138 19 28 58 28 78 1 l14 -21
11 20 c13 25 6 31 -51 37 -26 3 -55 0 -75 -9z"/>
<path d="M2388 379 c-16 -6 -28 -17 -28 -25 0 -11 4 -12 19 -4 30 16 69 12 80
-8 14 -25 2 -38 -48 -53 -54 -16 -79 -49 -63 -84 15 -32 58 -43 93 -23 24 14
28 14 42 1 10 -10 24 -13 42 -9 23 6 24 8 10 22 -11 11 -15 36 -15 88 0 52 -4
77 -15 86 -20 17 -84 22 -117 9z m82 -125 c0 -56 -38 -84 -60 -43 -9 16 -8 26
5 45 21 33 55 32 55 -2z"/>
<path d="M2740 280 l0 -110 33 0 32 0 0 110 0 110 -32 0 -33 0 0 -110z"/>
<path d="M2914 381 c-64 -27 -87 -129 -40 -176 28 -28 84 -41 123 -28 15 5 39
25 51 44 47 68 7 156 -74 165 -21 2 -49 0 -60 -5z m74 -23 c15 -15 16 -122 2
-149 -15 -27 -46 -24 -66 6 -19 29 -15 114 6 140 15 18 41 20 58 3z"/>
<path d="M3208 376 c-16 -8 -28 -11 -28 -5 0 5 -13 9 -30 9 l-30 0 0 -105 0
-105 30 0 30 0 0 78 c0 80 9 102 42 102 28 0 40 -36 36 -111 l-3 -69 33 0 32
0 0 80 c0 88 -12 126 -44 134 -31 8 -38 7 -68 -8z"/>
<path d="M3398 379 c-16 -6 -28 -17 -28 -25 0 -11 4 -12 19 -4 30 16 69 12 80
-8 14 -25 2 -38 -48 -53 -54 -16 -79 -49 -63 -84 15 -32 58 -43 93 -23 24 14
28 14 42 1 10 -10 24 -13 42 -9 23 6 24 8 10 22 -11 11 -15 36 -15 88 0 52 -4
77 -15 86 -20 17 -84 22 -117 9z m82 -125 c0 -56 -38 -84 -60 -43 -9 16 -8 26
5 45 21 33 55 32 55 -2z"/>
<path d="M3888 379 c-16 -6 -28 -17 -28 -25 0 -11 4 -12 19 -4 30 16 69 12 80
-8 14 -25 2 -38 -48 -53 -54 -16 -79 -49 -63 -84 15 -32 58 -43 93 -23 24 14
28 14 42 1 10 -10 24 -13 42 -9 23 6 24 8 10 22 -11 11 -15 36 -15 88 0 52 -4
77 -15 86 -20 17 -84 22 -117 9z m82 -125 c0 -56 -38 -84 -60 -43 -9 16 -8 26
5 45 21 33 55 32 55 -2z"/>
<path d="M4178 376 c-16 -8 -28 -11 -28 -5 0 5 -13 9 -30 9 l-30 0 0 -105 0
-105 30 0 30 0 0 78 c0 80 9 102 42 102 28 0 40 -36 36 -111 l-3 -69 33 0 32
0 0 80 c0 88 -12 126 -44 134 -31 8 -38 7 -68 -8z"/>
<path d="M5000 377 c-20 -10 -26 -21 -28 -54 -3 -41 -2 -42 48 -68 36 -18 50
-31 48 -43 -5 -27 -53 -27 -77 -1 l-21 23 0 -27 c0 -22 6 -27 33 -32 34 -7 86
8 99 28 4 7 8 27 8 45 0 29 -5 35 -47 55 -34 15 -48 28 -48 42 0 28 40 32 57
6 16 -26 24 -26 31 0 9 34 -55 50 -103 26z"/>
<path d="M5149 368 c5 -13 25 -63 46 -112 l37 -89 -30 -58 c-25 -51 -26 -59
-11 -59 12 0 27 25 52 87 19 49 51 125 71 171 30 71 33 82 18 82 -13 0 -24
-19 -41 -70 -13 -38 -27 -67 -31 -65 -4 3 -18 34 -31 70 -22 62 -24 65 -56 65
-30 0 -32 -2 -24 -22z"/>
<path d="M5443 376 c-89 -40 -75 -181 19 -201 42 -10 95 2 103 23 5 14 4 15
-6 5 -19 -19 -67 -15 -89 7 -25 25 -27 105 -4 138 19 28 58 28 78 1 l14 -21
11 20 c13 25 6 31 -51 37 -26 3 -55 0 -75 -9z"/>
<path d="M5914 381 c-64 -27 -87 -129 -40 -176 28 -28 84 -41 123 -28 15 5 39
25 51 44 47 68 7 156 -74 165 -21 2 -49 0 -60 -5z m74 -23 c15 -15 16 -122 2
-149 -15 -27 -46 -24 -66 6 -19 29 -15 114 6 140 15 18 41 20 58 3z"/>
<path d="M6294 381 c-64 -27 -87 -129 -40 -176 28 -28 84 -41 123 -28 15 5 39
25 51 44 47 68 7 156 -74 165 -21 2 -49 0 -60 -5z m74 -23 c15 -15 16 -122 2
-149 -15 -27 -46 -24 -66 6 -19 29 -15 114 6 140 15 18 41 20 58 3z"/>
<path d="M6540 383 c-55 -20 -68 -87 -24 -122 21 -17 23 -22 11 -27 -22 -8
-29 -34 -15 -51 10 -12 9 -17 -5 -24 -21 -12 -23 -72 -3 -88 39 -33 142 -20
171 22 18 25 20 93 4 103 -7 4 -37 10 -67 13 -67 7 -79 26 -22 34 23 3 50 13
61 23 21 19 26 73 7 92 -9 9 -7 12 10 12 12 0 22 5 22 10 0 10 -123 13 -150 3z
m68 -66 c3 -51 -14 -71 -43 -47 -18 15 -20 71 -3 88 25 25 43 9 46 -41z m16
-153 c24 -9 21 -71 -3 -84 -56 -29 -116 14 -93 65 9 20 19 25 46 25 19 0 41
-3 50 -6z"/>
<path d="M6730 280 l0 -110 33 0 32 0 0 110 0 110 -32 0 -33 0 0 -110z"/>
<path d="M6913 376 c-89 -40 -75 -181 19 -201 42 -10 95 2 103 23 5 14 4 15
-6 5 -19 -19 -67 -15 -89 7 -25 25 -27 105 -4 138 19 28 58 28 78 1 l14 -21
11 20 c13 25 6 31 -51 37 -26 3 -55 0 -75 -9z"/>
<path d="M7118 379 c-16 -6 -28 -17 -28 -25 0 -11 4 -12 19 -4 30 16 69 12 80
-8 14 -25 2 -38 -48 -53 -54 -16 -79 -49 -63 -84 15 -32 58 -43 93 -23 24 14
28 14 42 1 10 -10 24 -13 42 -9 23 6 24 8 10 22 -11 11 -15 36 -15 88 0 52 -4
77 -15 86 -20 17 -84 22 -117 9z m82 -125 c0 -56 -38 -84 -60 -43 -9 16 -8 26
5 45 21 33 55 32 55 -2z"/>
<path d="M7844 381 c-57 -25 -75 -131 -30 -176 41 -41 142 -44 154 -4 4 11 2
12 -9 2 -14 -14 -57 -17 -76 -5 -12 7 -33 54 -33 73 0 5 29 9 65 9 l65 0 0 29
c0 43 -28 72 -75 77 -22 2 -50 0 -61 -5z m66 -14 c0 -1 4 -17 9 -35 l10 -32
-40 0 c-42 0 -44 4 -29 44 6 16 17 26 30 26 11 0 20 -1 20 -3z"/>
<path d="M8115 365 c-23 -22 -25 -23 -25 -5 0 16 -7 20 -30 20 l-30 0 0 -105
0 -105 30 0 30 0 0 68 c0 73 10 92 47 92 19 0 23 5 23 30 0 36 -13 38 -45 5z"/>
<path d="M8194 373 c3 -10 21 -58 39 -108 29 -76 37 -90 58 -93 22 -2 27 5 52
75 16 43 35 93 43 111 13 30 13 32 -4 32 -14 0 -24 -18 -42 -75 -13 -41 -26
-75 -30 -75 -4 0 -17 34 -30 75 -23 74 -24 75 -57 75 -28 0 -33 -3 -29 -17z"/>
<path d="M8430 280 l0 -110 33 0 32 0 0 110 0 110 -32 0 -33 0 0 -110z"/>
<path d="M8613 376 c-89 -40 -75 -181 19 -201 42 -10 95 2 103 23 5 14 4 15
-6 5 -19 -19 -67 -15 -89 7 -25 25 -27 105 -4 138 19 28 58 28 78 1 l14 -21
11 20 c13 25 6 31 -51 37 -26 3 -55 0 -75 -9z"/>
<path d="M8834 381 c-57 -25 -75 -131 -30 -176 41 -41 142 -44 154 -4 4 11 2
12 -9 2 -14 -14 -57 -17 -76 -5 -12 7 -33 54 -33 73 0 5 29 9 65 9 l65 0 0 29
c0 43 -28 72 -75 77 -22 2 -50 0 -61 -5z m66 -14 c0 -1 4 -17 9 -35 l10 -32
-40 0 c-42 0 -44 4 -29 44 6 16 17 26 30 26 11 0 20 -1 20 -3z"/>
<path d="M9040 377 c-20 -10 -26 -21 -28 -54 -3 -41 -2 -42 48 -68 36 -18 50
-31 48 -43 -5 -27 -53 -27 -77 -1 l-21 23 0 -27 c0 -22 6 -27 33 -32 34 -7 86
8 99 28 4 7 8 27 8 45 0 29 -5 35 -47 55 -34 15 -48 28 -48 42 0 28 40 32 57
6 16 -26 24 -26 31 0 9 34 -55 50 -103 26z"/>
</g>
</svg>
