<?xml version="1.0" standalone="no"?>
<!DOCTYPE svg PUBLIC "-//W3C//DTD SVG 20010904//EN"
 "http://www.w3.org/TR/2001/REC-SVG-20010904/DTD/svg10.dtd">
<svg version="1.0" xmlns="http://www.w3.org/2000/svg"
 width="300.000000pt" height="457.000000pt" viewBox="0 0 300.000000 457.000000"
 preserveAspectRatio="xMidYMid meet">

<g transform="translate(0.000000,457.000000) scale(0.100000,-0.100000)"
fill="#000000" stroke="none">
<path d="M0 2285 l0 -2285 1500 0 1500 0 0 2285 0 2285 -1500 0 -1500 0 0
-2285z m790 2207 c-75 -58 -111 -112 -75 -112 8 0 30 -14 47 -31 32 -30 32
-31 13 -45 -11 -9 -32 -18 -47 -21 -33 -6 -34 -10 -11 -35 24 -27 2 -49 -25
-25 -10 9 -32 18 -48 20 -62 7 -92 39 -32 35 26 -2 34 1 36 17 2 17 -4 20 -38
22 -37 2 -45 -2 -88 -46 -26 -27 -66 -58 -88 -69 -39 -20 -94 -73 -94 -92 0
-5 -3 -15 -6 -24 -9 -25 13 -19 54 13 39 31 105 50 116 33 9 -15 -68 -67 -128
-86 -50 -16 -56 -21 -83 -74 -15 -31 -31 -58 -35 -60 -5 -2 -8 -9 -8 -15 0 -7
-7 -25 -16 -42 -30 -55 -48 -150 -58 -307 -4 -49 -2 -58 12 -58 15 -1 15 -2
-1 -14 -23 -17 -24 -157 -2 -200 8 -15 15 -36 15 -45 0 -9 7 -27 16 -39 8 -12
10 -22 5 -22 -24 0 -7 -36 80 -177 51 -81 93 -158 94 -173 1 -14 12 -45 24
-69 18 -35 51 -136 51 -156 0 -3 -7 -5 -16 -5 -14 0 -15 -7 -10 -37 4 -21 8
-45 8 -53 0 -8 4 -20 9 -25 4 -6 4 -16 0 -23 -13 -22 -55 21 -75 77 -10 29
-29 59 -42 68 -13 8 -24 24 -24 34 0 11 -4 19 -9 19 -15 0 -24 -102 -12 -131
5 -15 8 -29 5 -32 -12 -11 48 -275 73 -324 14 -29 24 -54 22 -56 -2 -1 -13 -8
-24 -15 -11 -6 -29 -16 -40 -21 -11 -5 -36 -23 -54 -40 -18 -17 -36 -31 -40
-31 -8 0 -144 -55 -170 -70 l-21 -11 0 1301 0 1300 388 0 387 -1 -35 -27z
m400 10 c0 -23 -10 -33 -24 -25 -6 4 -38 8 -71 10 -137 5 -136 33 1 33 84 0
94 -2 94 -18z m872 8 c-12 -5 -28 -7 -35 -4 -8 3 -20 -2 -27 -11 -10 -12 -10
-15 4 -15 9 0 16 -5 16 -11 0 -6 -6 -9 -13 -6 -18 7 -47 -12 -29 -20 19 -7 14
-19 -13 -31 -36 -17 -80 -15 -95 3 -7 9 -11 17 -9 19 15 13 71 36 78 31 5 -2
12 2 15 11 10 25 7 32 -11 37 -10 3 18 5 62 5 57 1 74 -2 57 -8z m878 -1410
l0 -1421 -47 27 c-27 15 -64 36 -83 46 -19 10 -51 28 -70 40 -19 11 -55 32
-80 46 -25 14 -57 33 -72 43 -14 11 -30 19 -36 19 -5 0 -20 9 -34 19 -24 19
-24 22 -16 93 4 40 13 83 19 95 6 11 9 25 6 30 -3 5 -1 29 5 54 5 24 11 53 12
64 7 48 19 91 29 97 15 9 36 85 30 108 -3 11 2 38 11 60 10 24 18 88 22 167 6
102 11 133 25 152 27 34 23 63 -11 96 -34 33 -37 49 -14 94 16 33 54 56 65 40
3 -5 21 -3 41 5 32 14 36 19 41 68 4 28 3 55 -2 58 -5 3 -6 19 -4 37 4 27 11
34 47 45 33 11 41 17 39 36 -3 26 4 28 29 5 10 -9 21 -14 24 -11 10 10 -60 69
-89 75 -18 4 -32 15 -38 31 -5 13 -21 33 -34 44 -27 21 -34 58 -10 58 8 0 15
4 15 8 0 5 10 14 23 21 22 12 52 69 42 80 -7 6 -63 -25 -93 -53 -18 -16 -25
-18 -31 -7 -12 19 -1 94 15 104 16 9 19 37 4 37 -5 0 -10 -4 -10 -10 0 -19
-39 -10 -51 12 -10 19 -7 25 27 55 30 28 35 36 23 44 -8 5 -20 9 -26 9 -7 0
-13 5 -13 10 0 6 7 10 15 10 8 0 15 4 15 9 0 21 35 21 63 0 34 -25 53 -14 43
24 -10 40 -41 71 -71 72 -20 0 -29 6 -31 19 -1 10 -12 24 -23 32 -25 18 -99
137 -142 229 -18 39 -42 78 -54 88 -11 9 -31 27 -45 40 -15 14 -59 32 -113 45
-48 13 -99 27 -112 32 -27 10 -34 40 -10 40 8 0 15 5 15 10 0 14 -46 31 -64
24 -8 -3 -17 -1 -21 5 -4 8 114 11 399 11 l406 0 0 -1420z m-1933 1344 c-3 -3
-12 -4 -19 -1 -8 3 -5 6 6 6 11 1 17 -2 13 -5z m1153 -9 c6 -8 8 -20 4 -27 -4
-7 -9 -27 -11 -45 -3 -24 0 -33 11 -33 10 0 13 -6 10 -15 -5 -13 -10 -12 -31
5 -14 11 -30 20 -35 20 -5 0 -16 7 -24 15 -9 8 -24 15 -35 15 -24 0 -24 18 0
46 27 34 90 44 111 19z m151 -91 c30 -15 30 -16 13 -35 -9 -10 -28 -19 -41
-19 -22 0 -24 -3 -18 -31 6 -24 4 -30 -6 -27 -8 3 -15 10 -15 16 -1 7 -2 16
-3 21 0 5 -10 7 -21 4 -14 -4 -20 0 -20 11 0 9 7 16 16 16 9 0 14 7 12 18 -2
9 5 22 17 29 28 15 32 15 66 -3z m34 -100 c21 -8 44 -13 52 -10 8 3 11 2 8 -4
-3 -5 14 -18 39 -28 46 -21 106 -69 106 -85 0 -6 -8 -3 -18 6 -22 20 -32 21
-32 4 0 -9 -10 -12 -30 -9 -35 5 -36 9 -14 33 16 17 15 19 -7 27 -20 8 -94 30
-158 48 -11 3 -11 7 -1 19 15 18 10 18 55 -1z m110 -154 c18 -7 33 -7 45 0 16
8 18 7 14 -4 -4 -9 5 -20 24 -30 35 -18 48 -45 30 -62 -13 -13 -67 0 -193 47
-43 16 -47 19 -27 25 12 3 22 13 22 20 0 17 46 19 85 4z m239 -165 c-4 -8 -11
-15 -16 -15 -6 0 -5 6 2 15 7 8 14 15 16 15 2 0 1 -7 -2 -15z m-1586 -191 c51
-28 83 -54 65 -54 -5 0 -22 9 -36 20 -14 11 -30 20 -36 20 -19 0 -12 -16 12
-29 50 -27 67 -39 93 -64 15 -15 24 -30 20 -34 -3 -4 -23 10 -44 30 -21 20
-43 37 -50 37 -21 0 -13 -16 13 -28 14 -6 25 -16 25 -22 0 -12 -55 -2 -94 18
l-29 14 24 19 24 19 -30 25 c-16 14 -33 25 -37 25 -5 0 -8 7 -8 15 0 23 35 18
88 -11z m990 -94 c32 -30 180 -327 196 -394 4 -17 15 -46 24 -65 8 -20 16 -40
17 -46 4 -32 18 -90 25 -104 5 -9 14 -92 20 -186 7 -93 21 -208 31 -255 11
-47 21 -94 23 -105 12 -62 41 -161 48 -165 4 -3 9 -15 11 -25 2 -11 8 -30 15
-42 7 -13 10 -38 6 -60 -3 -21 -10 -65 -14 -98 -5 -33 -15 -85 -24 -115 -70
-264 -85 -313 -99 -326 -4 -4 -7 3 -7 15 0 13 -5 21 -11 19 -15 -5 -59 -134
-59 -174 0 -31 5 -47 36 -121 8 -17 14 -36 14 -42 0 -6 5 -11 10 -11 14 0 12
55 -5 125 -14 61 -10 135 7 135 6 0 7 -16 3 -40 -4 -26 -3 -40 4 -40 6 0 11
14 11 31 0 28 36 153 77 267 28 76 38 46 37 -114 0 -82 -3 -170 -7 -196 -7
-48 6 -67 18 -28 9 28 25 25 25 -4 0 -17 -7 -27 -22 -32 -13 -4 -26 -12 -30
-18 -11 -16 -10 -64 2 -71 14 -8 13 -65 -1 -65 -6 0 -8 -7 -5 -17 6 -15 -8
-32 -27 -33 -4 0 -5 17 -2 38 l6 37 -25 -50 c-14 -27 -25 -58 -26 -67 0 -40
-20 -24 -26 22 -8 58 -19 55 -50 -10 -10 -22 -23 -40 -28 -40 -12 0 3 -83 17
-92 9 -5 8 -15 -5 -40 -46 -89 -117 -240 -127 -271 -11 -33 -67 -87 -90 -87
-6 0 -11 -4 -11 -10 0 -5 -4 -10 -10 -10 -5 0 -10 11 -10 25 0 14 -4 25 -10
25 -5 0 -10 -8 -10 -18 0 -11 -14 -25 -35 -35 -19 -9 -35 -22 -35 -28 0 -7 -9
-9 -21 -6 -12 3 -29 2 -38 -3 -9 -5 -54 -20 -101 -34 -106 -32 -231 -35 -223
-6 3 10 0 21 -6 24 -6 4 -11 2 -11 -4 0 -8 -10 -10 -27 -6 -16 3 -22 3 -15 0
15 -7 16 -44 1 -44 -16 0 -49 19 -106 63 -51 38 -53 41 -53 87 0 59 -2 61
-155 190 -66 55 -139 126 -162 158 -40 54 -57 90 -31 64 20 -20 28 -14 28 23
0 25 -4 35 -15 35 -9 0 -20 12 -25 26 -13 34 -13 34 9 34 10 0 24 7 31 15 15
18 145 21 155 4 4 -5 -4 -20 -18 -33 -14 -13 -30 -40 -36 -61 -9 -34 -7 -41
16 -71 14 -19 29 -34 34 -34 5 0 9 -6 9 -13 0 -8 9 -22 20 -32 11 -10 20 -24
20 -32 0 -9 15 -2 43 20 55 45 98 51 159 23 44 -20 46 -22 27 -34 -17 -11 -25
-11 -44 2 -30 20 -35 20 -35 1 0 -9 23 -25 54 -39 30 -13 72 -36 93 -50 20
-14 46 -26 57 -26 15 0 16 -3 7 -14 -14 -17 -59 -27 -67 -15 -7 11 -25 11 -43
0 -18 -11 -7 -61 14 -61 7 0 20 -9 28 -20 15 -22 69 -28 132 -17 55 11 140 9
168 -2 27 -11 32 -8 84 39 56 51 67 57 78 40 3 -6 18 -4 38 5 18 7 40 16 50
19 25 8 21 43 -8 62 -21 14 -23 18 -12 37 7 12 18 27 25 35 15 17 15 29 0 38
-6 4 -22 -6 -37 -24 -30 -36 -124 -102 -145 -102 -8 0 -18 -4 -21 -10 -10 -15
-195 -13 -195 3 1 24 36 55 105 92 39 21 81 45 95 55 14 9 35 20 46 24 12 4
29 15 39 26 9 10 23 16 30 14 7 -3 22 6 33 21 15 19 33 27 70 32 60 7 70 -4
42 -49 -22 -37 -27 -72 -7 -65 6 2 11 12 9 21 -4 24 29 76 49 76 9 0 28 -9 41
-20 30 -23 43 -16 23 14 -9 12 -15 43 -15 75 0 100 -14 124 -109 195 -47 36
-99 83 -116 105 -80 110 -83 112 -146 110 -53 -2 -59 -5 -68 -29 -14 -43 2
-57 34 -31 51 40 87 25 126 -51 36 -72 103 -146 166 -187 53 -34 83 -65 83
-86 0 -9 -52 6 -90 27 -32 17 -60 23 -60 14 0 -2 -3 -11 -6 -20 -4 -10 -1 -16
9 -16 28 0 29 -20 4 -43 -14 -12 -92 -57 -175 -100 -144 -74 -174 -81 -158
-40 4 8 1 22 -5 30 -20 24 -1 26 36 4 34 -20 55 -21 55 -1 0 4 15 31 33 59 39
59 62 123 54 146 -11 28 -41 1 -67 -60 -18 -44 -28 -56 -44 -54 -12 1 -23 0
-26 -1 -3 -1 -30 -4 -60 -6 -68 -5 -100 9 -171 76 -29 27 -56 50 -59 50 -3 1
-19 13 -37 28 -25 22 -34 39 -41 82 -5 30 -10 60 -12 65 -6 25 2 35 30 35 39
0 39 18 0 31 -25 9 -30 16 -30 45 0 19 -4 34 -10 34 -5 0 -10 7 -10 16 0 8 -4
12 -10 9 -5 -3 -10 -15 -10 -26 0 -10 -4 -19 -9 -19 -5 0 -11 -33 -13 -72 -2
-52 -11 -89 -30 -128 -41 -85 -54 -96 -131 -107 l-69 -10 -59 48 c-87 69 -85
66 -179 261 -32 67 -62 112 -109 160 -55 58 -63 71 -59 98 5 34 -10 52 -56 67
-44 14 -48 45 -18 166 22 91 29 107 54 121 l28 17 -6 -31 c-5 -23 -3 -30 10
-30 10 0 16 9 17 23 1 12 2 39 3 60 3 37 2 38 -28 35 -27 -3 -31 0 -38 32 -4
19 -7 53 -7 75 2 74 -1 93 -14 107 -52 56 -62 124 -61 393 l0 160 72 210 c40
116 72 217 72 225 0 8 8 25 18 37 14 18 20 20 34 10 24 -18 26 -54 4 -70 -30
-22 -35 -157 -6 -157 6 0 10 13 10 29 0 25 24 85 40 101 3 3 18 22 33 42 26
36 98 78 131 78 24 0 30 20 10 35 -25 17 -12 30 15 15 12 -6 21 -19 21 -30 0
-10 5 -22 11 -25 6 -4 14 -17 19 -29 8 -20 9 -19 9 6 1 37 16 43 30 12 14 -31
14 -61 1 -69 -19 -12 1 -25 36 -25 41 0 87 -27 80 -47 -3 -8 1 -16 9 -19 8 -4
15 -13 15 -21 0 -12 -7 -14 -28 -8 l-27 7 20 -24 c32 -35 54 -93 48 -119 -6
-21 -5 -22 10 -11 27 22 30 50 11 103 -21 58 -12 75 35 64 35 -8 40 -21 11
-30 -21 -7 -27 -39 -10 -50 6 -3 10 0 10 8 0 8 9 22 20 32 27 24 25 44 -4 55
-22 8 -53 47 -44 54 2 2 18 6 36 9 29 6 34 4 43 -20 5 -15 8 -32 5 -40 -7 -18
25 -17 50 2 10 8 26 15 35 15 19 0 61 -44 83 -88 16 -31 16 -36 -4 -101 -23
-78 -24 -85 -10 -76 6 4 10 -5 10 -19 0 -14 5 -26 10 -26 6 0 10 7 10 15 0 8
5 15 10 15 6 0 10 9 10 20 0 23 34 28 47 8 12 -19 46 -36 86 -43 29 -6 37 -3
46 14 7 12 17 21 24 21 7 0 22 6 33 14 18 14 18 15 -8 25 -16 6 -28 17 -28 26
0 9 -17 19 -45 26 -43 11 -55 22 -37 33 5 3 7 20 5 38 -4 30 -3 31 10 16 8
-10 24 -18 36 -18 20 0 21 -4 15 -35 -5 -28 -3 -35 10 -35 9 0 19 8 22 18 3 9
10 27 16 38 7 15 6 39 -2 78 -6 32 -9 60 -6 63 10 11 18 -4 24 -49 l5 -43 13
30 c7 17 10 48 7 70 -5 36 0 47 41 101 39 52 63 71 92 72 8 1 44 44 44 54 0
15 26 8 48 -12z m-348 -181 c0 -5 8 -9 18 -9 14 0 15 -2 2 -10 -13 -8 -12 -11
4 -23 19 -14 19 -15 -2 -21 -27 -9 -28 -23 -2 -31 30 -10 26 -45 -5 -45 -16 0
-25 6 -25 16 0 9 -8 28 -19 42 -25 37 -18 102 10 95 10 -3 19 -9 19 -14z
m-140 -220 c0 -6 -4 -7 -10 -4 -5 3 -10 11 -10 16 0 6 5 7 10 4 6 -3 10 -11
10 -16z m50 -41 c0 -5 6 -8 13 -8 7 0 18 -9 25 -21 10 -15 20 -19 38 -15 29 8
32 -4 5 -21 -26 -17 -61 1 -92 47 -33 48 -34 54 -10 38 12 -7 21 -16 21 -20z
m-1142 -719 c34 -54 62 -169 62 -254 0 -48 -3 -85 -7 -83 -5 3 -23 11 -41 19
-32 13 -33 16 -28 51 3 20 15 56 25 81 21 49 18 86 -13 142 -9 17 -16 34 -16
39 0 5 -8 15 -17 22 -17 12 -16 13 2 8 12 -3 26 -14 33 -25z m-97 -289 c18 0
67 -52 74 -77 3 -15 0 -34 -9 -48 -8 -12 -12 -32 -9 -44 5 -20 10 -22 59 -15
l53 6 -3 -61 c-3 -73 -20 -98 -43 -63 -9 12 -21 22 -27 22 -13 0 -38 26 -69
70 -19 28 -22 72 -6 102 16 29 3 85 -21 91 -13 3 -20 13 -19 29 1 17 3 18 6 6
2 -10 9 -18 14 -18z m167 -364 c18 -9 32 -24 32 -34 0 -10 25 -90 55 -179 51
-150 69 -220 43 -165 -6 12 -15 22 -20 22 -10 0 -2 -31 18 -72 18 -34 15 -41
-15 -44 -13 -2 -28 -7 -33 -12 -10 -10 14 -62 42 -87 11 -10 20 -24 20 -30 0
-8 10 -10 25 -7 28 5 31 12 13 30 -7 7 -9 12 -4 12 19 0 71 -66 146 -185 45
-71 96 -145 113 -162 53 -57 14 -36 -58 31 -72 65 -127 96 -107 59 6 -10 31
-34 56 -53 57 -44 65 -61 26 -53 -30 6 -89 -12 -102 -31 -4 -6 -8 -21 -8 -33
0 -13 -6 -23 -14 -23 -20 0 -166 75 -198 102 -25 22 -84 142 -131 268 -20 56
-46 248 -47 351 0 75 27 236 48 279 28 58 33 62 51 46 9 -7 31 -21 49 -30z
m2000 24 c7 0 17 -12 22 -26 28 -72 229 -314 262 -314 4 0 8 -4 8 -10 0 -5 6
-10 14 -10 18 0 41 -28 31 -38 -4 -4 -10 -1 -12 6 -3 6 -13 12 -24 12 -18 0
-19 -8 -19 -111 0 -95 -2 -110 -15 -105 -9 3 -15 0 -15 -10 0 -8 -11 -19 -24
-24 -13 -5 -33 -28 -45 -54 l-22 -45 20 -40 c12 -23 21 -60 21 -85 0 -38 -4
-48 -29 -65 -32 -23 -56 -27 -66 -11 -6 10 -45 14 -45 5 0 -3 -7 -49 -15 -103
-20 -134 -45 -250 -95 -437 -10 -38 -31 -127 -46 -197 -28 -127 -28 -128 -56
-128 -33 0 -36 16 -12 81 8 24 28 100 45 168 16 68 32 128 36 135 24 37 42
119 43 189 0 44 5 86 12 97 10 15 10 25 2 38 -20 31 -39 20 -44 -28 -4 -35
-10 -47 -29 -57 -31 -15 -42 -8 -37 20 3 12 12 74 21 137 20 139 34 190 53
190 7 0 25 9 39 20 14 11 32 20 40 20 29 0 41 62 44 230 l4 165 -23 0 c-19 0
-28 10 -43 50 -25 64 -69 253 -69 298 0 40 8 50 35 43 11 -3 26 -6 33 -6z
m232 -175 c0 -11 11 -15 39 -15 25 0 41 -5 45 -15 3 -8 12 -15 21 -15 11 0 15
-12 15 -50 0 -27 -2 -50 -4 -50 -14 0 -147 140 -142 149 10 16 26 14 26 -4z
m-2090 -79 c0 -7 10 -20 23 -29 12 -8 46 -61 76 -118 30 -57 64 -120 75 -139
12 -19 27 -46 34 -60 7 -14 21 -38 32 -55 43 -67 43 -65 15 -65 -17 0 -24 5
-23 18 4 49 -3 59 -67 96 -59 35 -66 43 -85 95 -21 56 -63 151 -80 182 -16 29
-23 89 -11 89 6 0 11 -6 11 -14z m2174 -192 c9 -3 14 -10 11 -15 -7 -10 -35 0
-35 12 0 11 3 11 24 3z m-1510 -79 c-4 -10 0 -15 12 -15 14 0 15 -3 6 -12 -21
-21 -14 -114 13 -167 13 -27 31 -51 40 -55 9 -3 13 -10 10 -16 -7 -11 -45 -7
-166 16 -42 8 -83 12 -92 8 -14 -5 -17 1 -17 32 0 52 25 91 124 194 30 32 80
42 70 15z m121 -75 c81 -61 105 -87 105 -114 0 -15 8 -30 19 -35 18 -10 46
-69 37 -79 -3 -2 -24 5 -48 17 -27 13 -71 52 -118 106 -68 77 -75 88 -75 128
-1 39 1 41 16 27 10 -8 38 -31 64 -50z m1425 10 c0 -5 -4 -10 -10 -10 -5 0
-10 5 -10 10 0 6 5 10 10 10 6 0 10 -4 10 -10z m-74 -57 c-10 -10 -19 5 -10
18 6 11 8 11 12 0 2 -7 1 -15 -2 -18z m-413 5 c16 -12 16 -21 1 -158 -15 -126
-22 -157 -57 -235 -47 -109 -58 -125 -68 -98 -4 10 -8 32 -8 50 -1 23 -5 31
-15 27 -26 -10 -25 27 2 74 15 26 36 83 46 127 35 151 59 225 74 225 4 0 16
-6 25 -12z m438 -501 c-1 -175 5 -314 25 -560 l7 -87 -25 0 c-25 0 -26 2 -33
89 -4 49 -4 94 -1 99 3 6 2 21 -3 33 l-8 24 -8 -24 c-4 -13 -9 -35 -11 -50 -1
-14 -8 -50 -13 -80 -6 -30 -8 -57 -6 -61 3 -4 -2 -13 -10 -20 -12 -10 -15 -9
-15 4 0 20 -14 21 -34 0 -22 -21 -51 -14 -52 14 -2 36 -13 38 -39 7 -13 -17
-24 -26 -25 -22 0 13 29 117 45 157 7 19 23 69 34 110 39 138 30 125 88 122
65 -4 66 0 53 149 -13 150 -13 275 1 301 23 43 31 -11 30 -205z m-615 46 c-8
-32 -43 -130 -57 -155 -12 -24 -12 -78 1 -78 6 0 10 16 10 35 0 32 2 35 24 29
19 -4 28 1 47 28 13 18 28 38 34 44 5 6 19 27 30 47 11 20 23 37 27 37 11 0
10 -34 -1 -45 -4 -6 -16 -50 -25 -100 -28 -145 -136 -459 -167 -485 -4 -3 -9
-15 -13 -27 -7 -23 -8 -23 -221 -23 -252 0 -245 -7 -124 121 43 46 79 86 79
90 0 13 73 70 167 132 101 67 125 95 103 121 -17 21 -88 8 -137 -25 -23 -16
-48 -29 -56 -29 -19 0 -41 26 -29 34 5 3 12 19 15 36 4 16 12 30 20 30 7 0 20
8 28 18 27 30 88 82 97 82 4 0 22 14 40 30 18 17 37 30 42 30 5 0 17 11 27 25
25 34 47 33 39 -2z m-1889 -356 c7 -9 48 -88 91 -176 l78 -161 -62 0 c-66 0
-73 4 -79 48 -6 42 -11 59 -54 185 -22 65 -43 135 -47 155 l-7 36 34 -36 c19
-20 40 -43 46 -51z m253 -77 c0 -5 -4 -10 -10 -10 -5 0 -10 5 -10 10 0 6 5 10
10 10 6 0 10 -4 10 -10z m200 -55 c30 -3 66 -7 80 -9 14 -3 30 -5 36 -5 16 -1
32 -43 25 -63 -4 -13 -10 -15 -21 -8 -26 17 -39 11 -56 -25 -17 -36 -28 -43
-39 -25 -12 19 -35 -10 -35 -44 -1 -26 -2 -28 -11 -13 -8 13 -14 15 -23 8 -13
-11 -56 -4 -56 10 0 5 -25 33 -56 63 -59 56 -61 64 -33 122 10 19 13 20 72 8
34 -7 87 -16 117 -19z"/>
<path d="M2352 2220 c0 -14 2 -19 5 -12 2 6 2 18 0 25 -3 6 -5 1 -5 -13z"/>
<path d="M2324 2127 c-11 -13 -28 -28 -39 -35 -11 -6 -14 -12 -7 -12 6 0 12
-4 12 -10 0 -5 -13 -7 -29 -4 -18 4 -43 -2 -71 -16 -54 -28 -161 -44 -172 -27
-6 9 -8 9 -8 0 0 -7 -18 -17 -40 -23 -21 -6 -52 -21 -67 -33 -36 -29 -104 -73
-159 -102 -36 -19 -45 -21 -54 -10 -6 8 -17 12 -24 9 -18 -7 -44 61 -47 120
-2 26 -8 51 -13 56 -8 6 -10 -8 -8 -46 5 -72 -15 -81 -64 -29 -19 21 -38 34
-42 31 -3 -4 -1 -11 7 -15 10 -7 10 -11 -1 -22 -8 -8 -14 -16 -14 -19 0 -23
-15 -51 -26 -48 -7 3 -21 -4 -32 -14 -12 -11 -28 -16 -40 -13 -62 17 -138 41
-191 61 -33 12 -73 25 -90 29 -16 3 -39 9 -50 12 -20 6 -20 5 -1 -16 11 -12
14 -22 8 -22 -26 -3 -31 -4 -37 -11 -4 -3 -57 18 -117 48 -61 30 -119 54 -129
54 -23 0 -25 -23 -4 -40 20 -17 20 -99 0 -105 -8 -3 -22 -7 -31 -10 -12 -4
-13 -7 -2 -20 36 -44 65 -62 225 -141 100 -50 173 -92 173 -101 0 -11 4 -11
23 1 12 9 40 22 63 29 22 8 71 38 110 67 71 54 81 56 165 38 8 -2 15 8 17 22
6 36 20 50 53 50 34 0 34 1 14 40 -15 28 -14 30 4 30 11 0 24 -6 28 -13 4 -7
22 -21 38 -31 17 -11 38 -29 47 -40 10 -12 23 -27 29 -34 15 -18 33 -10 37 15
2 12 9 24 17 27 23 9 119 -11 124 -25 2 -8 19 -28 37 -46 30 -28 42 -32 101
-35 38 -2 71 -3 75 -1 14 6 -5 43 -23 43 -11 0 -19 2 -19 4 0 15 32 59 61 83
18 15 36 31 37 36 2 4 26 34 52 66 35 41 47 64 44 78 -3 12 -1 24 4 27 6 4 8
-2 5 -14 -3 -11 0 -20 6 -20 6 0 11 5 11 11 0 6 7 17 15 25 8 9 15 23 14 32 0
14 -2 13 -9 -3 -8 -19 -9 -19 -9 1 -1 14 7 24 22 28 21 7 21 8 2 15 -19 8 -19
8 0 19 11 6 17 13 14 17 -4 3 -15 -5 -25 -18z"/>
</g>
</svg>
