<?xml version="1.0" encoding="UTF-8"?>
<svg version="1.1" xmlns="http://www.w3.org/2000/svg" width="225" height="225">
<path d="M0 0 C74.25 0 148.5 0 225 0 C225 74.25 225 148.5 225 225 C150.75 225 76.5 225 0 225 C0 150.75 0 76.5 0 0 Z " fill="#59458F" transform="translate(0,0)"/>
<path d="M0 0 C15.51 0 31.02 0 47 0 C47 16.5 47 33 47 50 C61.85 50 76.7 50 92 50 C92 33.5 92 17 92 0 C107.84 0 123.68 0 140 0 C140 49.5 140 99 140 150 C124.16 150 108.32 150 92 150 C92 130.53 92 111.06 92 91 C77.48 91.33 62.96 91.66 48 92 C47.67 110.81 47.34 129.62 47 149 C31.49 149 15.98 149 0 149 C0 99.83 0 50.66 0 0 Z " fill="#FCFCFD" transform="translate(44,23)"/>
<path d="M0 0 C1.98 0.495 1.98 0.495 4 1 C4 1.66 4 2.32 4 3 C3.34 3 2.68 3 2 3 C2.01252808 3.6297171 2.02505615 4.2594342 2.03796387 4.90823364 C3.09747571 58.46463523 3.09747571 58.46463523 3.17724609 79.62005615 C3.18401269 81.190591 3.19419445 82.76111533 3.20800781 84.331604 C3.33529681 99.80014804 3.33529681 99.80014804 1 107 C0.01 107.66 -0.98 108.32 -2 109 C-0.8321734 112.81413002 -0.8321734 112.81413002 2.125 115.3125 C2.74375 115.539375 3.3625 115.76625 4 116 C4.07688588 120.5362667 4.04349036 124.56516595 3 129 C3 129.66 3 130.32 3 131 C3.66 131.33 4.32 131.66 5 132 C3.61410019 135.09162264 2.50816459 136.49183541 0 139 C-0.66 135.04 -1.32 131.08 -2 127 C-2.66 127 -3.32 127 -4 127 C-3.84015625 126.43539062 -3.6803125 125.87078125 -3.515625 125.2890625 C-2.98429977 122.93030048 -2.79846872 120.79035778 -2.75 118.375 C-2.72421875 117.59898437 -2.6984375 116.82296875 -2.671875 116.0234375 C-2.78015625 115.35570312 -2.8884375 114.68796875 -3 114 C-6.50322491 111.66451673 -7.85971827 111.76047191 -11.99682617 111.78881836 C-13.84971504 111.79388649 -13.84971504 111.79388649 -15.74003601 111.79905701 C-17.09101412 111.81259947 -18.44199169 111.82619643 -19.79296875 111.83984375 C-21.18198734 111.84611851 -22.57101097 111.85135716 -23.96003723 111.85560608 C-27.62147192 111.868915 -31.28274013 111.89333378 -34.9440918 111.92095947 C-40.78612169 111.96403244 -46.62819122 111.99395786 -52.47033119 112.0170002 C-54.50203076 112.02713945 -56.5335863 112.04420613 -58.56523132 112.06199646 C-64.81322345 112.09461392 -70.82660064 111.99344856 -77 111 C-77 114.96 -77 118.92 -77 123 C-80.23094955 121.38452522 -81.44824658 118.1308505 -83 115 C-83.75 112.5625 -83.75 112.5625 -84 111 C-86.64 111 -89.28 111 -92 111 C-92 120.24 -92 129.48 -92 139 C-92.66 138.67 -93.32 138.34 -94 138 C-94 129.09 -94 120.18 -94 111 C-96.64 111 -99.28 111 -102 111 C-101.98428955 111.56509277 -101.9685791 112.13018555 -101.95239258 112.71240234 C-101.89012955 115.26650023 -101.85103864 117.82043871 -101.8125 120.375 C-101.78736328 121.26445312 -101.76222656 122.15390625 -101.73632812 123.0703125 C-101.72666016 123.92109375 -101.71699219 124.771875 -101.70703125 125.6484375 C-101.6913208 126.43395996 -101.67561035 127.21948242 -101.65942383 128.02880859 C-101.77181396 128.67930176 -101.8842041 129.32979492 -102 130 C-102.99 130.66 -103.98 131.32 -105 132 C-106.32 131.67 -107.64 131.34 -109 131 C-109 124.4 -109 117.8 -109 111 C-114.94 111.33 -120.88 111.66 -127 112 C-127.33 114.64 -127.66 117.28 -128 120 C-129.65 120 -131.3 120 -133 120 C-133 117.03 -133 114.06 -133 111 C-135.97 111 -138.94 111 -142 111 C-141.67 119.91 -141.34 128.82 -141 138 C-139.02 138.33 -137.04 138.66 -135 139 C-135 139.33 -135 139.66 -135 140 C-141.625 140.25 -141.625 140.25 -145 138 C-146.37942493 132.18342487 -146.02573581 126.37417556 -145.75 120.4375 C-145.72292969 119.51775391 -145.69585937 118.59800781 -145.66796875 117.65039062 C-145.62800781 116.75384766 -145.58804688 115.85730469 -145.546875 114.93359375 C-145.51432617 114.12978271 -145.48177734 113.32597168 -145.44824219 112.49780273 C-145 110 -145 110 -142 104 C-126.16 104 -110.32 104 -94 104 C-94.01740234 97.73708984 -94.01740234 97.73708984 -94.03515625 91.34765625 C-94.04158321 88.02702616 -94.04700743 84.70639783 -94.05175018 81.38576508 C-94.05703983 77.87573507 -94.0641132 74.36572905 -94.07543945 70.85571289 C-94.08834206 66.83219159 -94.09322912 62.80869586 -94.09765625 58.78515625 C-94.10539818 56.88987938 -94.10539818 56.88987938 -94.11329651 54.95631409 C-94.11337204 53.795186 -94.11344757 52.63405792 -94.11352539 51.43774414 C-94.115746 50.40960098 -94.11796661 49.38145782 -94.12025452 48.32215881 C-94 46 -94 46 -93 45 C-91.61839885 44.9072167 -90.23211962 44.88252957 -88.84741211 44.88647461 C-87.95421265 44.88659546 -87.06101318 44.88671631 -86.14074707 44.88684082 C-85.19582397 44.89195679 -84.25090088 44.89707275 -83.27734375 44.90234375 C-82.41338989 44.90335083 -81.54943604 44.90435791 -80.65930176 44.90539551 C-77.41868775 44.9106445 -74.1780926 44.92460564 -70.9375 44.9375 C-63.698125 44.958125 -56.45875 44.97875 -49 45 C-49 64.47 -49 83.94 -49 104 C-33.16 103.67 -17.32 103.34 -1 103 C-0.67 69.01 -0.34 35.02 0 0 Z " fill="#4A3783" transform="translate(185,69)"/>
<path d="M0 0 C7.88429527 -0.06953763 15.76846222 -0.12283008 23.65298843 -0.15543652 C27.31417937 -0.17108671 30.97516036 -0.19231272 34.63623047 -0.22631836 C38.16997082 -0.25893557 41.70350934 -0.27685788 45.23738861 -0.28463173 C47.24045982 -0.29286531 49.24344993 -0.31628107 51.24639893 -0.33988953 C52.46736267 -0.34011612 53.68832642 -0.34034271 54.94628906 -0.34057617 C56.02106506 -0.34723801 57.09584106 -0.35389984 58.20318604 -0.36076355 C61.36567713 0.04716902 62.73570466 0.78944201 65 3 C65.4609375 5.12109375 65.4609375 5.12109375 65.375 7.4375 C65.36210937 8.19933594 65.34921875 8.96117187 65.3359375 9.74609375 C64.97375235 12.17610344 64.20955422 13.87602279 63 16 C63.66 16 64.32 16 65 16 C66.20272819 18.40545638 66.10071472 19.94996953 66.0625 22.625 C66.05347656 23.44226563 66.04445313 24.25953125 66.03515625 25.1015625 C66.02355469 25.72804687 66.01195312 26.35453125 66 27 C63.36 27 60.72 27 58 27 C57.505 23.04 57.505 23.04 57 19 C55.35 18.67 53.7 18.34 52 18 C52 20.97 52 23.94 52 27 C42.1 27 32.2 27 22 27 C22 20.73 22 14.46 22 8 C19.69 8 17.38 8 15 8 C15 14.27 15 20.54 15 27 C12.03 27 9.06 27 6 27 C6 20.73 6 14.46 6 8 C4.02 8 2.04 8 0 8 C0 5.36 0 2.72 0 0 Z " fill="#8A83A1" transform="translate(118,180)"/>
<path d="M0 0 C0.81881653 -0.00807175 1.63763306 -0.01614349 2.48126221 -0.02445984 C4.21274722 -0.03826929 5.9442591 -0.04900544 7.67578125 -0.05688477 C9.43693075 -0.06839449 11.19804565 -0.08883045 12.95898438 -0.1184082 C15.51456205 -0.16130472 18.06910596 -0.17728406 20.625 -0.1875 C21.79104767 -0.21376213 21.79104767 -0.21376213 22.98065186 -0.24055481 C28.53923769 -0.21879301 32.99170183 0.99512297 37.578125 4.23828125 C39.69855013 7.41891895 39.81079746 7.97744548 39.63745117 11.5703125 C39.6004863 12.44131592 39.56352142 13.31231934 39.5254364 14.2097168 C39.47450333 15.14726807 39.42357025 16.08481934 39.37109375 17.05078125 C39.32624344 18.01604736 39.28139313 18.98131348 39.23518372 19.97583008 C39.1382789 22.01700827 39.03623086 24.05794779 38.92944336 26.09863281 C38.76629388 29.22546189 38.61908408 32.35272672 38.47460938 35.48046875 C38.3785403 37.46228518 38.28156549 39.44405796 38.18359375 41.42578125 C38.13873337 42.36333252 38.09387299 43.30088379 38.0476532 44.2668457 C37.97802116 45.57335083 37.97802116 45.57335083 37.90698242 46.90625 C37.84797005 48.05516724 37.84797005 48.05516724 37.7877655 49.22729492 C37.578125 51.23828125 37.578125 51.23828125 36.578125 54.23828125 C50.438125 54.23828125 64.298125 54.23828125 78.578125 54.23828125 C78.578125 37.73828125 78.578125 21.23828125 78.578125 4.23828125 C94.418125 4.23828125 110.258125 4.23828125 126.578125 4.23828125 C126.578125 4.56828125 126.578125 4.89828125 126.578125 5.23828125 C111.068125 5.23828125 95.558125 5.23828125 79.578125 5.23828125 C79.578125 21.73828125 79.578125 38.23828125 79.578125 55.23828125 C64.728125 55.23828125 49.878125 55.23828125 34.578125 55.23828125 C34.578125 38.73828125 34.578125 22.23828125 34.578125 5.23828125 C19.068125 5.23828125 3.558125 5.23828125 -12.421875 5.23828125 C-12.421875 54.40828125 -12.421875 103.57828125 -12.421875 154.23828125 C3.088125 154.23828125 18.598125 154.23828125 34.578125 154.23828125 C34.578125 154.56828125 34.578125 154.89828125 34.578125 155.23828125 C27.76050606 155.26355015 20.94289911 155.28111369 14.12524414 155.29321289 C11.80395049 155.29825458 9.48266003 155.30508776 7.16137695 155.3137207 C3.83283705 155.3257935 0.50433898 155.33151104 -2.82421875 155.3359375 C-4.39138893 155.34367943 -4.39138893 155.34367943 -5.99021912 155.35157776 C-6.95113968 155.35165329 -7.91206024 155.35172882 -8.90209961 155.35180664 C-9.75259384 155.35402725 -10.60308807 155.35624786 -11.47935486 155.35853577 C-13.421875 155.23828125 -13.421875 155.23828125 -14.421875 154.23828125 C-14.51723742 151.07215462 -14.54738136 147.92787497 -14.53540039 144.76147461 C-14.53554642 143.76646439 -14.53569244 142.77145416 -14.5358429 141.74629211 C-14.53514331 138.44021463 -14.52734879 135.13419271 -14.51953125 131.828125 C-14.51766723 129.54268932 -14.51624325 127.25725324 -14.51524353 124.97181702 C-14.51141707 118.94329738 -14.5015857 112.91480166 -14.49053955 106.8862915 C-14.48032817 100.73995284 -14.4757465 94.59361032 -14.47070312 88.44726562 C-14.45996354 76.37759363 -14.4428856 64.30793943 -14.421875 52.23828125 C-16.071875 52.23828125 -17.721875 52.23828125 -19.421875 52.23828125 C-18.761875 51.57828125 -18.101875 50.91828125 -17.421875 50.23828125 C-17.38022135 48.57213517 -17.38022135 46.90442733 -17.421875 45.23828125 C-17.091875 44.57828125 -16.761875 43.91828125 -16.421875 43.23828125 C-16.31868181 41.53255851 -16.29231811 39.82211656 -16.296875 38.11328125 C-16.29816406 36.96601562 -16.29945312 35.81875 -16.30078125 34.63671875 C-16.36165946 31.15248352 -16.58163925 27.69091617 -16.82421875 24.21484375 C-16.8907666 23.15023926 -16.95731445 22.08563477 -17.02587891 20.98876953 C-17.16355499 18.84237681 -17.32297637 16.69725512 -17.50537109 14.55419922 C-17.96795807 7.00832509 -17.96795807 7.00832509 -15.18359375 3.08203125 C-10.35364064 -0.1424919 -5.6781767 0.05340081 0 0 Z " fill="#9084AE" transform="translate(56.421875,17.76171875)"/>
<path d="M0 0 C16.17 0 32.34 0 49 0 C49 0.66 49 1.32 49 2 C47.68 2 46.36 2 45 2 C44.67 2.66 44.34 3.32 44 4 C48.80014651 5.2308068 52.19708401 4.68152028 56.8515625 3.375 C59.22831336 2.96014894 60.72620372 3.25921569 63 4 C63 4.66 63 5.32 63 6 C63.66 5.67 64.32 5.34 65 5 C67.3329866 4.95977609 69.66706666 4.95679753 72 5 C71.67 5.66 71.34 6.32 71 7 C69.02 7 67.04 7 65 7 C65 10.96 65 14.92 65 19 C61.76905045 17.38452522 60.55175342 14.1308505 59 11 C58.25 8.5625 58.25 8.5625 58 7 C55.36 7 52.72 7 50 7 C50 16.24 50 25.48 50 35 C49.01 34.505 49.01 34.505 48 34 C48 25.09 48 16.18 48 7 C45.36 7 42.72 7 40 7 C40.01571045 7.56509277 40.0314209 8.13018555 40.04760742 8.71240234 C40.10987045 11.26650023 40.14896136 13.82043871 40.1875 16.375 C40.21263672 17.26445312 40.23777344 18.15390625 40.26367188 19.0703125 C40.27333984 19.92109375 40.28300781 20.771875 40.29296875 21.6484375 C40.3086792 22.43395996 40.32438965 23.21948242 40.34057617 24.02880859 C40.17199097 25.00454834 40.17199097 25.00454834 40 26 C39.01 26.66 38.02 27.32 37 28 C35.68 27.67 34.36 27.34 33 27 C33 20.4 33 13.8 33 7 C27.06 7.33 21.12 7.66 15 8 C14.67 10.64 14.34 13.28 14 16 C12.35 16 10.7 16 9 16 C9 13.03 9 10.06 9 7 C6.03 7 3.06 7 0 7 C0.33 15.91 0.66 24.82 1 34 C2.98 34.33 4.96 34.66 7 35 C7 35.33 7 35.66 7 36 C0.375 36.25 0.375 36.25 -3 34 C-4.37942493 28.18342487 -4.02573581 22.37417556 -3.75 16.4375 C-3.72292969 15.51775391 -3.69585937 14.59800781 -3.66796875 13.65039062 C-3.62800781 12.75384766 -3.58804688 11.85730469 -3.546875 10.93359375 C-3.49805176 9.7278772 -3.49805176 9.7278772 -3.44824219 8.49780273 C-3 6 -3 6 0 0 Z " fill="#443775" transform="translate(43,173)"/>
<path d="M0 0 C1.32 0.33 2.64 0.66 4 1 C4 1.66 4 2.32 4 3 C3.34 3 2.68 3 2 3 C2.01252808 3.6297171 2.02505615 4.2594342 2.03796387 4.90823364 C3.09747571 58.46463523 3.09747571 58.46463523 3.17724609 79.62005615 C3.18401269 81.190591 3.19419445 82.76111533 3.20800781 84.331604 C3.33529681 99.80014804 3.33529681 99.80014804 1 107 C0.01 107.66 -0.98 108.32 -2 109 C-0.8321734 112.81413002 -0.8321734 112.81413002 2.125 115.3125 C2.74375 115.539375 3.3625 115.76625 4 116 C4.07688588 120.5362667 4.04349036 124.56516595 3 129 C3 129.66 3 130.32 3 131 C3.66 131.33 4.32 131.66 5 132 C3.61410019 135.09162264 2.50816459 136.49183541 0 139 C-0.66 135.04 -1.32 131.08 -2 127 C-2.66 127 -3.32 127 -4 127 C-3.84015625 126.43539062 -3.6803125 125.87078125 -3.515625 125.2890625 C-2.98429977 122.93030048 -2.79846872 120.79035778 -2.75 118.375 C-2.72421875 117.59898437 -2.6984375 116.82296875 -2.671875 116.0234375 C-2.78015625 115.35570312 -2.8884375 114.68796875 -3 114 C-6.52617644 111.64921571 -7.95164881 111.75629401 -12.1237793 111.77294922 C-14.01540047 111.77317581 -14.01540047 111.77317581 -15.94523621 111.77340698 C-17.32156532 111.78362024 -18.69789283 111.79405223 -20.07421875 111.8046875 C-21.48240458 111.80841828 -22.890593 111.81126494 -24.29878235 111.81326294 C-28.0027281 111.82089436 -31.70651668 111.84053852 -35.41040039 111.8626709 C-39.19089634 111.88313997 -42.97141772 111.89226692 -46.75195312 111.90234375 C-54.16804036 111.92378496 -61.58399814 111.95791487 -69 112 C-69 110.35 -69 108.7 -69 107 C-68.01 107.33 -67.02 107.66 -66 108 C-64.52034074 108.14573058 -63.03596157 108.24663268 -61.55078125 108.31640625 C-60.70322266 108.35830078 -59.85566406 108.40019531 -58.98242188 108.44335938 C-58.10134766 108.48267578 -57.22027344 108.52199219 -56.3125 108.5625 C-55.41982422 108.60568359 -54.52714844 108.64886719 -53.60742188 108.69335938 C-51.40509892 108.79935353 -49.20266527 108.90142051 -47 109 C-47 108.01 -47 107.02 -47 106 C-47.66 106 -48.32 106 -49 106 C-49 105.34 -49 104.68 -49 104 C-33.16 103.67 -17.32 103.34 -1 103 C-0.67 69.01 -0.34 35.02 0 0 Z " fill="#453676" transform="translate(185,69)"/>
<path d="M0 0 C2.64 0 5.28 0 8 0 C8.4021875 1.4540625 8.4021875 1.4540625 8.8125 2.9375 C9.4003125 4.4534375 9.4003125 4.4534375 10 6 C10.99 6.33 11.98 6.66 13 7 C12.67 7.66 12.34 8.32 12 9 C11.90081224 11.8818722 11.8601869 14.73905837 11.8671875 17.62109375 C11.86575241 18.904645 11.86575241 18.904645 11.86428833 20.21412659 C11.86360721 22.02564568 11.86545676 23.83716722 11.86962891 25.64868164 C11.87497158 28.42274463 11.86968501 31.19664523 11.86328125 33.97070312 C11.86394217 35.72916702 11.86522363 37.48763082 11.8671875 39.24609375 C11.86415115 40.49307289 11.86415115 40.49307289 11.86105347 41.76524353 C11.87461184 45.09499449 11.93971802 47.81915406 13 51 C15.01508358 51.73323796 15.01508358 51.73323796 17 52 C14.36 52 11.72 52 9 52 C9 86.32 9 120.64 9 156 C8.67 156 8.34 156 8 156 C7.67 106.83 7.34 57.66 7 7 C-8.84 6.67 -24.68 6.34 -41 6 C-41 22.5 -41 39 -41 56 C-54.86 56 -68.72 56 -83 56 C-82.67 55.01 -82.34 54.02 -82 53 C-81.21399414 53.24907104 -81.21399414 53.24907104 -80.41210938 53.50317383 C-75.53906603 54.50688265 -70.47571021 53.93558328 -65.52783203 53.75805664 C-63.50701297 53.68774401 -61.48617309 53.63342627 -59.46484375 53.58007812 C-58.18738281 53.53689453 -56.90992187 53.49371094 -55.59375 53.44921875 C-54.42521484 53.41143311 -53.25667969 53.37364746 -52.05273438 53.3347168 C-48.19727624 52.9511648 -48.19727624 52.9511648 -45 51 C-43.80157961 46.68827482 -43.89480696 42.40204397 -43.9375 37.94921875 C-43.94128662 37.2909761 -43.94507324 36.63273346 -43.94897461 35.95454407 C-43.96514352 33.16761292 -43.99320815 30.38083499 -44.02050781 27.59399414 C-44.2055545 6.88580854 -44.2055545 6.88580854 -41 1 C-40.01 1 -39.02 1 -38 1 C-38 1.66 -38 2.32 -38 3 C-36.33388095 3.042721 -34.66617115 3.04063832 -33 3 C-32.67 2.67 -32.34 2.34 -32 2 C-29.6243148 1.9116033 -27.27791326 1.88469695 -24.90234375 1.90234375 C-23.83905602 1.90446617 -23.83905602 1.90446617 -22.75428772 1.90663147 C-20.48198288 1.91224557 -18.20977525 1.92480037 -15.9375 1.9375 C-14.40039204 1.94251319 -12.86328255 1.94707641 -11.32617188 1.95117188 C-7.55074358 1.96221958 -3.77538829 1.97949359 0 2 C0 1.34 0 0.68 0 0 Z " fill="#78689A" transform="translate(176,16)"/>
<path d="M0 0 C2.64 0 5.28 0 8 0 C10.10046807 3.64081132 12.11900578 7.23801156 14 11 C14.33 7.37 14.66 3.74 15 0 C17.64 0 20.28 0 23 0 C23 8.91 23 17.82 23 27 C20.36 27 17.72 27 15 27 C14.32845067 25.71086513 13.66291141 24.41859796 13 23.125 C12.62875 22.40570313 12.2575 21.68640625 11.875 20.9453125 C11 19 11 19 11 17 C10.34 17 9.68 17 9 17 C8.67 20.3 8.34 23.6 8 27 C5.36 27 2.72 27 0 27 C0 18.09 0 9.18 0 0 Z " fill="#C8C3D8" transform="translate(93,180)"/>
<path d="M0 0 C2.97 0 5.94 0 9 0 C9 2.97 9 5.94 9 9 C10.65 9 12.3 9 14 9 C14 6.36 14 3.72 14 1 C16.97 1 19.94 1 23 1 C23 9.58 23 18.16 23 27 C20.36 27 17.72 27 15 27 C15 23.7 15 20.4 15 17 C13.02 17 11.04 17 9 17 C9 20.3 9 23.6 9 27 C6.03 27 3.06 27 0 27 C0 18.09 0 9.18 0 0 Z " fill="#F8F5F9" transform="translate(43,180)"/>
<path d="M0 0 C3.09375 -0.04125 6.1875 -0.0825 9.375 -0.125 C10.83558838 -0.15231201 10.83558838 -0.15231201 12.32568359 -0.18017578 C13.09219238 -0.1851709 13.85870117 -0.19016602 14.6484375 -0.1953125 C15.82672119 -0.21102295 15.82672119 -0.21102295 17.02880859 -0.22705078 C19 0 19 0 21 2 C21.265625 4.0234375 21.265625 4.0234375 21.25 6.375 C21.25515625 7.14585937 21.2603125 7.91671875 21.265625 8.7109375 C20.97688045 11.1992361 20.24139229 12.84234198 19 15 C19.66 15 20.32 15 21 15 C22.20272819 17.40545638 22.10071472 18.94996953 22.0625 21.625 C22.05347656 22.44226563 22.04445312 23.25953125 22.03515625 24.1015625 C22.02355469 24.72804687 22.01195312 25.35453125 22 26 C19.36 26 16.72 26 14 26 C13.67 23.36 13.34 20.72 13 18 C11.35 17.67 9.7 17.34 8 17 C8 19.97 8 22.94 8 26 C5.36 26 2.72 26 0 26 C0 17.42 0 8.84 0 0 Z " fill="#E0DCE8" transform="translate(162,181)"/>
<path d="M0 0 C0.77943466 0.00222061 1.55886932 0.00444122 2.36192322 0.00672913 C3.25512268 0.00684998 4.14832214 0.00697083 5.06858826 0.00709534 C6.01351135 0.0122113 6.95843445 0.01732727 7.93199158 0.02259827 C8.79594543 0.02360535 9.65989929 0.02461243 10.55003357 0.02565002 C13.79064757 0.03089902 17.03124272 0.04486016 20.27183533 0.05775452 C27.51121033 0.07837952 34.75058533 0.09900452 42.20933533 0.12025452 C42.20933533 19.26025452 42.20933533 38.40025452 42.20933533 58.12025452 C41.87933533 57.46025452 41.54933533 56.80025452 41.20933533 56.12025452 C40.54933533 56.12025452 39.88933533 56.12025452 39.20933533 56.12025452 C39.18451092 50.00046581 39.16641654 43.8807068 39.15440369 37.76087952 C39.14939262 35.68144723 39.14258198 33.60201844 39.13389587 31.52259827 C39.1216885 28.52389155 39.11607462 25.52523166 39.11167908 22.52650452 C39.10651779 21.60534851 39.10135651 20.6841925 39.09603882 19.73512268 C39.09596329 18.85481384 39.09588776 17.974505 39.09580994 17.06752014 C39.09358932 16.30362976 39.09136871 15.53973938 39.08908081 14.75270081 C39.25170998 11.19264697 39.7673045 7.65650116 40.20933533 4.12025452 C27.66933533 4.12025452 15.12933533 4.12025452 2.20933533 4.12025452 C0.5726731 7.39357897 1.06768583 11.01194273 1.07652283 14.60853577 C1.0755661 15.46271591 1.07460937 16.31689606 1.07362366 17.19696045 C1.07294179 19.01359633 1.07479655 20.83023462 1.07896423 22.64686584 C1.08424036 25.38349653 1.07905744 28.11995759 1.07261658 30.85658264 C1.06937286 40.32986518 1.25393289 49.68701563 2.20933533 59.12025452 C0.55933533 59.12025452 -1.09066467 59.12025452 -2.79066467 59.12025452 C-2.81379319 51.57527219 -2.83158236 44.03029351 -2.84247684 36.48528385 C-2.84770456 32.98216567 -2.85480018 29.47907167 -2.86610413 25.97596741 C-2.87900673 21.95244611 -2.88389379 17.92895038 -2.88832092 13.90541077 C-2.89606285 12.0101339 -2.89606285 12.0101339 -2.90396118 10.0765686 C-2.90403671 8.91544052 -2.90411224 7.75431244 -2.90419006 6.55799866 C-2.90752098 5.01578392 -2.90752098 5.01578392 -2.91091919 3.44241333 C-2.74218816 0.18415537 -2.74218816 0.18415537 0 0 Z " fill="#675B89" transform="translate(93.79066467285156,113.87974548339844)"/>
<path d="M0 0 C2.64 0 5.28 0 8 0 C8 8.91 8 17.82 8 27 C5.31875 27.103125 2.6375 27.20625 -0.125 27.3125 C-1.37434326 27.38078003 -1.37434326 27.38078003 -2.64892578 27.45043945 C-6.69652169 27.52528762 -8.85778438 27.07425417 -12.53125 25.15625 C-15.14216155 22.62398037 -15.4199798 20.49122532 -15.5859375 16.91796875 C-15.54626197 15.00693066 -15.47499258 13.09633269 -15.375 11.1875 C-15.33439453 9.71893555 -15.33439453 9.71893555 -15.29296875 8.22070312 C-15.22245648 5.81153379 -15.12398568 3.40691181 -15 1 C-12.36 1 -9.72 1 -7 1 C-6.67 7.27 -6.34 13.54 -6 20 C-4.35 19.67 -2.7 19.34 -1 19 C-0.67 12.73 -0.34 6.46 0 0 Z " fill="#D1CCDE" transform="translate(83,180)"/>
<path d="M0 0 C6.27 0 12.54 0 19 0 C19 1.98 19 3.96 19 6 C15.37 6 11.74 6 8 6 C8 7.32 8 8.64 8 10 C10.97 10 13.94 10 17 10 C17 11.98 17 13.96 17 16 C14.03 16 11.06 16 8 16 C8 17.32 8 18.64 8 20 C11.63 20 15.26 20 19 20 C19 21.98 19 23.96 19 26 C12.73 26 6.46 26 0 26 C0 17.42 0 8.84 0 0 Z " fill="#E1DEEB" transform="translate(141,181)"/>
<path d="M0 0 C6.93 0 13.86 0 21 0 C21 1.98 21 3.96 21 6 C18.69 6 16.38 6 14 6 C14 12.27 14 18.54 14 25 C11.69 25 9.38 25 7 25 C7 18.73 7 12.46 7 6 C4.69 6 2.38 6 0 6 C0 4.02 0 2.04 0 0 Z " fill="#F5F2F8" transform="translate(118,181)"/>
<path d="M0 0 C1.18239258 0.00676758 1.18239258 0.00676758 2.38867188 0.01367188 C4.32164761 0.02538688 6.25458393 0.04332002 8.1875 0.0625 C8.5175 1.3825 8.8475 2.7025 9.1875 4.0625 C10.8375 4.0625 12.4875 4.0625 14.1875 4.0625 C14.1875 4.3925 14.1875 4.7225 14.1875 5.0625 C12.5375 5.0625 10.8875 5.0625 9.1875 5.0625 C9.20321045 5.62759277 9.2189209 6.19268555 9.23510742 6.77490234 C9.29737045 9.32900023 9.33646136 11.88293871 9.375 14.4375 C9.40013672 15.32695312 9.42527344 16.21640625 9.45117188 17.1328125 C9.46083984 17.98359375 9.47050781 18.834375 9.48046875 19.7109375 C9.4961792 20.49645996 9.51188965 21.28198242 9.52807617 22.09130859 C9.41568604 22.74180176 9.3032959 23.39229492 9.1875 24.0625 C8.1975 24.7225 7.2075 25.3825 6.1875 26.0625 C4.8675 25.7325 3.5475 25.4025 2.1875 25.0625 C2.1875 18.4625 2.1875 11.8625 2.1875 5.0625 C-3.14750581 3.72874855 -8.30457876 2.8955933 -13.8125 3.0625 C-13.8125 2.4025 -13.8125 1.7425 -13.8125 1.0625 C-9.18790756 -0.11450048 -4.73383538 -0.05158412 0 0 Z " fill="#4E4082" transform="translate(73.8125,174.9375)"/>
<path d="M0 0 C5.28 0 10.56 0 16 0 C16 0.66 16 1.32 16 2 C16.66 2 17.32 2 18 2 C18 3.32 18 4.64 18 6 C17.34 6 16.68 6 16 6 C15.67 5.34 15.34 4.68 15 4 C12.36 4.33 9.72 4.66 7 5 C6.67 6.98 6.34 8.96 6 11 C8.31 11 10.62 11 13 11 C12.67 12.32 12.34 13.64 12 15 C10.35 15.33 8.7 15.66 7 16 C6.67 18.64 6.34 21.28 6 24 C4.02 24 2.04 24 0 24 C0 16.08 0 8.16 0 0 Z M14 6 C16 7 16 7 16 7 Z " fill="#FBF9FB" transform="translate(163,182)"/>
<path d="M0 0 C7 0 7 0 8.7421875 1.3203125 C11.18594291 5.21346766 12.65592762 8.29767743 13 13 C11.02 13.99 11.02 13.99 9 15 C8.01 14.34 7.02 13.68 6 13 C6 16.96 6 20.92 6 25 C4.02 25 2.04 25 0 25 C0 16.75 0 8.5 0 0 Z " fill="#F7F5F8" transform="translate(94,181)"/>
<path d="M0 0 C0.33 0 0.66 0 1 0 C1 15.18 1 30.36 1 46 C-12.86 46 -26.72 46 -41 46 C-40.67 45.01 -40.34 44.02 -40 43 C-39.21399414 43.24907104 -39.21399414 43.24907104 -38.41210938 43.50317383 C-33.53906603 44.50688265 -28.47571021 43.93558328 -23.52783203 43.75805664 C-21.50701297 43.68774401 -19.48617309 43.63342627 -17.46484375 43.58007812 C-16.18738281 43.53689453 -14.90992187 43.49371094 -13.59375 43.44921875 C-12.42521484 43.41143311 -11.25667969 43.37364746 -10.05273438 43.3347168 C-6.19727624 42.9511648 -6.19727624 42.9511648 -3 41 C-1.77679153 36.62997299 -1.90735934 32.28682993 -1.97265625 27.7734375 C-1.98529261 26.39843992 -1.99765429 25.0234398 -2.00976562 23.6484375 C-2.03463245 21.50447442 -2.06272243 19.36064732 -2.09594727 17.21679688 C-2.12617928 15.13150172 -2.14392191 13.04638199 -2.16015625 10.9609375 C-2.17699463 9.72134277 -2.19383301 8.48174805 -2.21118164 7.20458984 C-2.01144998 4.17374842 -1.60211284 2.53256308 0 0 Z " fill="#695C8E" transform="translate(134,26)"/>
<path d="M0 0 C2.31 0 4.62 0 7 0 C7 8.25 7 16.5 7 25 C5.02 25 3.04 25 1 25 C-0.00005304 21.99984088 -0.11575585 20.02576244 -0.09765625 16.89453125 C-0.09443359 15.91162109 -0.09121094 14.92871094 -0.08789062 13.91601562 C-0.07951172 12.89185547 -0.07113281 11.86769531 -0.0625 10.8125 C-0.05798828 9.77673828 -0.05347656 8.74097656 -0.04882812 7.67382812 C-0.0370401 5.11582734 -0.02058515 2.55794267 0 0 Z " fill="#F7F4F9" transform="translate(83,181)"/>
<path d="M0 0 C2.97 0 5.94 0 9 0 C9 2.97 9 5.94 9 9 C10.65 9 12.3 9 14 9 C14 6.36 14 3.72 14 1 C16.97 1 19.94 1 23 1 C23 9.58 23 18.16 23 27 C20.36 27 17.72 27 15 27 C15 23.7 15 20.4 15 17 C13.02 17 11.04 17 9 17 C9 20.3 9 23.6 9 27 C6.03 27 3.06 27 0 27 C0 18.09 0 9.18 0 0 Z M1 1 C1 9.25 1 17.5 1 26 C3.31 26 5.62 26 8 26 C8 22.7 8 19.4 8 16 C10.31 16.33 12.62 16.66 15 17 C15.33 19.97 15.66 22.94 16 26 C17.98 26 19.96 26 22 26 C21.505 14.12 21.505 14.12 21 2 C19.68 2 18.36 2 17 2 C17 4.64 17 7.28 17 10 C14.03 10 11.06 10 8 10 C8 7.03 8 4.06 8 1 C5.69 1 3.38 1 1 1 Z " fill="#B8B2CC" transform="translate(43,180)"/>
<path d="M0 0 C0 0.66 0 1.32 0 2 C0.66 1.67 1.32 1.34 2 1 C4.3329866 0.95977609 6.66706666 0.95679753 9 1 C8.67 1.66 8.34 2.32 8 3 C6.02 3 4.04 3 2 3 C2 6.96 2 10.92 2 15 C-1.23094955 13.38452522 -2.44824658 10.1308505 -4 7 C-4.75 4.5625 -4.75 4.5625 -5 3 C-7.64 3 -10.28 3 -13 3 C-13 12.24 -13 21.48 -13 31 C-13.66 30.67 -14.32 30.34 -15 30 C-15 21.09 -15 12.18 -15 3 C-17.64 2.67 -20.28 2.34 -23 2 C-23 1.67 -23 1.34 -23 1 C-22.35933594 1.02320313 -21.71867187 1.04640625 -21.05859375 1.0703125 C-13.77024564 1.22237938 -7.05960513 -1.72185491 0 0 Z " fill="#45396A" transform="translate(106,177)"/>
<path d="M0 0 C20.295 0.495 20.295 0.495 41 1 C40.67 1.66 40.34 2.32 40 3 C29.44 3 18.88 3 8 3 C8 3.66 8 4.32 8 5 C9.13179687 4.97679687 10.26359375 4.95359375 11.4296875 4.9296875 C12.91145175 4.91093099 14.39322312 4.89273066 15.875 4.875 C16.62136719 4.85824219 17.36773437 4.84148437 18.13671875 4.82421875 C20.09194461 4.8066041 22.04742021 4.89679811 24 5 C24.66 5.66 25.32 6.32 26 7 C10.82 7.33 -4.36 7.66 -20 8 C-20 6.35 -20 4.7 -20 3 C-19.01 3.33 -18.02 3.66 -17 4 C-15.52034074 4.14573058 -14.03596157 4.24663268 -12.55078125 4.31640625 C-11.70322266 4.35830078 -10.85566406 4.40019531 -9.98242188 4.44335938 C-9.10134766 4.48267578 -8.22027344 4.52199219 -7.3125 4.5625 C-5.97348633 4.62727539 -5.97348633 4.62727539 -4.60742188 4.69335938 C-2.40509892 4.79935353 -0.20266527 4.90142051 2 5 C2 4.01 2 3.02 2 2 C1.34 2 0.68 2 0 2 C0 1.34 0 0.68 0 0 Z " fill="#3E316F" transform="translate(136,173)"/>
<path d="M0 0 C2.2109885 0.42793326 3.98119242 0.99059621 6 2 C6 1.34 6 0.68 6 0 C7.32 0 8.64 0 10 0 C10 0.99 10 1.98 10 3 C8.02 3.33 6.04 3.66 4 4 C4 5.65 4 7.3 4 9 C7.96 9 11.92 9 16 9 C16 10.65 16 12.3 16 14 C10.06 14 4.12 14 -2 14 C-1.125 1.125 -1.125 1.125 0 0 Z " fill="#F9F6F9" transform="translate(144,192)"/>
<path d="M0 0 C2.31 0 4.62 0 7 0 C7.33 6.6 7.66 13.2 8 20 C5.03 20 2.06 20 -1 20 C-0.67 13.4 -0.34 6.8 0 0 Z " fill="#403471" transform="translate(133,188)"/>
<path d="M0 0 C1.65 0 3.3 0 5 0 C5 7.92 5 15.84 5 24 C2.69 24 0.38 24 -2 24 C-2.12626263 19.45454545 -2.12626263 19.45454545 -1.53125 17.3125 C-0.76811092 13.99060046 -0.63309296 10.64241553 -0.4375 7.25 C-0.39431641 6.55261719 -0.35113281 5.85523438 -0.30664062 5.13671875 C-0.20110404 3.42468078 -0.1001009 1.71236439 0 0 Z " fill="#FAF8FA" transform="translate(110,182)"/>
<path d="M0 0 C1.32 0.33 2.64 0.66 4 1 C4 1.66 4 2.32 4 3 C3.34 3 2.68 3 2 3 C2.01474869 3.69855606 2.02949738 4.39711212 2.04469299 5.11683655 C2.18313641 11.72210032 2.31608341 18.32744965 2.4429636 24.93294621 C2.50837418 28.3283324 2.57585816 31.7236502 2.64819336 35.11889648 C2.7313909 39.02836868 2.80536741 42.93798999 2.87890625 46.84765625 C2.91945885 48.66367088 2.91945885 48.66367088 2.96083069 50.51637268 C3.05986919 56.13774421 3.04841034 61.46848819 2 67 C1.67 67 1.34 67 1 67 C-0.29538823 53.03697082 -0.11300728 39.0720773 -0.0625 25.0625 C-0.05747423 22.62565196 -0.05291323 20.18880292 -0.04882812 17.75195312 C-0.03790953 11.83461316 -0.02125703 5.91731139 0 0 Z " fill="#4E3E7A" transform="translate(185,69)"/>
<path d="M0 0 C1.66611905 -0.042721 3.33382885 -0.04063832 5 0 C6 1 6 1 6.09765625 3.06640625 C6.08605469 3.89011719 6.07445312 4.71382812 6.0625 5.5625 C6.05347656 6.38878906 6.04445312 7.21507812 6.03515625 8.06640625 C6.02355469 8.70449219 6.01195312 9.34257812 6 10 C1.77717482 10.80395025 -2.19613764 11.11811363 -6.4921875 11.09765625 C-7.69101563 11.09443359 -8.88984375 11.09121094 -10.125 11.08789062 C-11.98125 11.07532227 -11.98125 11.07532227 -13.875 11.0625 C-15.13570312 11.05798828 -16.39640625 11.05347656 -17.6953125 11.04882812 C-20.79692386 11.0370796 -23.89843725 11.02065167 -27 11 C-27 10.34 -27 9.68 -27 9 C-18.09 9 -9.18 9 0 9 C0 6.03 0 3.06 0 0 Z " fill="#504574" transform="translate(170,198)"/>
<path d="M0 0 C2.97 0.495 2.97 0.495 6 1 C6 6.94 6 12.88 6 19 C4.02 19.33 2.04 19.66 0 20 C0 13.4 0 6.8 0 0 Z " fill="#3F3179" transform="translate(117,188)"/>
<path d="M0 0 C1.98 0 3.96 0 6 0 C6.13487595 2.77245014 6.23400807 5.53837088 6.3125 8.3125 C6.35439453 9.09818359 6.39628906 9.88386719 6.43945312 10.69335938 C6.48647449 12.90336375 6.48367587 14.84148911 6 17 C3.48046875 19.04296875 3.48046875 19.04296875 1 20 C0.09761253 17.29283758 -0.11851302 15.76223232 -0.09765625 12.98828125 C-0.09443359 12.23095703 -0.09121094 11.47363281 -0.08789062 10.69335938 C-0.07951172 9.90767578 -0.07113281 9.12199219 -0.0625 8.3125 C-0.05798828 7.51521484 -0.05347656 6.71792969 -0.04882812 5.89648438 C-0.0370585 3.93095743 -0.01912348 1.96546915 0 0 Z " fill="#FAF7FD" transform="translate(69,181)"/>
<path d="M0 0 C0.99 0.33 1.98 0.66 3 1 C2.67 1.66 2.34 2.32 2 3 C1.90081224 5.8818722 1.8601869 8.73905837 1.8671875 11.62109375 C1.86623077 12.47679459 1.86527405 13.33249542 1.86428833 14.21412659 C1.86360721 16.02564568 1.86545676 17.83716722 1.86962891 19.64868164 C1.87497158 22.42274463 1.86968501 25.19664523 1.86328125 27.97070312 C1.86394217 29.72916702 1.86522363 31.48763082 1.8671875 33.24609375 C1.86516327 34.07741318 1.86313904 34.9087326 1.86105347 35.76524353 C1.87461184 39.09499449 1.93971802 41.81915406 3 45 C5.01508358 45.73323796 5.01508358 45.73323796 7 46 C4.36 46 1.72 46 -1 46 C-1.02527062 39.60962769 -1.04283317 33.21926817 -1.05493164 26.82885742 C-1.05997308 24.65307127 -1.06680607 22.47728853 -1.07543945 20.30151367 C-1.08751338 17.18146933 -1.09323005 14.06146962 -1.09765625 10.94140625 C-1.10281754 9.96224747 -1.10797882 8.98308868 -1.11329651 7.97425842 C-1.11337204 7.07340012 -1.11344757 6.17254181 -1.11352539 5.24438477 C-1.115746 4.44718521 -1.11796661 3.64998566 -1.12025452 2.82862854 C-1 1 -1 1 0 0 Z " fill="#6B5B96" transform="translate(186,22)"/>
<path d="M0 0 C0.07688588 4.5362667 0.04349036 8.56516595 -1 13 C-1 13.66 -1 14.32 -1 15 C-0.34 15.33 0.32 15.66 1 16 C-0.38589981 19.09162264 -1.49183541 20.49183541 -4 23 C-4.66 19.04 -5.32 15.08 -6 11 C-6.66 11 -7.32 11 -8 11 C-7.71905418 9.1858073 -7.42493567 7.37364999 -7.125 5.5625 C-6.96257812 4.55316406 -6.80015625 3.54382813 -6.6328125 2.50390625 C-6.42398438 1.67761719 -6.21515625 0.85132813 -6 0 C-3.50907189 -1.24546405 -2.58919267 -0.7767578 0 0 Z " fill="#402E79" transform="translate(189,185)"/>
<path d="M0 0 C3.63 0 7.26 0 11 0 C11 3.96 11 7.92 11 12 C7.04 12 3.08 12 -1 12 C-1 11.01 -1 10.02 -1 9 C3.455 8.505 3.455 8.505 8 8 C8.33 6.02 8.66 4.04 9 2 C6.03 2 3.06 2 0 2 C0 1.34 0 0.68 0 0 Z " fill="#433C5E" transform="translate(150,188)"/>
<path d="M0 0 C6.27 0 12.54 0 19 0 C19.66 1.32 20.32 2.64 21 4 C19.68 3.67 18.36 3.34 17 3 C17 2.34 17 1.68 17 1 C11.72 1 6.44 1 1 1 C1 8.92 1 16.84 1 25 C2.98 25 4.96 25 7 25 C7 22.36 7 19.72 7 17 C7.33 17 7.66 17 8 17 C8 19.97 8 22.94 8 26 C5.36 26 2.72 26 0 26 C0 17.42 0 8.84 0 0 Z " fill="#C8C1DA" transform="translate(162,181)"/>
<path d="M0 0 C0 0.33 0 0.66 0 1 C-1.65 1 -3.3 1 -5 1 C-5 7.27 -5 13.54 -5 20 C-5.33 20 -5.66 20 -6 20 C-6.33 15.71 -6.66 11.42 -7 7 C-7 9.64 -7 12.28 -7 15 C-7.99 15.33 -8.98 15.66 -10 16 C-10.08075665 13.70890403 -10.13907731 11.41700733 -10.1875 9.125 C-10.22230469 7.84882813 -10.25710937 6.57265625 -10.29296875 5.2578125 C-10.19628906 4.18273437 -10.09960938 3.10765625 -10 2 C-6.3558226 -0.4294516 -4.28758728 -0.16179575 0 0 Z " fill="#534884" transform="translate(88,179)"/>
<path d="M0 0 C0.66 0 1.32 0 2 0 C2 0.66 2 1.32 2 2 C1.34 2 0.68 2 0 2 C0.08378906 2.75925781 0.16757813 3.51851562 0.25390625 4.30078125 C0.35574219 5.29464844 0.45757812 6.28851563 0.5625 7.3125 C0.66691406 8.29863281 0.77132812 9.28476563 0.87890625 10.30078125 C1 13 1 13 0 16 C0.66 15.67 1.32 15.34 2 15 C1.97679688 14.30132812 1.95359375 13.60265625 1.9296875 12.8828125 C1.91164063 11.97273437 1.89359375 11.06265625 1.875 10.125 C1.85179688 9.22007812 1.82859375 8.31515625 1.8046875 7.3828125 C2 5 2 5 4 3 C4 8.61 4 14.22 4 20 C2.35 20 0.7 20 -1 20 C-1.02888514 16.85418577 -1.04675923 13.70840531 -1.0625 10.5625 C-1.07087891 9.66466797 -1.07925781 8.76683594 -1.08789062 7.84179688 C-1.09111328 6.98779297 -1.09433594 6.13378906 -1.09765625 5.25390625 C-1.10551147 4.06776733 -1.10551147 4.06776733 -1.11352539 2.85766602 C-1 1 -1 1 0 0 Z " fill="#3A2E69" transform="translate(78,179)"/>
<path d="M0 0 C0.66 0 1.32 0 2 0 C2 7.92 2 15.84 2 24 C4.64 24.33 7.28 24.66 10 25 C10 25.33 10 25.66 10 26 C3.375 26.25 3.375 26.25 0 24 C-1.25196211 18.62956143 -0.96815616 13.50388779 -0.5625 8.0625 C-0.51029297 7.28326172 -0.45808594 6.50402344 -0.40429688 5.70117188 C-0.27601936 3.80033228 -0.13892679 1.90009096 0 0 Z " fill="#3C2F6A" transform="translate(40,183)"/>
<path d="M0 0 C2.97 0.495 2.97 0.495 6 1 C6 6.94 6 12.88 6 19 C4.02 19.33 2.04 19.66 0 20 C0 18.35 0 16.7 0 15 C0.66 15 1.32 15 2 15 C2 15.66 2 16.32 2 17 C2.99 17 3.98 17 5 17 C5 12.05 5 7.1 5 2 C3.68 2 2.36 2 1 2 C1 5.3 1 8.6 1 12 C0.67 12 0.34 12 0 12 C0 8.04 0 4.08 0 0 Z " fill="#382B67" transform="translate(117,188)"/>
<path d="M0 0 C0.99 0.33 1.98 0.66 3 1 C3 1.33 3 1.66 3 2 C22.8 2.495 22.8 2.495 43 3 C43 3.33 43 3.66 43 4 C28.81 4.33 14.62 4.66 0 5 C0 3.35 0 1.7 0 0 Z " fill="#44396C" transform="translate(116,176)"/>
<path d="M0 0 C14.78132118 -0.18451025 14.78132118 -0.18451025 21 1 C21.8723412 3.99480917 22.10829766 6.63575911 22.0625 9.75 C22.05347656 10.54921875 22.04445312 11.3484375 22.03515625 12.171875 C22.02355469 12.77515625 22.01195312 13.3784375 22 14 C21.67 14 21.34 14 21 14 C20.89042969 13.37351563 20.78085938 12.74703125 20.66796875 12.1015625 C20.50941406 11.28429687 20.35085937 10.46703125 20.1875 9.625 C20.03667969 8.81289062 19.88585937 8.00078125 19.73046875 7.1640625 C19.12455058 4.64179359 19.12455058 4.64179359 16 3 C13.84077205 2.7551391 11.67086618 2.59778676 9.5 2.5 C3.33333333 2.22222222 3.33333333 2.22222222 0 0 Z " fill="#43356D" transform="translate(163,178)"/>
<path d="M0 0 C0 2.64 0 5.28 0 8 C-1.98 8 -3.96 8 -6 8 C-6 5.36 -6 2.72 -6 0 C-3 -1 -3 -1 0 0 Z " fill="#F7F2FC" transform="translate(183,198)"/>
<path d="M0 0 C4.95 0 9.9 0 15 0 C15 1.32 15 2.64 15 4 C11.37 4 7.74 4 4 4 C4 3.34 4 2.68 4 2 C2.68 1.34 1.36 0.68 0 0 Z " fill="#FBF8FD" transform="translate(144,182)"/>
<path d="M0 0 C3.3125 -0.3125 3.3125 -0.3125 7 0 C8.9375 2.5 8.9375 2.5 10 5 C9.01 4.67 8.02 4.34 7 4 C6.34 4.66 5.68 5.32 5 6 C4.01 5.34 3.02 4.68 2 4 C1.67 6.31 1.34 8.62 1 11 C0.67 11 0.34 11 0 11 C0 7.37 0 3.74 0 0 Z " fill="#EFEBF6" transform="translate(94,181)"/>
<path d="M0 0 C0.99 0 1.98 0 3 0 C3 0.66 3 1.32 3 2 C4.32 2.66 5.64 3.32 7 4 C7 6.97 7 9.94 7 13 C3.76474196 11.38237098 2.5086296 8.15682405 1 5 C0.25 2.0625 0.25 2.0625 0 0 Z " fill="#473E6C" transform="translate(101,179)"/>
<path d="M0 0 C1.65 0 3.3 0 5 0 C5 2.64 5 5.28 5 8 C3.35 8.66 1.7 9.32 0 10 C0 6.7 0 3.4 0 0 Z " fill="#3C2F69" transform="translate(52,198)"/>
<path d="M0 0 C1.65 0 3.3 0 5 0 C5 2.97 5 5.94 5 9 C1 8 1 8 0 7 C-0.04092937 4.66702567 -0.04241723 2.33294775 0 0 Z " fill="#403769" transform="translate(171,199)"/>
<path d="M0 0 C0.99 0.33 1.98 0.66 3 1 C3.19491452 2.45736087 3.38069358 3.91594593 3.5625 5.375 C3.66691406 6.18710938 3.77132812 6.99921875 3.87890625 7.8359375 C4 10 4 10 3 12 C2.01 12 1.02 12 0 12 C0 8.04 0 4.08 0 0 Z " fill="#4B406B" transform="translate(101,196)"/>
<path d="M0 0 C1.65 0 3.3 0 5 0 C5 2.31 5 4.62 5 7 C3.35 7 1.7 7 0 7 C0 4.69 0 2.38 0 0 Z " fill="#3E3565" transform="translate(52,182)"/>
<path d="M0 0 C0.66 0 1.32 0 2 0 C2.33 4.29 2.66 8.58 3 13 C2.01 13 1.02 13 0 13 C0 8.71 0 4.42 0 0 Z " fill="#43346C" transform="translate(93,160)"/>
<path d="M0 0 C1.98 0 3.96 0 6 0 C6 1.65 6 3.3 6 5 C4.02 5 2.04 5 0 5 C0 3.35 0 1.7 0 0 Z " fill="#5F5A79" transform="translate(170,187)"/>
<path d="M0 0 C0.99 0.33 1.98 0.66 3 1 C2.67 6.28 2.34 11.56 2 17 C1.67 17 1.34 17 1 17 C0.67 11.39 0.34 5.78 0 0 Z " fill="#705E98" transform="translate(93,24)"/>
<path d="M0 0 C2.46278801 2.46278801 2.99771255 4.70676982 4 8 C2.35 8 0.7 8 -1 8 C-0.67 5.36 -0.34 2.72 0 0 Z M-9 8 C-6.36 8 -3.72 8 -1 8 C-1.66 8.66 -2.32 9.32 -3 10 C-6.125 9.625 -6.125 9.625 -9 9 C-9 8.67 -9 8.34 -9 8 Z " fill="#3A2E62" transform="translate(67,200)"/>
<path d="M0 0 C2.55028983 1.27514492 2.93081711 2.40341297 4 5 C4 5.99 4 6.98 4 8 C5.32 8.33 6.64 8.66 8 9 C5.10765685 9.82638376 3.11257569 10 0 10 C0 6.7 0 3.4 0 0 Z " fill="#5C4E81" transform="translate(104,199)"/>
<path d="M0 0 C0.33 0.66 0.66 1.32 1 2 C2.65 1.67 4.3 1.34 6 1 C4.7191375 4.64553172 3.83328987 6.16671013 1 9 C0.67 6.03 0.34 3.06 0 0 Z " fill="#43346E" transform="translate(184,199)"/>
<path d="M0 0 C0.33 0 0.66 0 1 0 C1 1.98 1 3.96 1 6 C-1.31 6 -3.62 6 -6 6 C-5.67 5.01 -5.34 4.02 -5 3 C-3.35 3 -1.7 3 0 3 C0 2.01 0 1.02 0 0 Z " fill="#F6EEFD" transform="translate(114,200)"/>
<path d="M0 0 C0.33 0 0.66 0 1 0 C1 2.97 1 5.94 1 9 C1.66 9.33 2.32 9.66 3 10 C2.01 10.99 1.02 11.98 0 13 C0 12.34 0 11.68 0 11 C-0.66 11 -1.32 11 -2 11 C-1.34 7.37 -0.68 3.74 0 0 Z " fill="#72678D" transform="translate(183,185)"/>
<path d="M0 0 C0.99 0 1.98 0 3 0 C2.01 2.97 1.02 5.94 0 9 C-0.66 8.67 -1.32 8.34 -2 8 C-1.125 1.125 -1.125 1.125 0 0 Z " fill="#735EA4" transform="translate(135,17)"/>
<path d="M0 0 C0.99 0 1.98 0 3 0 C3 1.32 3 2.64 3 4 C3.66 4 4.32 4 5 4 C4.67 4.99 4.34 5.98 4 7 C2 5.75 2 5.75 0 4 C0 2.68 0 1.36 0 0 Z " fill="#FDFCFB" transform="translate(177,198)"/>
<path d="M0 0 C0.99 0 1.98 0 3 0 C3.33 2.64 3.66 5.28 4 8 C2 6.25 2 6.25 0 4 C0 2.68 0 1.36 0 0 Z " fill="#594D80" transform="translate(101,179)"/>
</svg>
