<?xml version="1.0" encoding="UTF-8"?>
<svg version="1.1" xmlns="http://www.w3.org/2000/svg" width="387" height="130">
<path d="M0 0 C127.71 0 255.42 0 387 0 C387 42.9 387 85.8 387 130 C259.29 130 131.58 130 0 130 C0 87.1 0 44.2 0 0 Z " fill="#261746" transform="translate(0,0)"/>
<path d="M0 0 C127.71 0 255.42 0 387 0 C387 11.88 387 23.76 387 36 C259.29 36 131.58 36 0 36 C0 24.12 0 12.24 0 0 Z " fill="#595267" transform="translate(0,0)"/>
<path d="M0 0 C127.71 0 255.42 0 387 0 C387 10.56 387 21.12 387 32 C259.29 32 131.58 32 0 32 C0 21.44 0 10.88 0 0 Z " fill="#271749" transform="translate(0,98)"/>
<path d="M0 0 C127.71 0 255.42 0 387 0 C387 8.91 387 17.82 387 27 C259.29 27 131.58 27 0 27 C0 18.09 0 9.18 0 0 Z " fill="#3F3259" transform="translate(0,71)"/>
<path d="M0 0 C127.71 0 255.42 0 387 0 C387 5.94 387 11.88 387 18 C259.29 18 131.58 18 0 18 C0 12.06 0 6.12 0 0 Z " fill="#574F67" transform="translate(0,0)"/>
<path d="M0 0 C127.71 0 255.42 0 387 0 C387 3.96 387 7.92 387 12 C259.29 12 131.58 12 0 12 C0 8.04 0 4.08 0 0 Z " fill="#2B1D48" transform="translate(0,59)"/>
<path d="M0 0 C127.71 0 255.42 0 387 0 C387 2.31 387 4.62 387 7 C259.29 7 131.58 7 0 7 C0 4.69 0 2.38 0 0 Z " fill="#483966" transform="translate(0,83)"/>
<path d="M0 0 C1.5088925 -0.00115347 3.01778472 -0.00274251 4.52667636 -0.00472724 C8.65615853 -0.00888965 12.7856175 -0.00684383 16.91509974 -0.00374103 C21.37533703 -0.0014745 25.83557038 -0.00497282 30.29580688 -0.00772095 C39.02762587 -0.01216453 47.75943624 -0.01120835 56.49125556 -0.00830831 C63.59048139 -0.0060483 70.68970481 -0.00574435 77.78893089 -0.00683212 C79.30557809 -0.00706197 79.30557809 -0.00706197 80.85286462 -0.00729647 C82.90704404 -0.0076162 84.96122346 -0.00794041 87.01540288 -0.00826906 C106.2727476 -0.01111983 125.53008756 -0.00784336 144.7874315 -0.00246869 C161.29853155 0.00199695 177.80962457 0.00122461 194.32072449 -0.00338745 C213.50534849 -0.00874382 232.68996831 -0.01084303 251.87459296 -0.00777519 C253.92205822 -0.00745665 255.96952349 -0.00714228 258.01698875 -0.00683212 C259.02430968 -0.00667785 260.0316306 -0.00652357 261.0694764 -0.00636462 C268.15575275 -0.00550251 275.24202644 -0.00695581 282.32830238 -0.00931168 C290.97068139 -0.01212176 299.61305133 -0.01134601 308.25542931 -0.00603093 C312.66193837 -0.00340992 317.06843232 -0.00236164 321.47494125 -0.00568008 C325.51469385 -0.00867621 329.55441744 -0.00699536 333.59416743 -0.00170253 C335.04968746 -0.00059241 336.50520998 -0.00113804 337.96072838 -0.00357832 C346.39671931 -0.01662845 354.70943327 0.26546697 363.10368347 1.12698364 C363.10368347 3.10698364 363.10368347 5.08698364 363.10368347 7.12698364 C235.39368347 7.12698364 107.68368347 7.12698364 -23.89631653 7.12698364 C-23.89631653 5.14698364 -23.89631653 3.16698364 -23.89631653 1.12698364 C-15.92197364 0.02754262 -8.03854741 -0.01340973 0 0 Z " fill="#5A5368" transform="translate(23.896316528320313,16.873016357421875)"/>
<path d="M0 0 C127.71 0 255.42 0 387 0 C387 1.98 387 3.96 387 6 C259.29 6 131.58 6 0 6 C0 4.02 0 2.04 0 0 Z " fill="#494356" transform="translate(0,12)"/>
<path d="M0 0 C127.71 0 255.42 0 387 0 C387 1.65 387 3.3 387 5 C259.29 5 131.58 5 0 5 C0 3.35 0 1.7 0 0 Z " fill="#403A4E" transform="translate(0,0)"/>
<path d="M0 0 C127.71 0 255.42 0 387 0 C387 1.65 387 3.3 387 5 C259.29 5 131.58 5 0 5 C0 3.35 0 1.7 0 0 Z " fill="#675E79" transform="translate(0,31)"/>
<path d="M0 0 C127.71 0 255.42 0 387 0 C387 0.99 387 1.98 387 3 C353.15101849 3.15308123 319.30201202 3.29804137 285.45295457 3.4332476 C281.38489593 3.44950342 277.31683754 3.4658213 273.2487793 3.48217773 C272.03482192 3.48705712 272.03482192 3.48705712 270.79634015 3.49203508 C259.54948525 3.53736823 248.30264911 3.58600131 237.05582048 3.6374263 C217.60365105 3.72636565 198.15146451 3.80845217 178.69921875 3.87890625 C177.93569287 3.88168644 177.17216698 3.88446663 176.38550395 3.88733107 C117.58318012 4.10008533 58.79832642 3.78220181 0 3 C0 2.01 0 1.02 0 0 Z " fill="#3B3745" transform="translate(0,28)"/>
<path d="M0 0 C127.71 0 255.42 0 387 0 C387 0.99 387 1.98 387 3 C259.29 3 131.58 3 0 3 C0 2.01 0 1.02 0 0 Z " fill="#29223A" transform="translate(0,80)"/>
<path d="M0 0 C127.71 0 255.42 0 387 0 C387 0.99 387 1.98 387 3 C259.29 3 131.58 3 0 3 C0 2.01 0 1.02 0 0 Z " fill="#574876" transform="translate(0,95)"/>
<path d="M0 0 C1.56694221 -0.00043652 3.13388435 -0.00131291 4.70082611 -0.00258917 C8.99029626 -0.00481828 13.27974131 -0.00083455 17.56920826 0.0041889 C22.20099518 0.00851598 26.83278073 0.00704537 31.46456909 0.00628662 C39.48404843 0.00576282 47.50351962 0.00889463 55.5229969 0.01452446 C67.11774936 0.02265889 78.71249788 0.02525667 90.30725288 0.02651245 C109.11995284 0.02869991 127.93264846 0.03535172 146.74534607 0.04481506 C165.01780679 0.05399708 183.29026632 0.06107406 201.56272888 0.06532288 C203.25280861 0.06571696 203.25280861 0.06571696 204.97703136 0.06611901 C210.62957457 0.06742407 216.2821178 0.06868777 221.93466103 0.06993091 C268.81223288 0.080294 315.68979999 0.09790401 362.56736755 0.12025452 C362.56736755 1.11025452 362.56736755 2.10025452 362.56736755 3.12025452 C234.85736755 3.12025452 107.14736755 3.12025452 -24.43263245 3.12025452 C-24.43263245 2.46025452 -24.43263245 1.80025452 -24.43263245 1.12025452 C-16.28838921 -0.01422578 -8.20445825 -0.01703129 0 0 Z " fill="#7B728C" transform="translate(24.432632446289063,8.879745483398438)"/>
<path d="M0 0 C1.5088925 -0.00115347 3.01778472 -0.00274251 4.52667636 -0.00472724 C8.65615853 -0.00888965 12.7856175 -0.00684383 16.91509974 -0.00374103 C21.37533703 -0.0014745 25.83557038 -0.00497282 30.29580688 -0.00772095 C39.02762587 -0.01216453 47.75943624 -0.01120835 56.49125556 -0.00830831 C63.59048139 -0.0060483 70.68970481 -0.00574435 77.78893089 -0.00683212 C79.30557809 -0.00706197 79.30557809 -0.00706197 80.85286462 -0.00729647 C82.90704404 -0.0076162 84.96122346 -0.00794041 87.01540288 -0.00826906 C106.2727476 -0.01111983 125.53008756 -0.00784336 144.7874315 -0.00246869 C161.29853155 0.00199695 177.80962457 0.00122461 194.32072449 -0.00338745 C213.50534849 -0.00874382 232.68996831 -0.01084303 251.87459296 -0.00777519 C253.92205822 -0.00745665 255.96952349 -0.00714228 258.01698875 -0.00683212 C259.02430968 -0.00667785 260.0316306 -0.00652357 261.0694764 -0.00636462 C268.15575275 -0.00550251 275.24202644 -0.00695581 282.32830238 -0.00931168 C290.97068139 -0.01212176 299.61305133 -0.01134601 308.25542931 -0.00603093 C312.66193837 -0.00340992 317.06843232 -0.00236164 321.47494125 -0.00568008 C325.51469385 -0.00867621 329.55441744 -0.00699536 333.59416743 -0.00170253 C335.04968746 -0.00059241 336.50520998 -0.00113804 337.96072838 -0.00357832 C346.39671931 -0.01662845 354.70943327 0.26546697 363.10368347 1.12698364 C363.10368347 1.78698364 363.10368347 2.44698364 363.10368347 3.12698364 C235.39368347 3.12698364 107.68368347 3.12698364 -23.89631653 3.12698364 C-23.89631653 2.46698364 -23.89631653 1.80698364 -23.89631653 1.12698364 C-15.92197364 0.02754262 -8.03854741 -0.01340973 0 0 Z " fill="#7D768B" transform="translate(23.896316528320313,16.873016357421875)"/>
<path d="M0 0 C5.44378582 0.06408748 10.88763706 0.12215321 16.33148193 0.18096924 C26.73193739 0.29410426 37.13231636 0.41295473 47.53265381 0.53643799 C47.53265381 1.19643799 47.53265381 1.85643799 47.53265381 2.53643799 C-80.17734619 2.53643799 -207.88734619 2.53643799 -339.46734619 2.53643799 C-339.46734619 1.87643799 -339.46734619 1.21643799 -339.46734619 0.53643799 C-315.18846181 0.40309725 -290.90956312 0.27266641 -266.63064671 0.14528656 C-255.3458186 0.08601952 -244.06099611 0.0259418 -232.77618408 -0.03631592 C-75.32553758 -0.90322031 -75.32553758 -0.90322031 0 0 Z " fill="#3C2F56" transform="translate(339.46734619140625,87.46356201171875)"/>
<path d="M0 0 C60.72 0 121.44 0 184 0 C184 0.33 184 0.66 184 1 C185.65 1.33 187.3 1.66 189 2 C189 2.33 189 2.66 189 3 C126.63 3 64.26 3 0 3 C0 2.01 0 1.02 0 0 Z " fill="#1F182E" transform="translate(0,76)"/>
<path d="M0 0 C8.25 0 16.5 0 25 0 C25 0.66 25 1.32 25 2 C101.23 2 177.46 2 256 2 C256 2.33 256 2.66 256 3 C171.52 3 87.04 3 0 3 C0 2.01 0 1.02 0 0 Z " fill="#65499F" transform="translate(0,61)"/>
<path d="M0 0 C8.25 0 16.5 0 25 0 C25 0.66 25 1.32 25 2 C12.625 2.495 12.625 2.495 0 3 C0 2.01 0 1.02 0 0 Z " fill="#5B5070" transform="translate(0,61)"/>
</svg>
