<?xml version="1.0" standalone="no"?>
<!DOCTYPE svg PUBLIC "-//W3C//DTD SVG 20010904//EN"
 "http://www.w3.org/TR/2001/REC-SVG-20010904/DTD/svg10.dtd">
<svg version="1.0" xmlns="http://www.w3.org/2000/svg"
 width="423.000000pt" height="119.000000pt" viewBox="0 0 423.000000 119.000000"
 preserveAspectRatio="xMidYMid meet">

<g transform="translate(0.000000,119.000000) scale(0.100000,-0.100000)"
fill="#000000" stroke="none">
<path d="M572 1180 c-32 -7 -92 -55 -92 -72 0 -5 12 1 28 12 15 11 51 28 80
39 38 13 49 20 37 25 -9 3 -17 6 -18 5 -1 -1 -17 -5 -35 -9z"/>
<path d="M443 1165 c-29 -8 -74 -25 -100 -39 -48 -24 -157 -105 -150 -112 1
-2 31 8 64 21 34 14 88 28 122 31 54 6 61 10 71 35 7 16 23 40 36 54 26 29 27
28 -43 10z"/>
<path d="M632 1145 c-55 -15 -149 -61 -102 -50 105 25 281 13 370 -26 l44 -20
-24 26 c-62 66 -190 98 -288 70z"/>
<path d="M760 1065 c0 -13 -3 -30 -6 -38 -6 -18 34 -32 116 -42 30 -4 70 -10
88 -15 l33 -9 -18 32 c-20 33 -86 66 -171 85 -40 9 -42 9 -42 -13z"/>
<path d="M962 1054 c25 -29 56 -102 73 -176 9 -41 30 -89 57 -130 24 -36 48
-73 54 -84 11 -17 13 -15 19 19 18 95 -74 278 -182 361 -21 16 -30 21 -21 10z"/>
<path d="M393 998 c-33 -37 -82 -103 -107 -145 -4 -7 34 7 85 32 51 25 99 45
107 45 8 0 12 6 9 13 -31 77 -40 97 -47 97 -4 0 -25 -19 -47 -42z"/>
<path d="M3170 960 c0 -28 3 -30 35 -30 32 0 35 2 35 30 0 28 -3 30 -35 30
-32 0 -35 -2 -35 -30z"/>
<path d="M4130 832 c0 -181 7 -202 66 -202 29 0 34 3 34 24 0 15 -7 26 -20 29
-19 5 -20 14 -20 156 l0 151 -30 0 -30 0 0 -158z"/>
<path d="M1370 805 l0 -175 35 0 35 0 0 175 0 175 -35 0 -35 0 0 -175z"/>
<path d="M1830 960 c-19 -4 -26 -13 -28 -38 -2 -24 -8 -32 -23 -32 -14 0 -19
-7 -19 -25 0 -18 5 -25 20 -25 18 0 20 -7 20 -75 0 -90 13 -123 54 -133 48
-13 76 -4 76 24 0 20 -5 24 -30 24 -35 0 -43 19 -38 101 3 53 4 54 36 57 26 3
32 7 32 28 0 21 -5 24 -34 24 -33 0 -35 2 -38 38 -3 35 -5 38 -28 32z"/>
<path d="M3030 960 c-19 -4 -26 -13 -28 -38 -3 -26 -8 -32 -28 -32 -19 0 -24
-5 -24 -25 0 -20 5 -25 25 -25 25 0 25 -2 25 -77 0 -43 6 -89 13 -102 23 -46
117 -50 117 -5 0 18 -6 23 -32 26 l-33 3 0 75 0 75 33 3 c26 3 32 7 32 28 0
21 -5 24 -34 24 -33 0 -35 2 -38 38 -3 35 -5 38 -28 32z"/>
<path d="M620 870 c-25 -16 -49 -31 -54 -33 -5 -2 5 -39 21 -83 34 -88 22 -82
137 -68 l58 7 -6 51 c-5 44 -12 57 -58 103 l-53 53 -45 -30z"/>
<path d="M1500 760 l0 -130 29 0 28 0 5 85 c5 88 22 125 58 125 32 0 40 -22
40 -117 l0 -93 36 0 36 0 -4 104 c-3 94 -6 108 -27 130 -29 31 -94 36 -123 9
-17 -15 -18 -15 -18 0 0 12 -9 17 -30 17 l-30 0 0 -130z"/>
<path d="M2019 875 c-15 -8 -34 -30 -43 -49 -58 -122 52 -249 164 -191 26 13
50 42 50 59 0 13 -58 5 -70 -9 -17 -21 -56 -19 -80 5 -41 41 -28 50 70 50 90
0 90 0 90 25 0 95 -98 155 -181 110z m97 -50 c14 -14 22 -30 19 -35 -3 -6 -31
-10 -61 -10 -62 0 -71 15 -28 49 34 27 40 26 70 -4z"/>
<path d="M2240 760 l0 -130 35 0 35 0 0 83 c0 93 13 117 63 117 23 0 27 4 27
30 0 27 -3 30 -30 30 -17 0 -39 -9 -50 -20 l-20 -20 0 20 c0 16 -7 20 -30 20
l-30 0 0 -130z"/>
<path d="M2430 760 l0 -130 30 0 30 0 0 75 c0 109 28 153 80 125 18 -10 20
-20 20 -105 l0 -95 30 0 30 0 0 104 c0 89 -3 107 -21 130 -16 20 -29 26 -61
26 -24 0 -49 -7 -60 -16 -16 -16 -18 -16 -24 0 -3 9 -17 16 -30 16 l-24 0 0
-130z"/>
<path d="M2735 865 c-14 -13 -25 -31 -25 -40 0 -22 46 -19 70 5 33 33 80 20
80 -21 0 -13 -13 -18 -54 -24 -70 -8 -106 -35 -106 -79 0 -68 68 -105 134 -73
27 13 35 13 51 1 27 -20 44 -17 54 9 6 15 4 24 -5 30 -10 6 -14 31 -14 88 0
72 -3 82 -25 104 -20 21 -34 25 -80 25 -46 0 -60 -4 -80 -25z m125 -144 c0
-43 -80 -68 -100 -32 -15 28 12 51 61 51 32 0 39 -3 39 -19z"/>
<path d="M3178 760 l3 -130 30 0 29 0 0 130 0 130 -32 0 -33 0 3 -130z"/>
<path d="M3355 881 c-40 -17 -59 -50 -63 -110 -5 -74 15 -117 66 -138 67 -28
130 -2 158 64 41 95 -15 194 -108 192 -18 0 -42 -4 -53 -8z m82 -49 c37 -23
39 -114 3 -147 -41 -37 -90 6 -90 80 0 54 49 91 87 67z"/>
<path d="M3580 760 l0 -130 30 0 30 0 0 85 c0 72 3 88 20 105 24 24 43 25 64
4 12 -12 16 -37 16 -105 l0 -89 31 0 31 0 -4 111 c-3 102 -5 112 -27 130 -28
23 -88 25 -119 3 -20 -14 -22 -14 -22 0 0 10 -9 16 -25 16 l-25 0 0 -130z"/>
<path d="M3886 869 c-14 -11 -26 -29 -26 -40 0 -27 51 -26 68 1 22 35 82 20
82 -21 0 -13 -13 -18 -57 -24 -74 -9 -81 -12 -99 -46 -41 -81 66 -156 140 -98
14 11 26 16 26 10 0 -15 36 -32 54 -25 18 7 21 34 7 49 -5 6 -11 48 -13 93 -3
74 -6 86 -27 103 -33 27 -119 26 -155 -2z m124 -144 c0 -26 -39 -56 -67 -53
-34 4 -51 31 -34 52 18 22 101 22 101 1z"/>
<path d="M174 840 c3 -18 6 -39 6 -46 0 -20 24 -17 45 6 10 11 14 20 8 20 -6
0 -23 12 -38 26 l-28 26 7 -32z"/>
<path d="M463 811 c-46 -12 -63 -21 -67 -36 -7 -24 -8 -205 -2 -205 3 0 40 17
84 39 44 21 90 41 101 44 l21 5 -18 49 c-11 26 -25 65 -31 86 -7 20 -16 36
-19 35 -4 0 -35 -8 -69 -17z"/>
<path d="M1000 810 c0 -5 -26 -38 -58 -72 l-58 -63 48 -92 c26 -51 50 -89 52
-84 22 35 53 263 41 300 -6 21 -25 29 -25 11z"/>
<path d="M262 797 c-6 -7 -20 -33 -30 -57 l-19 -45 38 -75 c56 -113 58 -115
91 -87 25 21 26 27 31 145 l5 122 -38 0 c-21 0 -45 2 -53 5 -7 3 -19 0 -25 -8z"/>
<path d="M1174 651 c-8 -29 -7 -55 2 -98 l12 -58 1 98 c1 53 0 97 -2 97 -2 0
-8 -18 -13 -39z"/>
<path d="M834 642 c-20 -15 -22 -29 -26 -134 l-4 -118 45 0 c25 0 55 -3 67 -6
17 -4 23 2 36 34 15 38 14 42 -12 103 -31 72 -69 139 -78 139 -4 0 -17 -8 -28
-18z"/>
<path d="M11 577 c-1 -71 26 -179 58 -228 16 -25 46 -54 70 -68 l43 -23 -7 23
c-3 13 -9 32 -12 43 -3 10 -21 39 -39 63 -53 69 -82 124 -98 183 l-15 55 0
-48z"/>
<path d="M725 578 c-33 -15 -60 -31 -60 -35 0 -7 47 -153 52 -161 1 -2 15 -1
32 3 37 8 44 34 39 146 l-3 76 -60 -29z"/>
<path d="M40 588 c0 -19 55 -132 82 -169 l23 -31 6 64 c4 49 2 65 -9 73 -8 6
-34 25 -58 43 -26 19 -44 28 -44 20z"/>
<path d="M1135 561 c-3 -11 -34 -49 -68 -84 l-62 -64 9 -47 c5 -25 12 -46 16
-46 27 0 130 176 130 222 0 33 -16 45 -25 19z"/>
<path d="M1372 393 l3 -178 33 -3 32 -3 0 80 0 81 75 0 75 0 0 -80 0 -80 30 0
30 0 0 180 0 180 -30 0 -30 0 0 -70 0 -70 -75 0 -75 0 0 70 0 70 -35 0 -35 0
2 -177z"/>
<path d="M593 530 l-21 -9 31 -83 c17 -46 31 -84 32 -86 1 -1 16 3 32 9 l31
10 -27 82 c-28 84 -38 93 -78 77z"/>
<path d="M457 500 c-27 -5 -51 -11 -54 -13 -2 -3 -2 -30 2 -60 6 -48 13 -61
56 -106 l49 -52 47 36 c25 19 49 35 53 35 4 0 -7 38 -24 85 -34 94 -30 91
-129 75z"/>
<path d="M330 483 c0 -5 13 -23 28 -41 l28 -33 -4 40 c-4 35 -7 41 -28 41 -13
0 -24 -3 -24 -7z"/>
<path d="M1773 465 c-64 -28 -91 -114 -59 -190 29 -68 130 -88 188 -36 27 24
32 36 36 88 5 73 -13 114 -62 137 -41 19 -61 20 -103 1z m73 -43 c54 -36 39
-162 -19 -162 -31 0 -44 11 -57 45 -26 67 28 150 76 117z"/>
<path d="M2289 451 c-16 -16 -29 -38 -29 -49 0 -35 37 -70 83 -77 67 -10 77
-15 77 -36 0 -41 -91 -44 -106 -4 -4 8 -18 15 -34 15 -23 0 -27 -3 -23 -20 10
-39 60 -70 112 -70 73 0 119 43 106 101 -8 34 -39 53 -103 64 -49 8 -65 31
-37 51 26 19 42 17 65 -6 20 -20 70 -28 70 -11 0 41 -47 71 -110 71 -33 0 -48
-6 -71 -29z"/>
<path d="M2590 469 c-59 -24 -87 -81 -75 -155 9 -66 52 -104 115 -104 38 0 55
6 79 26 17 14 31 32 31 40 0 20 -56 18 -64 -2 -10 -26 -78 -15 -93 16 l-12 25
89 3 90 3 0 30 c0 47 -28 96 -65 113 -37 18 -59 19 -95 5z m84 -61 c9 -12 16
-26 16 -30 0 -5 -27 -8 -60 -8 -33 0 -60 3 -60 8 0 4 7 18 16 30 20 30 68 30
88 0z"/>
<path d="M1990 365 c0 -99 2 -107 25 -130 28 -29 95 -35 115 -10 16 19 30 19
30 0 0 -9 9 -15 25 -15 l25 0 0 130 0 130 -29 0 -29 0 -4 -90 c-1 -50 -8 -94
-15 -101 -16 -16 -63 -15 -74 2 -5 8 -9 53 -9 102 l0 87 -30 0 -30 0 0 -105z"/>
<path d="M708 353 c-62 -16 -71 -31 -44 -68 13 -19 16 -18 82 8 38 15 87 38
109 52 l40 24 -65 0 c-36 -1 -91 -8 -122 -16z"/>
<path d="M911 302 c-19 -31 -51 -74 -70 -96 -41 -45 -27 -44 54 5 119 72 137
102 78 132 -28 15 -28 15 -62 -41z"/>
<path d="M191 287 c5 -17 9 -33 9 -34 0 -5 82 -24 86 -20 3 2 -20 23 -50 45
l-54 41 9 -32z"/>
<path d="M210 220 c0 -13 59 -96 86 -122 30 -28 74 -42 161 -52 l51 -6 -30 55
c-22 41 -41 61 -71 77 -43 22 -197 60 -197 48z"/>
<path d="M480 195 c-8 -10 -9 -19 -4 -24 14 -14 105 -39 159 -46 l50 -6 -30
17 c-16 9 -46 30 -66 45 -41 32 -89 38 -109 14z"/>
<path d="M985 164 c-44 -27 -116 -49 -187 -59 -27 -3 -48 -10 -48 -14 0 -5 9
-20 21 -34 l20 -27 77 40 c42 21 97 57 122 79 52 46 51 49 -5 15z"/>
<path d="M573 93 c-64 -4 -73 -9 -51 -31 25 -25 208 -3 208 24 0 14 -12 15
-157 7z"/>
</g>
</svg>
