<?xml version="1.0" standalone="no"?>
<!DOCTYPE svg PUBLIC "-//W3C//DTD SVG 20010904//EN"
 "http://www.w3.org/TR/2001/REC-SVG-20010904/DTD/svg10.dtd">
<svg version="1.0" xmlns="http://www.w3.org/2000/svg"
 width="551.000000pt" height="80.000000pt" viewBox="0 0 551.000000 80.000000"
 preserveAspectRatio="xMidYMid meet">

<g transform="translate(0.000000,80.000000) scale(0.100000,-0.100000)"
fill="#000000" stroke="none">
<path d="M4790 585 l0 -145 24 0 c22 0 25 5 28 43 l3 42 25 -42 c21 -36 30
-43 58 -43 17 0 32 3 32 6 0 4 -16 28 -35 54 l-35 47 35 44 35 44 -33 3 c-22
3 -35 -2 -44 -15 -42 -64 -42 -64 -43 25 0 81 0 82 -25 82 l-25 0 0 -145z"/>
<path d="M3370 605 l0 -105 -105 0 c-88 0 -105 -3 -105 -15 0 -13 17 -15 118
-13 l117 3 3 118 c2 100 0 117 -13 117 -12 0 -15 -17 -15 -105z"/>
<path d="M3530 576 l0 -136 25 0 c24 0 24 2 27 88 l3 87 48 -87 c46 -84 50
-88 83 -88 l34 0 0 135 0 135 -25 0 c-25 0 -25 -1 -25 -87 l0 -88 -49 85 c-45
80 -50 85 -85 88 l-36 3 0 -135z"/>
<path d="M4255 680 c20 -38 20 -38 -11 -42 -23 -3 -29 -11 -44 -58 l-17 -55
-18 58 c-16 50 -22 57 -45 57 -23 0 -28 -6 -39 -50 -7 -27 -16 -52 -20 -55 -5
-2 -13 20 -20 50 -12 51 -14 55 -42 55 -16 0 -29 -3 -29 -7 0 -5 13 -48 28
-98 27 -85 29 -90 56 -90 26 0 30 5 46 55 l17 55 18 -58 c18 -55 21 -58 49
-55 28 3 31 8 57 91 15 49 30 91 32 94 13 12 57 -99 57 -142 0 -41 2 -45 25
-45 23 0 25 4 25 45 0 33 11 67 40 125 22 44 40 84 40 90 0 5 -11 10 -25 10
-20 0 -30 -11 -53 -55 l-28 -56 -27 56 c-24 49 -30 55 -57 55 l-31 0 16 -30z"/>
<path d="M237 680 c-224 -57 -308 -326 -154 -497 59 -65 117 -88 222 -88 107
0 146 17 216 92 140 150 85 398 -105 477 -50 21 -130 28 -179 16z m153 -21
c62 -19 131 -78 163 -139 37 -73 44 -141 22 -215 -24 -83 -108 -166 -190 -190
-130 -38 -263 15 -332 132 -35 61 -44 172 -18 240 24 62 88 131 150 159 56 27
142 32 205 13z"/>
<path d="M270 642 c0 -13 8 -18 25 -18 17 0 25 5 25 18 0 21 -16 24 -23 6 -4
-10 -6 -10 -6 0 -1 19 -21 14 -21 -6z"/>
<path d="M330 638 c0 -12 3 -18 7 -14 11 10 12 36 2 36 -5 0 -9 -10 -9 -22z"/>
<path d="M360 631 c0 -10 8 -21 18 -23 15 -4 18 -1 14 18 -5 28 -32 32 -32 5z"/>
<path d="M230 625 c0 -8 4 -15 10 -15 5 0 7 7 4 15 -4 8 -8 15 -10 15 -2 0 -4
-7 -4 -15z"/>
<path d="M407 616 c6 -28 5 -29 -23 -20 -16 5 -60 9 -97 9 -49 0 -71 4 -77 15
-6 9 -10 10 -10 3 0 -6 5 -15 11 -19 11 -7 -69 -61 -84 -56 -5 1 -6 -1 -3 -6
3 -5 -6 -31 -20 -58 -21 -41 -25 -59 -21 -109 2 -33 8 -68 12 -78 4 -10 4 -17
-1 -16 -19 3 -34 -1 -34 -11 0 -5 9 -6 22 -1 17 6 27 1 51 -26 80 -91 207
-104 306 -33 31 23 40 26 45 14 3 -8 11 -14 18 -13 10 0 10 2 1 6 -7 2 -13 9
-13 15 0 6 7 8 14 5 10 -4 13 -1 9 9 -3 9 1 14 12 14 9 0 13 5 10 11 -5 7 -16
2 -32 -13 -14 -13 -24 -18 -21 -13 2 6 12 28 22 50 42 89 16 201 -61 264 -21
17 -34 31 -30 31 12 0 51 -22 58 -32 3 -5 9 -2 12 7 4 9 3 13 -3 10 -6 -3 -10
1 -10 9 0 10 -8 15 -22 13 -17 -1 -22 3 -20 17 2 10 -1 15 -6 12 -6 -3 -13 0
-16 6 -3 7 -2 0 1 -16z m-4 -49 l42 -22 -67 -3 c-37 -2 -100 -2 -140 0 l-73 3
28 19 c60 41 138 42 210 3z m-226 -282 c14 -24 71 -78 98 -93 19 -11 19 -11
-3 -12 -36 0 -97 36 -131 77 -59 72 -64 158 -13 243 l27 45 5 -120 c3 -66 10
-129 17 -140z m253 190 l0 -55 -130 0 -130 0 0 48 c0 27 3 52 7 55 3 4 62 7
130 7 l123 0 0 -55z m58 4 c62 -115 -11 -271 -139 -295 l-34 -7 43 32 c72 53
82 79 82 209 0 127 8 136 48 61z m-193 -79 c4 -6 -10 -10 -34 -10 -23 0 -41
-3 -42 -7 -1 -11 -1 -84 0 -105 1 -14 10 -18 41 -18 38 0 40 -2 40 -30 0 -16
-5 -30 -11 -30 -7 0 -33 21 -59 48 -39 38 -49 56 -55 94 -4 26 -4 51 0 57 8
14 112 14 120 1z m135 -38 c0 -56 -36 -115 -89 -145 l-31 -18 0 30 c0 29 3 31
34 31 35 0 50 17 40 45 -4 8 -1 15 6 15 9 0 9 4 -1 17 -11 12 -11 17 -2 20 23
8 -13 33 -46 33 -17 0 -31 5 -31 10 0 6 27 10 60 10 l60 0 0 -48z m-132 -34
c-3 -52 -4 -53 -35 -56 l-33 -3 0 55 0 56 36 0 35 0 -3 -52z m72 -3 c0 -54 0
-55 -30 -55 -30 0 -30 1 -30 55 0 54 0 55 30 55 30 0 30 -1 30 -55z"/>
<path d="M200 487 c0 -34 15 -57 36 -57 22 0 44 31 44 61 0 27 -2 29 -40 29
-39 0 -40 -1 -40 -33z m58 6 c-10 -2 -26 -2 -35 0 -10 3 -2 5 17 5 19 0 27 -2
18 -5z m12 -23 c0 -17 -36 -30 -48 -18 -19 19 -14 28 18 28 17 0 30 -4 30 -10z"/>
<path d="M330 487 c0 -34 15 -57 36 -57 22 0 44 31 44 61 0 27 -2 29 -40 29
-39 0 -40 -1 -40 -33z m56 -18 c9 -16 -18 -30 -33 -17 -7 6 -10 14 -7 19 7 13
31 11 40 -2z"/>
<path d="M258 313 c7 -3 16 -2 19 1 4 3 -2 6 -13 5 -11 0 -14 -3 -6 -6z"/>
<path d="M258 293 c7 -3 16 -2 19 1 4 3 -2 6 -13 5 -11 0 -14 -3 -6 -6z"/>
<path d="M328 313 c6 -2 18 -2 25 0 6 3 1 5 -13 5 -14 0 -19 -2 -12 -5z"/>
<path d="M328 293 c7 -3 16 -2 19 1 4 3 -2 6 -13 5 -11 0 -14 -3 -6 -6z"/>
<path d="M170 617 c0 -9 -3 -16 -7 -16 -22 4 -35 -3 -30 -15 4 -10 0 -12 -15
-8 -17 4 -20 2 -15 -11 4 -11 1 -17 -8 -17 -8 0 -15 -7 -15 -15 0 -8 7 -15 15
-15 8 0 15 5 15 11 0 15 47 59 54 51 3 -3 6 0 6 7 0 7 4 10 9 7 5 -4 8 1 7 9
-3 21 -16 31 -16 12z"/>
<path d="M500 523 c0 -14 2 -15 9 -4 5 8 14 10 21 6 9 -5 11 -4 6 3 -11 18
-36 14 -36 -5z"/>
<path d="M60 508 c0 -25 16 -30 31 -11 12 14 12 16 0 9 -8 -5 -17 -3 -22 5 -7
11 -9 11 -9 -3z"/>
<path d="M516 502 c-8 -13 11 -35 23 -28 16 10 14 36 -3 36 -8 0 -17 -4 -20
-8z"/>
<path d="M532 444 c2 -16 7 -20 22 -16 15 4 17 7 6 10 -8 3 -18 10 -22 16 -4
6 -6 1 -6 -10z"/>
<path d="M60 421 c0 -5 -8 -12 -17 -14 -14 -4 -12 -5 5 -6 13 -1 22 5 22 14 0
8 -2 15 -5 15 -3 0 -5 -4 -5 -9z"/>
<path d="M544 403 c10 -11 37 -12 30 -2 -3 5 -12 9 -21 9 -9 0 -13 -3 -9 -7z"/>
<path d="M30 379 c0 -5 9 -9 20 -9 11 0 20 4 20 8 0 4 -9 8 -20 9 -11 1 -20
-2 -20 -8z"/>
<path d="M543 365 c4 -8 2 -17 -3 -20 -16 -10 -11 -22 10 -28 21 -6 28 9 8 16
-10 3 -10 7 -1 19 13 15 8 28 -10 28 -5 0 -7 -7 -4 -15z"/>
<path d="M39 351 c11 -7 11 -9 0 -14 -11 -4 -11 -6 -1 -6 7 -1 10 -6 6 -12 -4
-7 -1 -10 6 -7 7 2 15 14 17 26 2 17 -2 22 -20 22 -16 0 -18 -3 -8 -9z"/>
<path d="M115 211 c-6 -11 9 -23 19 -14 9 9 7 23 -3 23 -6 0 -12 -4 -16 -9z"/>
<path d="M139 184 c-9 -12 -10 -15 -1 -10 7 4 12 2 12 -5 0 -8 5 -7 17 2 15
12 16 12 10 -3 -3 -10 -1 -20 6 -24 7 -4 9 -4 5 1 -4 4 -3 14 3 22 11 12 7 15
-17 12 -4 0 -10 4 -14 11 -5 7 -11 6 -21 -6z"/>
<path d="M440 175 c7 -8 16 -12 21 -9 13 8 1 24 -18 24 -13 0 -13 -3 -3 -15z"/>
<path d="M410 173 c0 -4 5 -15 10 -23 8 -13 10 -13 10 2 0 9 -4 20 -10 23 -5
3 -10 3 -10 -2z"/>
<path d="M206 155 c-9 -26 -7 -32 5 -12 6 10 9 21 6 23 -2 3 -7 -2 -11 -11z"/>
<path d="M390 160 c0 -5 -5 -9 -12 -7 -6 1 -13 -6 -14 -16 -1 -13 -1 -13 3 -2
4 13 8 14 19 4 11 -9 14 -7 14 10 0 11 -2 21 -5 21 -3 0 -5 -4 -5 -10z"/>
<path d="M230 135 c0 -8 4 -15 10 -15 5 0 7 7 4 15 -4 8 -8 15 -10 15 -2 0 -4
-7 -4 -15z"/>
<path d="M284 132 c2 -21 21 -19 23 3 l3 20 -9 -20 c-6 -16 -9 -17 -13 -5 -3
8 -4 9 -4 2z"/>
<path d="M320 135 c0 -6 7 -12 15 -12 8 0 15 6 15 12 0 6 -7 12 -15 12 -8 0
-15 -6 -15 -12z"/>
<path d="M650 653 c0 -10 13 -67 28 -128 28 -109 28 -110 59 -113 30 -3 32 -1
46 50 9 29 19 65 22 81 4 15 10 27 14 27 4 0 18 -36 31 -81 23 -79 23 -80 53
-77 30 3 31 5 59 113 34 138 35 145 4 145 -23 0 -26 -7 -43 -80 -10 -44 -21
-80 -25 -80 -5 0 -8 5 -8 11 0 7 -9 43 -20 80 -19 64 -23 69 -49 69 -27 0 -30
-5 -50 -69 -12 -38 -21 -74 -21 -80 0 -6 -4 -11 -8 -11 -5 0 -14 30 -22 68
-17 90 -18 92 -46 92 -16 0 -24 -6 -24 -17z"/>
<path d="M1180 644 c0 -21 4 -25 23 -22 14 2 23 11 25 26 3 18 -1 22 -22 22
-21 0 -26 -5 -26 -26z"/>
<path d="M1250 540 l0 -130 25 0 25 0 0 130 0 130 -25 0 -25 0 0 -130z"/>
<path d="M1320 540 l0 -130 25 0 25 0 0 130 0 130 -25 0 -25 0 0 -130z"/>
<path d="M1488 641 c-28 -25 -32 -35 -36 -93 -4 -58 -2 -67 23 -96 14 -17 42
-36 60 -41 45 -12 105 2 128 30 35 44 -3 64 -53 28 -24 -19 -35 -21 -57 -13
-15 5 -33 21 -41 34 -16 30 -9 97 12 118 20 21 71 19 95 -2 21 -19 52 -18 58
1 3 7 -7 24 -21 38 -21 21 -35 25 -80 25 -47 0 -61 -4 -88 -29z"/>
<path d="M2420 540 l0 -130 25 0 25 0 0 130 0 130 -25 0 -25 0 0 -130z"/>
<path d="M2490 540 l0 -130 25 0 25 0 0 130 0 130 -25 0 -25 0 0 -130z"/>
<path d="M3817 620 c-28 -23 -43 -74 -33 -115 11 -43 41 -65 90 -65 57 0 76 8
76 31 0 17 -5 18 -40 13 -42 -7 -70 6 -70 32 0 10 16 14 61 14 l62 0 -6 38
c-4 20 -16 45 -28 55 -29 23 -80 22 -112 -3z m81 -37 c2 -9 -7 -13 -27 -13
-30 0 -39 9 -24 24 11 10 46 3 51 -11z"/>
<path d="M4463 616 c-25 -21 -28 -31 -28 -81 0 -48 4 -60 24 -76 37 -30 96
-25 132 10 39 40 41 109 4 146 -33 34 -93 34 -132 1z m91 -38 c21 -30 20 -54
-4 -78 -16 -16 -25 -18 -40 -10 -27 14 -28 84 -2 99 24 15 29 14 46 -11z"/>
<path d="M4650 540 l0 -100 30 0 c29 0 29 0 32 68 3 58 6 68 26 77 27 12 31
55 4 55 -10 0 -23 -5 -30 -12 -9 -9 -12 -9 -12 0 0 7 -11 12 -25 12 l-25 0 0
-100z"/>
<path d="M1013 595 c-44 -31 -42 -142 3 -171 35 -24 101 -22 126 4 11 11 17
25 14 31 -9 14 -43 14 -51 1 -11 -17 -54 -11 -65 9 -16 30 -14 31 50 31 45 0
62 4 66 15 8 21 -15 74 -37 85 -27 15 -82 12 -106 -5z m85 -47 c3 -14 -3 -18
-27 -18 -29 0 -41 17 -24 34 13 13 48 1 51 -16z"/>
<path d="M1180 510 l0 -100 25 0 25 0 0 100 0 100 -25 0 -25 0 0 -100z"/>
<path d="M1715 585 c-20 -19 -25 -34 -25 -74 0 -68 30 -104 86 -104 57 0 82
17 94 63 13 49 -2 115 -30 130 -36 19 -99 12 -125 -15z m93 -27 c7 -7 12 -28
12 -48 0 -56 -47 -84 -70 -41 -31 59 16 131 58 89z"/>
<path d="M1890 510 l0 -100 25 0 c24 0 25 3 25 56 0 68 13 94 45 94 20 0 25 5
25 25 0 27 -18 32 -50 15 -13 -7 -21 -7 -25 0 -3 5 -15 10 -26 10 -18 0 -19
-8 -19 -100z"/>
<path d="M2030 510 l0 -100 25 0 c24 0 25 3 25 61 0 69 12 99 40 99 28 0 40
-30 40 -99 0 -58 1 -61 25 -61 24 0 25 2 25 73 0 94 -14 121 -63 125 -21 2
-44 -2 -52 -8 -9 -8 -15 -8 -20 0 -3 5 -15 10 -26 10 -18 0 -19 -8 -19 -100z"/>
<path d="M2249 584 c-19 -20 -24 -37 -24 -75 0 -64 34 -102 92 -102 49 0 83
18 83 43 0 21 -34 28 -45 10 -9 -14 -48 -13 -63 2 -27 27 -13 38 48 38 59 0
60 0 60 29 0 15 -9 40 -21 55 -29 37 -95 37 -130 0z m89 -26 c20 -20 14 -28
-23 -28 -24 0 -35 5 -35 14 0 24 39 33 58 14z"/>
<path d="M4960 550 c0 -17 7 -20 50 -20 43 0 50 3 50 20 0 17 -7 20 -50 20
-43 0 -50 -3 -50 -20z"/>
<path d="M4217 393 c-4 -3 -7 -68 -7 -144 l0 -138 43 -6 c51 -8 110 13 127 44
6 12 10 45 8 73 -2 42 -8 54 -31 72 -23 17 -32 19 -57 9 l-30 -11 0 54 c0 50
-2 54 -23 54 -13 0 -27 -3 -30 -7z m111 -145 c29 -29 6 -98 -33 -98 -23 0 -25
4 -25 43 0 42 13 67 35 67 6 0 16 -5 23 -12z"/>
<path d="M5047 376 c-11 -28 4 -47 32 -44 20 2 26 8 26 28 0 20 -6 26 -26 28
-17 2 -29 -3 -32 -12z"/>
<path d="M3553 373 c-22 -4 -23 -8 -23 -134 l0 -129 30 0 c29 0 30 2 30 45 0
39 3 45 20 45 35 0 77 28 88 58 13 39 4 80 -22 97 -24 15 -90 25 -123 18z m91
-65 c14 -23 -3 -52 -33 -56 -19 -3 -21 1 -21 38 0 37 2 41 21 38 12 -2 27 -11
33 -20z"/>
<path d="M4623 372 c-16 -2 -23 -11 -25 -35 -2 -26 -8 -33 -32 -37 -25 -4 -32
-13 -46 -55 -15 -41 -19 -47 -25 -30 -32 83 -34 85 -63 85 l-30 0 36 -95 c30
-80 33 -99 24 -120 -8 -17 -20 -25 -37 -25 -14 0 -25 -4 -25 -9 0 -5 -3 -16
-6 -25 -5 -13 1 -16 30 -16 53 0 76 28 120 150 22 58 43 109 48 114 4 6 8 -27
8 -72 0 -78 1 -83 24 -93 33 -16 76 -4 76 20 0 13 -8 21 -22 23 -20 3 -23 10
-26 56 -3 50 -2 52 22 52 19 0 26 5 26 20 0 15 -7 20 -24 20 -21 0 -25 5 -28
38 -3 32 -6 37 -25 34z"/>
<path d="M3160 310 l0 -30 90 0 90 0 0 -85 0 -85 30 0 30 0 0 115 0 115 -120
0 -120 0 0 -30z"/>
<path d="M3806 303 c-4 -4 -22 -6 -41 -5 l-35 3 0 -96 c0 -95 0 -95 25 -95 23
0 25 4 25 44 0 58 15 97 40 103 13 3 20 14 20 29 0 23 -19 32 -34 17z"/>
<path d="M3900 297 c-53 -27 -67 -116 -26 -164 21 -25 31 -28 80 -27 62 0 70
4 62 31 -4 14 -16 18 -53 18 -37 0 -48 4 -51 18 -3 14 4 17 51 17 47 0 55 3
60 21 8 29 -7 64 -35 83 -27 19 -54 20 -88 3z m58 -39 c19 -19 14 -28 -18 -28
-32 0 -37 9 -18 28 15 15 21 15 36 0z"/>
<path d="M4082 298 c-47 -23 -41 -86 11 -109 43 -19 41 -33 -5 -37 -30 -3 -38
-7 -38 -22 0 -45 114 -31 126 15 10 39 1 59 -33 75 -40 18 -40 46 0 42 23 -2
27 1 27 23 0 22 -4 25 -32 24 -18 0 -43 -5 -56 -11z"/>
<path d="M4758 295 c-32 -18 -52 -74 -44 -119 11 -57 57 -83 126 -71 32 5 40
11 40 28 0 20 -4 22 -46 18 -32 -2 -49 1 -55 10 -15 25 -10 28 49 31 l57 3 -1
38 c-1 21 -8 45 -16 53 -22 22 -79 27 -110 9z m56 -31 c28 -11 18 -34 -14 -34
-32 0 -37 9 -18 28 14 14 12 14 32 6z"/>
<path d="M4985 301 c-3 -5 -21 -7 -40 -4 l-35 6 0 -97 0 -96 30 0 30 0 0 65
c0 60 2 66 25 77 16 7 25 19 25 35 0 23 -23 32 -35 14z"/>
<path d="M5168 304 c-11 -3 -18 -15 -18 -29 0 -22 3 -23 31 -15 16 5 37 6 45
3 27 -10 14 -29 -31 -41 -32 -8 -49 -19 -57 -37 -23 -50 30 -102 79 -77 10 5
33 7 51 5 l32 -5 0 79 c0 50 -5 86 -13 97 -13 18 -84 30 -119 20z m70 -131
c-4 -22 -48 -31 -48 -10 0 19 10 27 32 27 13 0 18 -6 16 -17z"/>
<path d="M5416 303 c-3 -4 -24 -6 -46 -5 l-40 3 0 -96 0 -95 30 0 c30 0 30 0
30 56 0 64 13 94 40 94 18 0 20 -7 20 -75 l0 -75 31 0 31 0 -3 86 c-3 71 -7
88 -23 100 -21 15 -58 19 -70 7z"/>
<path d="M5050 205 c0 -95 0 -95 25 -95 25 0 25 0 25 95 0 95 0 95 -25 95 -25
0 -25 0 -25 -95z"/>
</g>
</svg>
