<?xml version="1.0" encoding="UTF-8"?>
<svg version="1.1" xmlns="http://www.w3.org/2000/svg" width="4000" height="2667">
<path d="M0 0 C1320 0 2640 0 4000 0 C4000 880.11 4000 1760.22 4000 2667 C2680 2667 1360 2667 0 2667 C0 1786.89 0 906.78 0 0 Z " fill="#F7F7F7" transform="translate(0,0)"/>
<path d="M0 0 C3.47018447 0.00461676 6.94001716 -0.00225512 10.41015625 -0.02050781 C33.69910522 -0.14185871 56.56698917 0.81674885 79.7265625 3.31567383 C81.80003875 3.53061478 83.87352421 3.74546703 85.94702148 3.96020508 C114.83123335 7.02996344 144.19330638 12.20439177 172.26806641 19.66723633 C174.57523793 20.27576141 176.8878228 20.84881534 179.20703125 21.40942383 C242.03689315 36.85984851 303.40687802 62.88655188 358.7265625 96.31567383 C360.73797728 97.51670388 362.74969871 98.71722051 364.76171875 99.91723633 C375.34974216 106.26316105 385.72728035 112.80848982 395.79638672 119.95043945 C397.81855456 121.38074082 399.85156042 122.79455205 401.88671875 124.20629883 C426.01994578 141.003644 449.07004417 159.46162497 470.63305664 179.45751953 C472.55840235 181.24105169 474.49387404 183.01027962 476.43969727 184.77172852 C483.75577202 191.39978119 490.81554285 198.24895057 497.78295898 205.24169922 C499.55143469 207.01558386 501.32526294 208.7839916 503.09960938 210.55200195 C508.85740311 216.30642733 514.44858921 222.1127424 519.7265625 228.31567383 C521.34624067 230.09137604 522.97067968 231.8627569 524.6015625 233.62817383 C528.64058403 238.06198694 532.50163128 242.59621967 536.265625 247.26489258 C538.05936486 249.48856056 539.86528633 251.69765861 541.6875 253.89770508 C550.09887578 264.08751556 558.00001961 274.59937308 565.7265625 285.31567383 C566.50580078 286.39268555 566.50580078 286.39268555 567.30078125 287.49145508 C575.49769366 298.84913063 583.25143495 310.47131001 590.7265625 322.31567383 C591.36722656 323.32968262 592.00789063 324.34369141 592.66796875 325.38842773 C619.12151019 367.50893893 641.48624531 412.5988298 657.50390625 459.73754883 C658.68826462 463.2035944 659.95279185 466.63168398 661.2265625 470.06567383 C664.19000379 478.33861411 666.50035774 486.79107691 668.85180664 495.25415039 C669.69011168 498.18810104 670.5744948 501.10604667 671.46217346 504.02534485 C674.73807181 514.88551381 677.30766435 525.87569635 679.7890625 536.94067383 C680.11730515 538.39450974 680.11730515 538.39450974 680.45217896 539.87771606 C683.45104383 553.18050671 686.34812533 566.46509764 688.37060547 579.95727539 C688.71901478 582.26566632 689.09732001 584.56751379 689.48046875 586.87036133 C691.47414118 599.3091155 692.64080595 611.84434169 693.8515625 624.37817383 C693.98123413 625.70421127 693.98123413 625.70421127 694.11352539 627.05703735 C696.2010744 648.55934048 696.99206415 669.963521 697.0390625 691.56567383 C697.04201324 692.77223633 697.04496399 693.97879883 697.04800415 695.22192383 C697.05759105 712.65805893 696.43394572 729.94527789 694.9140625 747.31567383 C694.83129059 748.26381958 694.74851868 749.21196533 694.66323853 750.18884277 C694.09177969 756.57293603 693.43585544 762.94550363 692.7265625 769.31567383 C692.62076874 770.27184601 692.51497498 771.22801819 692.40597534 772.21316528 C690.69997391 787.35515566 688.28390652 802.29108963 685.4140625 817.25317383 C685.21580872 818.29706268 685.01755493 819.34095154 684.81329346 820.41647339 C680.36357801 843.81602401 674.97203319 866.61446847 667.7265625 889.31567383 C667.28550095 890.712824 666.84493736 892.11013144 666.40478516 893.50756836 C655.54902376 927.93642117 643.48642252 962.16956551 626.77783203 994.26000977 C625.58140231 996.59952167 624.43179624 998.95917949 623.28515625 1001.32348633 C616.91101294 1014.41185321 609.87585043 1026.9963718 602.40820312 1039.49047852 C600.86616995 1042.08113007 599.34684306 1044.68335002 597.8359375 1047.29223633 C580.11869877 1077.67393945 559.18112714 1106.53274105 536.328125 1133.24536133 C533.98398549 1135.99301428 531.72772934 1138.80367611 529.4765625 1141.62817383 C524.4246422 1147.83895756 518.91853757 1153.60288228 513.4140625 1159.40942383 C510.34382318 1162.6488396 507.33923018 1165.9375914 504.3515625 1169.25317383 C499.70553983 1174.33802623 494.90059281 1179.24929218 490.0390625 1184.12817383 C489.33797363 1184.83385498 488.63688477 1185.53953613 487.91455078 1186.26660156 C483.93845696 1190.23099824 479.86055069 1194.01226708 475.60864258 1197.67871094 C472.81062276 1200.11232397 470.1183689 1202.65410613 467.4140625 1205.19067383 C462.59900807 1209.66987542 457.66124406 1213.92337153 452.53125 1218.04223633 C449.98357354 1220.10734455 447.48385421 1222.2151428 444.9934082 1224.34814453 C433.11213872 1234.51568444 420.55853909 1243.69262366 407.85009766 1252.78881836 C405.97118288 1254.1397879 404.1023843 1255.50297963 402.23828125 1256.87426758 C330.99020368 1309.0259072 246.26298641 1344.53391816 146.7265625 1367.31567383 C145.9855127 1367.47535645 145.24446289 1367.63503906 144.48095703 1367.79956055 C121.45047347 1372.7214582 98.27657995 1376.24081124 74.8515625 1378.56567383 C74.0205603 1378.64857666 73.18955811 1378.73147949 72.33337402 1378.81689453 C66.80137282 1379.36244597 61.26650943 1379.85812809 55.7265625 1380.31567383 C54.45941406 1380.42242432 53.19226562 1380.5291748 51.88671875 1380.63916016 C38.22631434 1381.6145311 24.52690724 1381.5029048 10.83886719 1381.50097656 C7.95208387 1381.5008959 5.06546129 1381.50775595 2.17871094 1381.52148438 C-23.33206477 1381.64071471 -48.60952241 1380.48469313 -73.9609375 1377.44067383 C-74.67861298 1377.35674377 -75.39628845 1377.27281372 -76.13571167 1377.18634033 C-112.76446461 1372.90114378 -149.91575101 1366.40565643 -185.06152344 1355.00854492 C-188.33092502 1353.98442112 -191.63242893 1353.08530871 -194.93481445 1352.17431641 C-207.24558197 1348.76757026 -219.27274161 1344.68259372 -231.2734375 1340.31567383 C-232.1603125 1339.9934082 -233.0471875 1339.67114258 -233.9609375 1339.33911133 C-318.89577845 1308.24689276 -397.6170952 1259.52528596 -463.68212891 1197.79370117 C-465.23801829 1196.34857164 -466.80580283 1194.91780823 -468.37890625 1193.49145508 C-474.78811201 1187.66690321 -481.01338438 1181.67876852 -487.1484375 1175.56567383 C-488.2007959 1174.52020386 -488.2007959 1174.52020386 -489.27441406 1173.45361328 C-493.21117759 1169.50514991 -496.96188397 1165.45319115 -500.60302734 1161.23120117 C-503.20540375 1158.24695018 -505.93190893 1155.38309324 -508.6484375 1152.50317383 C-513.32351118 1147.50676399 -517.7781544 1142.4035277 -522.0546875 1137.05786133 C-524.00841589 1134.64321814 -526.01539652 1132.28681991 -528.04980469 1129.94018555 C-535.28409614 1121.56129403 -541.87422689 1112.71634657 -548.4375 1103.80737305 C-549.60088349 1102.22845126 -550.76719541 1100.65167955 -551.9375 1099.07788086 C-566.60870926 1079.34311693 -579.97191094 1058.60294084 -592.2734375 1037.31567383 C-593.08627197 1035.91212646 -593.08627197 1035.91212646 -593.91552734 1034.48022461 C-607.92275875 1010.17414537 -620.39634133 985.17502073 -631.2734375 959.31567383 C-631.80976807 958.04216064 -631.80976807 958.04216064 -632.35693359 956.74291992 C-649.8935281 914.75731311 -663.34752785 870.91097068 -672.2734375 826.31567383 C-672.46921387 825.35693359 -672.66499023 824.39819336 -672.86669922 823.41040039 C-678.07707222 797.8454436 -680.96979277 771.83970939 -683.3984375 745.87817383 C-683.47392822 745.08862305 -683.54941895 744.29907227 -683.62719727 743.4855957 C-685.17857011 726.17738193 -685.47684727 708.87165962 -685.4609375 691.50317383 C-685.46066559 690.38083344 -685.46039368 689.25849304 -685.46011353 688.10214233 C-685.4404609 670.40990738 -684.88977033 652.9400117 -683.2734375 635.31567383 C-683.15878412 633.98275563 -683.04521787 632.64974357 -682.93261719 631.31665039 C-679.96193385 596.18643678 -674.7158863 561.48772827 -666.0234375 527.29516602 C-665.25095076 524.22634173 -664.50913004 521.15132504 -663.7734375 518.07348633 C-661.19826953 507.38230737 -658.31892685 496.93661247 -654.70703125 486.55004883 C-653.23345664 482.28583692 -651.99746651 477.96929839 -650.7734375 473.62817383 C-649.0423991 467.56119706 -646.98197902 461.77589561 -644.55883789 455.94604492 C-643.02714546 452.24978494 -641.644822 448.54359109 -640.37890625 444.74487305 C-629.44759115 412.15069593 -613.36192711 380.07247347 -596.2734375 350.31567383 C-595.73879883 349.38255371 -595.20416016 348.44943359 -594.65332031 347.48803711 C-579.83643013 321.81831171 -563.36907569 296.79761942 -545.2734375 273.31567383 C-544.77811523 272.67162598 -544.28279297 272.02757812 -543.77246094 271.36401367 C-537.75182925 263.56428731 -531.57070593 255.89374261 -525.2734375 248.31567383 C-524.85094727 247.80681641 -524.42845703 247.29795898 -523.99316406 246.77368164 C-517.79482917 239.32571896 -511.41133708 232.09509826 -504.81323242 224.99902344 C-503.67852597 223.75852859 -502.55838019 222.50467672 -501.4465332 221.24365234 C-495.10968571 214.07830461 -488.41698658 207.3064668 -481.64379883 200.55566406 C-479.70733201 198.62457836 -477.77629794 196.68817501 -475.84570312 194.7512207 C-469.82254983 188.72482428 -463.77799258 182.8263812 -457.2734375 177.31567383 C-455.49773529 175.69599566 -453.72635443 174.07155665 -451.9609375 172.44067383 C-447.54990577 168.4218679 -443.03608392 164.58702059 -438.390625 160.84301758 C-436.06105808 158.96519467 -433.76086353 157.05543266 -431.46875 155.13208008 C-421.0484659 146.41041964 -410.31662727 138.23143226 -399.2734375 130.31567383 C-398.47035156 129.73817383 -397.66726563 129.16067383 -396.83984375 128.56567383 C-383.95427548 119.32929849 -370.74171288 110.67668853 -357.2734375 102.31567383 C-356.27183594 101.69233154 -356.27183594 101.69233154 -355.25 101.05639648 C-338.57615097 90.72916542 -321.38426147 81.00009323 -303.70898438 72.49438477 C-300.69659216 71.03650289 -297.69669099 69.5539074 -294.6953125 68.07348633 C-274.39809413 58.09570084 -253.91347443 49.04832455 -232.4765625 41.76489258 C-229.32183666 40.69054697 -226.22586322 39.53543454 -223.1484375 38.25317383 C-209.568202 32.69332132 -195.38615522 28.83186779 -181.2199707 25.09643555 C-179.08912443 24.5318116 -176.9602965 23.959552 -174.83276367 23.38256836 C-142.62330565 14.67570784 -109.91298265 7.99830406 -76.7734375 4.06567383 C-75.50105225 3.91453125 -74.22866699 3.76338867 -72.91772461 3.60766602 C-69.50315394 3.22527208 -66.08893772 2.87083334 -62.66870117 2.54452515 C-60.99654264 2.38476166 -59.32485778 2.21999598 -57.65356445 2.05142212 C-38.44011168 0.15258804 -19.28631688 -0.02777591 0 0 Z " fill="#500181" transform="translate(1994.2734375,642.684326171875)"/>
<path d="M0 0 C57.75 0 115.5 0 175 0 C175 22.77 175 45.54 175 69 C157.84 69 140.68 69 123 69 C124.8975 74.506875 126.795 80.01375 128.75 85.6875 C135.58948256 105.6441832 142.17612056 125.68167588 148.72669029 145.73454952 C149.7926986 148.99762837 150.85908226 152.26058437 151.92578125 155.5234375 C152.24201258 156.49080935 152.24201258 156.49080935 152.56463242 157.47772408 C157.84268214 173.61763789 163.22138515 189.72390298 168.62036133 205.82373047 C168.95445511 206.82181732 169.28854889 207.81990417 169.63276672 208.84823608 C170.24227591 210.66887608 170.85303639 212.48909804 171.46549988 214.30874634 C172.96592349 218.7922699 174.39899785 223.28859063 175.76904297 227.8137207 C178.38330485 236.36070644 181.25276542 244.82139362 184.10286331 253.29205894 C185.12243219 256.32377537 186.13919568 259.35641927 187.15512085 262.38935852 C190.04046689 271.00298054 192.92751845 279.61601877 195.82421875 288.22583008 C197.6041576 293.51697887 199.3781558 298.81008771 201.14835739 304.10450172 C201.81992558 306.10935576 202.49367925 308.11347918 203.16972733 310.11682701 C204.11566798 312.92068507 205.05399604 315.72698804 205.99072266 318.53393555 C206.26712082 319.34717789 206.54351898 320.16042023 206.82829285 320.99830627 C208.68450682 326.59613337 209.96201156 332.19615134 211 338 C211.66 338 212.32 338 213 338 C213.1724675 337.40007736 213.344935 336.80015472 213.52262878 336.18205261 C215.37710758 329.85257515 217.50199878 323.66874319 219.80078125 317.48828125 C220.15963913 316.51698776 220.51849701 315.54569427 220.88822937 314.54496765 C221.64398715 312.50152083 222.40123621 310.45862497 223.15991211 308.41625977 C224.3024904 305.33945446 225.43970578 302.26070806 226.57617188 299.18164062 C229.66001684 290.84632114 232.75184621 282.5239806 236.10546875 274.29296875 C238.74688134 267.78023158 241.07475167 261.18102875 243.37214661 254.5401001 C245.96458942 247.05616103 248.70695837 239.63678405 251.50854492 232.22900391 C253.11262145 227.98672092 254.70801213 223.7411666 256.3046875 219.49609375 C256.66185852 218.54701141 257.01902954 217.59792908 257.38702393 216.62008667 C262.51230965 202.99246907 267.59140244 189.34755856 272.67773438 175.70536804 C275.1205326 169.15362981 277.56387981 162.60209639 280.0078125 156.05078125 C280.26996803 155.34802944 280.53212357 154.64527763 280.80222321 153.92123032 C285.31048248 141.83729974 289.83780856 129.76059522 294.375 117.6875 C300.33695905 101.82280993 306.18893504 85.92072592 312 70 C296.49 69.67 280.98 69.34 265 69 C265 46.23 265 23.46 265 0 C323.08 0 381.16 0 441 0 C441 22.77 441 45.54 441 69 C424.17 69 407.34 69 390 69 C403.04489477 104.72106698 416.25755445 140.37134625 429.62435913 175.97302246 C435.60451076 191.90400532 441.55117723 207.84661151 447.4375 223.8125 C454.02529683 241.68058825 460.65671682 259.53214806 467.3125 277.375 C467.54890827 278.00878822 467.78531654 278.64257645 468.0288887 279.29557037 C475.33130397 298.87169861 482.64790078 318.44247324 490 338 C493.31175561 330.03625975 496.15180841 321.93583151 498.9296875 313.7734375 C499.40075813 312.39582134 499.87209318 311.01829558 500.34367371 309.64085388 C501.34008841 306.72917612 502.33508 303.81701798 503.32888794 300.90444946 C505.9381183 293.25832856 508.55720841 285.6155815 511.17578125 277.97265625 C511.43377188 277.21940001 511.6917625 276.46614376 511.95757103 275.69006157 C515.9456088 264.04755139 519.97459228 252.42036457 524.0625 240.8125 C530.04234324 223.82049205 535.90099014 206.78735965 541.75 189.75 C543.64956694 184.21738863 545.54927079 178.68482428 547.44921875 173.15234375 C547.68352978 172.47003567 547.91784081 171.78772758 548.15925217 171.0847435 C559.97606062 136.67742898 571.90673107 102.3111351 584 68 C566.84 68 549.68 68 532 68 C532 45.89 532 23.78 532 1 C588.76 1 645.52 1 704 1 C704 23.44 704 45.88 704 69 C687.83 69 671.66 69 655 69 C654.34 72.3 653.68 75.6 653 79 C652.08349609 81.7421875 652.08349609 81.7421875 651.1484375 83.875 C648.77086313 89.51431608 646.69050319 95.23993362 644.625 101 C644.2328833 102.08998291 643.8407666 103.17996582 643.43676758 104.30297852 C640.83888263 111.55969098 638.35677185 118.84674962 635.95532227 126.17041016 C634.50179555 130.57728744 632.89521962 134.86890274 631.1171875 139.15234375 C629.1890794 144.06699691 627.50776861 149.06979619 625.77978516 154.05761719 C623.73592161 159.94090823 621.61465048 165.78984989 619.4375 171.625 C616.81667431 178.65723222 614.39519251 185.73779115 612.05615234 192.86816406 C610.56919549 197.37391261 608.93661729 201.76917198 607.1171875 206.15234375 C605.1890794 211.06699691 603.50776861 216.06979619 601.77978516 221.05761719 C599.73592161 226.94090823 597.61465048 232.78984989 595.4375 238.625 C592.81748489 245.65505727 590.39656947 252.73337011 588.05834961 259.86157227 C586.54791293 264.43857618 584.89198634 268.90930348 583.046875 273.36328125 C581.40289361 277.50390601 579.96046863 281.71518487 578.4921875 285.92041016 C576.38374843 291.94694485 574.19835707 297.94326091 572 303.9375 C569.18768404 311.61504903 566.49605417 319.31996358 563.99023438 327.10327148 C562.55428018 331.52114668 560.83609595 335.72826656 559 340 C557.8888267 343.00417823 556.85136667 346.03267307 555.8125 349.0625 C553.27224463 356.39919454 550.66819509 363.70887393 548 371 C545.01360321 379.16489732 542.10103173 387.35248039 539.2578125 395.56835938 C538.9896875 396.34115234 538.7215625 397.11394531 538.4453125 397.91015625 C538.21344238 398.58183838 537.98157227 399.25352051 537.74267578 399.94555664 C536.88495954 402.31823322 535.93699971 404.65750073 535 407 C550.18 407.33 565.36 407.66 581 408 C581 430.44 581 452.88 581 476 C521.27 476 461.54 476 400 476 C400 453.56 400 431.12 400 408 C415.51 408 431.02 408 447 408 C439.16428327 386.60984652 439.16428327 386.60984652 431.28735352 365.23486328 C429.61062956 360.69052842 427.98244001 356.13179707 426.375 351.5625 C424.87640669 347.33117773 423.26680987 343.18871435 421.5 339.0625 C419.31584696 333.93419082 417.52408614 328.71747433 415.80249023 323.42163086 C414.40000663 319.12951424 412.82291774 314.96293275 411.09765625 310.79296875 C409.35322982 306.35430362 407.81812539 301.84100395 406.28149414 297.32666016 C405.01238377 293.65421241 403.62851056 290.09657461 402.01953125 286.55859375 C399.95435579 282.00138762 398.29515361 277.35977929 396.6875 272.625 C396.07933736 270.86286236 395.46993035 269.10115378 394.859375 267.33984375 C394.55193359 266.45280762 394.24449219 265.56577148 393.92773438 264.65185547 C390.50624653 254.87180257 386.90696977 245.15892973 383 235.5625 C380.34604777 229.00857553 377.99072774 222.37581603 375.67797852 215.69482422 C371.72508332 204.28451702 367.63282415 192.92876583 363.0625 181.75 C360.3916462 175.14886541 357.98139529 168.4694937 355.625 161.75 C355.26672119 160.73647461 354.90844238 159.72294922 354.53930664 158.67871094 C354.20922607 157.72770508 353.87914551 156.77669922 353.5390625 155.796875 C353.24209473 154.94448242 352.94512695 154.09208984 352.63916016 153.21386719 C352 151 352 151 352 148 C351.34 148 350.68 148 350 148 C349.89405518 148.55252441 349.78811035 149.10504883 349.67895508 149.67431641 C348.54475612 155.20742356 346.88432241 160.18414848 344.6875 165.375 C340.69095814 175.08497521 337.01330331 184.90186082 333.375 194.75 C333.10368256 195.48418152 332.83236511 196.21836304 332.55282593 196.97479248 C331.48311072 199.87011458 330.41370072 202.76554881 329.34510803 205.6612854 C327.40341442 210.9195295 325.44079289 216.16968961 323.46920776 221.41680908 C321.12485151 227.65924433 318.79596085 233.90740499 316.46875 240.15625 C316.06612946 241.23731018 315.66350891 242.31837036 315.24868774 243.43218994 C313.9989937 246.78807769 312.74946632 250.14402745 311.5 253.5 C306.87673085 265.91775317 302.25322765 278.33528379 297.59570312 290.74023438 C293.8785015 300.65317446 290.19393324 310.57837317 286.5 320.5 C284.8439613 324.94799538 283.18775324 329.3959276 281.53125 333.84375 C281.13108673 334.91826416 280.73092346 335.99277832 280.31863403 337.09985352 C278.20713447 342.76741548 276.08934895 348.43252025 273.9609375 354.09375 C269.97364045 364.71357531 266.05392359 375.35847571 262.125 386 C261.33336941 388.14324249 260.54170298 390.28647175 259.75 392.4296875 C257.83285512 397.61961528 255.91644255 402.80981262 254 408 C268.85 408 283.7 408 299 408 C299 430.44 299 452.88 299 476 C239.6 476 180.2 476 119 476 C119 453.56 119 431.12 119 408 C140.78 407.505 140.78 407.505 163 407 C161.123125 401.18375 159.24625 395.3675 157.3125 389.375 C156.44105347 386.66869385 156.44105347 386.66869385 155.55200195 383.90771484 C152.90663343 375.71765123 150.17057652 367.57819049 147.23950195 359.48486328 C145.8558768 355.59479721 144.54177033 351.68566939 143.24609375 347.765625 C143.01521561 347.06744659 142.78433746 346.36926819 142.54646301 345.64993286 C141.60411748 342.79558517 140.66410562 339.94048156 139.72680664 337.08447266 C136.60883805 327.48412923 136.60883805 327.48412923 133.0078125 318.05859375 C130.01845998 310.81209312 127.80297997 303.27971477 125.4375 295.8125 C124.48185914 292.79688673 123.52155238 289.78281464 122.55859375 286.76953125 C122.34601425 286.0933223 122.13343475 285.41711334 121.91441345 284.72041321 C120.91320654 281.58805995 119.81516636 278.57003906 118.51586914 275.54760742 C116.82053624 271.57999874 115.48730638 267.57863288 114.1875 263.46875 C113.93250732 262.67400269 113.67751465 261.87925537 113.41479492 261.0604248 C112.33430243 257.69244337 111.26175065 254.32194743 110.18847656 250.95166016 C109.3992444 248.47729776 108.60595891 246.00425961 107.8125 243.53125 C107.57490967 242.78000854 107.33731934 242.02876709 107.0925293 241.25476074 C105.63401821 236.71062379 103.89662166 232.38434922 102 228 C101.16412819 225.6370772 100.35687224 223.26389195 99.57421875 220.8828125 C99.35043549 220.20585327 99.12665222 219.52889404 98.89608765 218.8314209 C98.41176859 217.36598479 97.92871574 215.90012971 97.44680786 214.43389893 C96.12064421 210.40130821 94.78293096 206.37255297 93.4453125 202.34375 C93.16480545 201.49849762 92.8842984 200.65324524 92.59529114 199.78237915 C89.46957163 190.37887578 86.27062994 181.00064747 83.0625 171.625 C82.77025543 170.77042206 82.47801086 169.91584412 82.1769104 169.03536987 C79.28072853 160.56724323 76.37832368 152.10125613 73.47286987 143.63630676 C72.10606897 139.65366051 70.7403334 135.67064955 69.375 131.6875 C68.97867371 130.53173965 68.97867371 130.53173965 68.57434082 129.35263062 C63.8943276 115.69744866 59.31150696 102.01082341 54.78076172 88.30541992 C54.54088028 87.58151062 54.30099884 86.85760132 54.05384827 86.11175537 C53.40877805 84.16467157 52.76547894 82.21700125 52.12231445 80.26928711 C51.42588485 78.24059692 50.67796746 76.22790283 49.85229492 74.24829102 C49 72 49 72 49 69 C32.83 69 16.66 69 0 69 C0 46.23 0 23.46 0 0 Z " fill="#FDFDFE" transform="translate(1647,1095)"/>
</svg>
